<svg version="1.1" preserveAspectRatio="none" xmlns="http://www.w3.org/2000/svg" width="500" height="500" viewBox="0 0 500 500"><rect width="100%" height="100%" fill="#010506" fill-opacity="1"/><svg viewBox="0.859 147.8954 497.0906 83.2" width="333" height="55.7355138077445" x="83.5px" y="222.1322px" xmlns="http://www.w3.org/2000/svg" xmlns:xlink="http://www.w3.org/1999/xlink" preserveAspectRatio="none"><defs></defs><style>.background {fill:#010506;fill-opacity:1;}.companyName {fill:#EEF8F7;fill-opacity:1;}.icon1 {fill:#E35F21;fill-opacity:1;}.icon2 {fill:#EEF8F7;fill-opacity:1;}.icon3 {fill:#FAAB05;fill-opacity:1;}.icon3-str {stroke:#FAAB05;stroke-opacity:1;}.shapeStroke-str {stroke:#E35F21;stroke-opacity:1;}.text {fill:#EEF8F7;fill-opacity:1;}</style><g opacity="1" transform="rotate(0 0.859 147.8954)">
<svg width="83.2" height="83.2" x="0.859" y="147.8954" version="1.1" preserveAspectRatio="none" viewBox="0 0 83.2 83.2">
  <defs><rect x="0" y="0" width="83.2" height="83.2" rx="150px" ry="150px" id="id-3WKIowxM31674869381166"></rect></defs><use class="icon1 shapeStroke-str" style="stroke-width:0;" xlink:href="#id-3WKIowxM31674869381166"></use>
</svg>
</g><g opacity="1" transform="rotate(0 13.339 160.5909)">
<svg width="58.24" height="57.809" x="13.339" y="160.5909" version="1.1" preserveAspectRatio="none" viewBox="11.80000114440918 12.245500564575195 77.1252670288086 76.55450439453125">
  <g transform="matrix(1 0 0 1 0 0)" class="background"><path d="M66.8,17.9C66.8,17.9,66.8,17.9,66.8,17.9L47.1,37.7l-11.7,0.2c0.8-0.8,3.4-3.9,2-8.9c-0.1-0.3-0.4-0.6-0.7-0.7  c-5.5-1.6-8.8,1.9-9,2.1L16.9,41.1c-0.4,0.4-0.4,1,0,1.4l6.2,6.2c0.2,0.2,0.5,0.3,0.7,0.3s0.5-0.1,0.7-0.3l0.6-0.6l5.8,5.8l-1.5,1.5  c-0.2,0.2-0.3,0.4-0.3,0.7s0.1,0.5,0.3,0.7l0.4,0.4l-2.3,2.3c-0.2,0.2-0.3,0.4-0.3,0.7s0.1,0.5,0.3,0.7l4.8,4.8l-6.6,6.6  c-0.4,0.4-0.4,1,0,1.4c0.2,0.2,0.5,0.3,0.7,0.3s0.5-0.1,0.7-0.3l6.6-6.6l1.6,1.6L21.3,82.8c-0.4,0.4-0.4,1,0,1.4  c0.2,0.2,0.5,0.3,0.7,0.3s0.5-0.1,0.7-0.3l14.1-14.1l3.5,3.5c0.2,0.2,0.5,0.3,0.7,0.3s0.5-0.1,0.7-0.3l2.3-2.3l0.4,0.4  c0.2,0.2,0.4,0.3,0.7,0.3s0.5-0.1,0.7-0.3l1.5-1.5l5.9,5.9l-0.6,0.6c-0.4,0.4-0.4,1,0,1.4l6.2,6.2c0.2,0.2,0.5,0.3,0.7,0.3  s0.5-0.1,0.7-0.3l10.7-10.7c0.3-0.3,3.7-3.6,2.1-9c-0.1-0.3-0.4-0.6-0.7-0.7c-5-1.4-8.1,1.2-8.9,2L63.6,54l19.6-19.6c0,0,0,0,0,0  c0.8-0.7,8.3-8,4.8-20.5c-0.1-0.3-0.4-0.6-0.7-0.7C74.9,9.6,67.4,17.3,66.8,17.9z M35.5,30c0.6,2.8-0.4,4.8-1.1,5.8l-4.7-4.7  C30.8,30.4,32.8,29.4,35.5,30z M19,41.8l9.3-9.3l4.8,4.8l-9.3,9.3L19,41.8z M26.5,46.7l6.8-6.8L45,39.7L32.3,52.4L26.5,46.7z   M41,71.5L29.6,60.2l1.6-1.6L42.6,70L41,71.5z M59.5,82.3l-4.8-4.8l9.3-9.3l4.8,4.8L59.5,82.3z M71.2,65.7c0.6,2.8-0.4,4.8-1.1,5.8  l-4.7-4.7C66.4,66.1,68.4,65.1,71.2,65.7z M61.4,67.9l-6.8,6.8l-5.9-5.9L61.6,56L61.4,67.9z M45.1,69.7L31.5,56.1l36-36l13.6,13.6  L45.1,69.7z M82.5,32.3L68.9,18.7c2-1.7,8.1-6.1,17.3-3.7C88.7,24.3,84.3,30.3,82.5,32.3z"></path><path d="M62.8,29.3c-2.5,2.5-2.5,6.6,0,9.1c1.3,1.3,2.9,1.9,4.6,1.9s3.3-0.6,4.6-1.9c1.2-1.2,1.9-2.8,1.9-4.6c0-1.7-0.7-3.3-1.9-4.6  c-1.2-1.2-2.8-1.9-4.6-1.9S64,28.1,62.8,29.3z M70.5,37c-0.8,0.8-2,1.3-3.1,1.3S65,37.8,64.2,37c-1.7-1.7-1.7-4.6,0-6.3  c1.7-1.7,4.6-1.7,6.3,0S72.2,35.2,70.5,37z"></path><path d="M65.2,32.7c0.4,0.4,1,0.4,1.4,0c0.4-0.4,1.2-0.4,1.6,0c0.2,0.2,0.5,0.3,0.7,0.3s0.5-0.1,0.7-0.3c0.4-0.4,0.4-1,0-1.4  c-1.2-1.2-3.2-1.2-4.4,0C64.8,31.7,64.8,32.3,65.2,32.7z"></path><path d="M26.1,68c0.3,0,0.5-0.1,0.7-0.3l2.1-2.1c0.4-0.4,0.4-1,0-1.4c-0.4-0.4-1-0.4-1.4,0l-2.1,2.1c-0.4,0.4-0.4,1,0,1.4  C25.6,67.9,25.9,68,26.1,68z"></path><path d="M12.8,87.4c0.3,0,0.5-0.1,0.7-0.3l10.9-10.9c0.4-0.4,0.4-1,0-1.4s-1-0.4-1.4,0L12.1,85.7c-0.4,0.4-0.4,1,0,1.4  C12.3,87.3,12.6,87.4,12.8,87.4z"></path><path d="M15.7,78.4c0.3,0,0.5-0.1,0.7-0.3l8-8c0.4-0.4,0.4-1,0-1.4s-1-0.4-1.4,0l-8,8c-0.4,0.4-0.4,1,0,1.4  C15.2,78.3,15.4,78.4,15.7,78.4z"></path><path d="M24.1,88.8c0.3,0,0.5-0.1,0.7-0.3l2.1-2.1c0.4-0.4,0.4-1,0-1.4s-1-0.4-1.4,0l-2.1,2.1c-0.4,0.4-0.4,1,0,1.4  C23.6,88.7,23.9,88.8,24.1,88.8z"></path><path d="M36,74.5l-8,8c-0.4,0.4-0.4,1,0,1.4c0.2,0.2,0.5,0.3,0.7,0.3s0.5-0.1,0.7-0.3l8-8c0.4-0.4,0.4-1,0-1.4S36.4,74.1,36,74.5z"></path></g>
</svg>
</g><g opacity="1" transform="rotate(0 104.059 203.4954)">
<svg width="329.0318" height="18" x="104.059" y="203.4954" version="1.1" preserveAspectRatio="none" viewBox="2.92 -31.32 577.6400000000001 31.6">
  <g transform="matrix(1 0 0 1 0 0)" class="text"><path id="id-6izo4zJp25" d="M26.80-27.72L31.16-27.72L31.16 0L27.52 0L27.52-22.12L18.68 0L15.44 0L6.56-22.04L6.56 0L2.92 0L2.92-27.72L7.28-27.72L17.12-4.44L26.80-27.72Z M50-22.24Q53.20-22.24 55.42-20.64Q57.64-19.04 58.52-16.36L58.52-16.36L58.52-21.96L62.16-21.96L62.16 0L58.52 0L58.52-5.60Q57.64-2.92 55.42-1.32Q53.20 0.28 50 0.28L50 0.28Q47.08 0.28 44.80-1.08Q42.52-2.44 41.22-4.98Q39.92-7.52 39.92-10.96L39.92-10.96Q39.92-14.40 41.22-16.96Q42.52-19.52 44.80-20.88Q47.08-22.24 50-22.24L50-22.24ZM51.04-19Q47.68-19 45.66-16.86Q43.64-14.72 43.64-10.96L43.64-10.96Q43.64-7.20 45.66-5.06Q47.68-2.92 51.04-2.92L51.04-2.92Q53.20-2.92 54.90-3.92Q56.60-4.92 57.56-6.74Q58.52-8.56 58.52-10.96L58.52-10.96Q58.52-13.36 57.56-15.20Q56.60-17.04 54.90-18.02Q53.20-19 51.04-19L51.04-19Z M78.84-22.24Q82.56-22.24 84.82-20.30Q87.08-18.36 87.56-15.08L87.56-15.08L84.08-15.08Q83.84-17.04 82.46-18.30Q81.08-19.56 78.76-19.56L78.76-19.56Q76.80-19.56 75.70-18.62Q74.60-17.68 74.60-16.08L74.60-16.08Q74.60-14.88 75.34-14.14Q76.08-13.40 77.18-13.02Q78.28-12.64 80.20-12.20L80.20-12.20Q82.64-11.64 84.14-11.06Q85.64-10.48 86.70-9.20Q87.76-7.92 87.76-5.76L87.76-5.76Q87.76-3.08 85.74-1.40Q83.72 0.28 80.36 0.28L80.36 0.28Q76.44 0.28 73.96-1.60Q71.48-3.48 71.04-6.84L71.04-6.84L74.56-6.84Q74.76-4.84 76.30-3.60Q77.84-2.36 80.36-2.36L80.36-2.36Q82.24-2.36 83.30-3.32Q84.36-4.28 84.36-5.84L84.36-5.84Q84.36-7.12 83.60-7.88Q82.84-8.64 81.72-9.04Q80.60-9.44 78.64-9.88L78.64-9.88Q76.20-10.44 74.74-11Q73.28-11.56 72.26-12.78Q71.24-14 71.24-16.08L71.24-16.08Q71.24-18.84 73.28-20.54Q75.32-22.24 78.84-22.24L78.84-22.24Z M119.52-22.24Q122.72-22.24 124.94-20.64Q127.16-19.04 128.04-16.36L128.04-16.36L128.04-21.96L131.68-21.96L131.68 0L128.04 0L128.04-5.60Q127.16-2.92 124.94-1.32Q122.72 0.28 119.52 0.28L119.52 0.28Q116.60 0.28 114.32-1.08Q112.04-2.44 110.74-4.98Q109.44-7.52 109.44-10.96L109.44-10.96Q109.44-14.40 110.74-16.96Q112.04-19.52 114.32-20.88Q116.60-22.24 119.52-22.24L119.52-22.24ZM120.56-19Q117.20-19 115.18-16.86Q113.16-14.72 113.16-10.96L113.16-10.96Q113.16-7.20 115.18-5.06Q117.20-2.92 120.56-2.92L120.56-2.92Q122.72-2.92 124.42-3.92Q126.12-4.92 127.08-6.74Q128.04-8.56 128.04-10.96L128.04-10.96Q128.04-13.36 127.08-15.20Q126.12-17.04 124.42-18.02Q122.72-19 120.56-19L120.56-19Z M141.48-29.60L145.12-29.60L145.12 0L141.48 0L141.48-29.60Z M154.96-29.60L158.60-29.60L158.60 0L154.96 0L154.96-29.60Z M177.44-22.24Q180.64-22.24 182.86-20.64Q185.08-19.04 185.96-16.36L185.96-16.36L185.96-21.96L189.60-21.96L189.60 0L185.96 0L185.96-5.60Q185.08-2.92 182.86-1.32Q180.64 0.28 177.44 0.28L177.44 0.28Q174.52 0.28 172.24-1.08Q169.96-2.44 168.66-4.98Q167.36-7.52 167.36-10.96L167.36-10.96Q167.36-14.40 168.66-16.96Q169.96-19.52 172.24-20.88Q174.52-22.24 177.44-22.24L177.44-22.24ZM178.48-19Q175.12-19 173.10-16.86Q171.08-14.72 171.08-10.96L171.08-10.96Q171.08-7.20 173.10-5.06Q175.12-2.92 178.48-2.92L178.48-2.92Q180.64-2.92 182.34-3.92Q184.04-4.92 185.00-6.74Q185.96-8.56 185.96-10.96L185.96-10.96Q185.96-13.36 185.00-15.20Q184.04-17.04 182.34-18.02Q180.64-19 178.48-19L178.48-19ZM185.08-31.32L185.08-28.36L176.56-23.68L176.56-26.28L185.08-31.32Z M222.28-22.24Q225.48-22.24 227.70-20.64Q229.92-19.04 230.80-16.36L230.80-16.36L230.80-29.60L234.44-29.60L234.44 0L230.80 0L230.80-5.60Q229.92-2.92 227.70-1.32Q225.48 0.28 222.28 0.28L222.28 0.28Q219.36 0.28 217.08-1.08Q214.80-2.44 213.50-4.98Q212.20-7.52 212.20-10.96L212.20-10.96Q212.20-14.40 213.50-16.96Q214.80-19.52 217.08-20.88Q219.36-22.24 222.28-22.24L222.28-22.24ZM223.32-19Q219.96-19 217.94-16.86Q215.92-14.72 215.92-10.96L215.92-10.96Q215.92-7.20 217.94-5.06Q219.96-2.92 223.32-2.92L223.32-2.92Q225.48-2.92 227.18-3.92Q228.88-4.92 229.84-6.74Q230.80-8.56 230.80-10.96L230.80-10.96Q230.80-13.36 229.84-15.20Q228.88-17.04 227.18-18.02Q225.48-19 223.32-19L223.32-19Z M264.44-12.20Q264.44-11.04 264.28-10.20L264.28-10.20L246.72-10.20Q246.84-6.44 248.86-4.56Q250.88-2.68 253.80-2.68L253.80-2.68Q256.44-2.68 258.22-4.02Q260-5.36 260.40-7.60L260.40-7.60L264.28-7.60Q263.88-5.32 262.50-3.52Q261.12-1.72 258.92-0.72Q256.72 0.28 253.96 0.28L253.96 0.28Q250.80 0.28 248.36-1.08Q245.92-2.44 244.54-4.98Q243.16-7.52 243.16-10.96L243.16-10.96Q243.16-14.40 244.54-16.96Q245.92-19.52 248.36-20.88Q250.80-22.24 253.96-22.24L253.96-22.24Q257.16-22.24 259.54-20.88Q261.92-19.52 263.18-17.24Q264.44-14.96 264.44-12.20L264.44-12.20ZM260.76-11.96Q260.88-14.40 259.96-16.04Q259.04-17.68 257.44-18.48Q255.84-19.28 253.96-19.28L253.96-19.28Q250.96-19.28 248.92-17.42Q246.88-15.56 246.72-11.96L246.72-11.96L260.76-11.96Z M287.08-29.60L290.72-29.60L290.72 0L287.08 0L287.08-29.60Z M309.56-22.24Q312.76-22.24 314.98-20.64Q317.20-19.04 318.08-16.36L318.08-16.36L318.08-21.96L321.72-21.96L321.72 0L318.08 0L318.08-5.60Q317.20-2.92 314.98-1.32Q312.76 0.28 309.56 0.28L309.56 0.28Q306.64 0.28 304.36-1.08Q302.08-2.44 300.78-4.98Q299.48-7.52 299.48-10.96L299.48-10.96Q299.48-14.40 300.78-16.96Q302.08-19.52 304.36-20.88Q306.64-22.24 309.56-22.24L309.56-22.24ZM310.60-19Q307.24-19 305.22-16.86Q303.20-14.72 303.20-10.96L303.20-10.96Q303.20-7.20 305.22-5.06Q307.24-2.92 310.60-2.92L310.60-2.92Q312.76-2.92 314.46-3.92Q316.16-4.92 317.12-6.74Q318.08-8.56 318.08-10.96L318.08-10.96Q318.08-13.36 317.12-15.20Q316.16-17.04 314.46-18.02Q312.76-19 310.60-19L310.60-19Z M338.40-22.24Q342.12-22.24 344.38-20.30Q346.64-18.36 347.12-15.08L347.12-15.08L343.64-15.08Q343.40-17.04 342.02-18.30Q340.64-19.56 338.32-19.56L338.32-19.56Q336.36-19.56 335.26-18.62Q334.16-17.68 334.16-16.08L334.16-16.08Q334.16-14.88 334.90-14.14Q335.64-13.40 336.74-13.02Q337.84-12.64 339.76-12.20L339.76-12.20Q342.20-11.64 343.70-11.06Q345.20-10.48 346.26-9.20Q347.32-7.92 347.32-5.76L347.32-5.76Q347.32-3.08 345.30-1.40Q343.28 0.28 339.92 0.28L339.92 0.28Q336.00 0.28 333.52-1.60Q331.04-3.48 330.60-6.84L330.60-6.84L334.12-6.84Q334.32-4.84 335.86-3.60Q337.40-2.36 339.92-2.36L339.92-2.36Q341.80-2.36 342.86-3.32Q343.92-4.28 343.92-5.84L343.92-5.84Q343.92-7.12 343.16-7.88Q342.40-8.64 341.28-9.04Q340.16-9.44 338.20-9.88L338.20-9.88Q335.76-10.44 334.30-11Q332.84-11.56 331.82-12.78Q330.80-14 330.80-16.08L330.80-16.08Q330.80-18.84 332.84-20.54Q334.88-22.24 338.40-22.24L338.40-22.24Z M379.80-27.16Q376.88-27.20 375.74-26.16Q374.60-25.12 374.60-22.56L374.60-22.56L374.60-21.96L379.80-21.96L379.80-18.76L374.60-18.76L374.60 0L370.96 0L370.96-18.76L367.80-18.76L367.80-21.96L370.96-21.96L370.96-22.84Q370.96-30.72 379.80-30.36L379.80-30.36L379.80-27.16Z M391.40-17.52Q392.48-19.80 394.56-21.06Q396.64-22.32 399.52-22.32L399.52-22.32L399.52-18.36L398.40-18.36Q395.32-18.36 393.36-16.78Q391.40-15.20 391.40-11.56L391.40-11.56L391.40 0L387.76 0L387.76-21.96L391.40-21.96L391.40-17.52Z M417.08-22.24Q420.24-22.24 422.74-20.88Q425.24-19.52 426.66-16.96Q428.08-14.40 428.08-10.96L428.08-10.96Q428.08-7.52 426.66-4.98Q425.24-2.44 422.74-1.08Q420.24 0.28 417.08 0.28L417.08 0.28Q413.92 0.28 411.42-1.08Q408.92-2.44 407.48-4.98Q406.04-7.52 406.04-10.96L406.04-10.96Q406.04-14.40 407.48-16.96Q408.92-19.52 411.42-20.88Q413.92-22.24 417.08-22.24L417.08-22.24ZM417.08-19.04Q415.12-19.04 413.46-18.16Q411.80-17.28 410.78-15.46Q409.76-13.64 409.76-10.96L409.76-10.96Q409.76-8.32 410.78-6.50Q411.80-4.68 413.46-3.80Q415.12-2.92 417.08-2.92L417.08-2.92Q419.04-2.92 420.70-3.80Q422.36-4.68 423.38-6.50Q424.40-8.32 424.40-10.96L424.40-10.96Q424.40-13.64 423.38-15.46Q422.36-17.28 420.70-18.16Q419.04-19.04 417.08-19.04L417.08-19.04Z M448.40-22.32Q452.24-22.32 454.60-19.86Q456.96-17.40 456.96-12.76L456.96-12.76L456.96 0L453.32 0L453.32-12.44Q453.32-15.72 451.64-17.48Q449.96-19.24 447.08-19.24L447.08-19.24Q444.08-19.24 442.28-17.30Q440.48-15.36 440.48-11.64L440.48-11.64L440.48 0L436.84 0L436.84-21.96L440.48-21.96L440.48-16.76Q441.32-19.44 443.46-20.88Q445.60-22.32 448.40-22.32L448.40-22.32Z M474.80-3.20L477.04-3.20L477.04 0L474.32 0Q470.96 0 469.30-1.60Q467.64-3.20 467.64-6.96L467.64-6.96L467.64-18.80L464.36-18.80L464.36-21.96L467.64-21.96L467.64-27.44L471.32-27.44L471.32-21.96L477-21.96L477-18.80L471.32-18.80L471.32-6.88Q471.32-4.76 472.10-3.98Q472.88-3.20 474.80-3.20L474.80-3.20Z M505.68-12.20Q505.68-11.04 505.52-10.20L505.52-10.20L487.96-10.20Q488.08-6.44 490.10-4.56Q492.12-2.68 495.04-2.68L495.04-2.68Q497.68-2.68 499.46-4.02Q501.24-5.36 501.64-7.60L501.64-7.60L505.52-7.60Q505.12-5.32 503.74-3.52Q502.36-1.72 500.16-0.72Q497.96 0.28 495.20 0.28L495.20 0.28Q492.04 0.28 489.60-1.08Q487.16-2.44 485.78-4.98Q484.40-7.52 484.40-10.96L484.40-10.96Q484.40-14.40 485.78-16.96Q487.16-19.52 489.60-20.88Q492.04-22.24 495.20-22.24L495.20-22.24Q498.40-22.24 500.78-20.88Q503.16-19.52 504.42-17.24Q505.68-14.96 505.68-12.20L505.68-12.20ZM502-11.96Q502.12-14.40 501.20-16.04Q500.28-17.68 498.68-18.48Q497.08-19.28 495.20-19.28L495.20-19.28Q492.20-19.28 490.16-17.42Q488.12-15.56 487.96-11.96L487.96-11.96L502-11.96Z M518.08-17.52Q519.16-19.80 521.24-21.06Q523.32-22.32 526.20-22.32L526.20-22.32L526.20-18.36L525.08-18.36Q522-18.36 520.04-16.78Q518.08-15.20 518.08-11.56L518.08-11.56L518.08 0L514.44 0L514.44-21.96L518.08-21.96L518.08-17.52Z M542.80-22.24Q546-22.24 548.22-20.64Q550.44-19.04 551.32-16.36L551.32-16.36L551.32-21.96L554.96-21.96L554.96 0L551.32 0L551.32-5.60Q550.44-2.92 548.22-1.32Q546 0.28 542.80 0.28L542.80 0.28Q539.88 0.28 537.60-1.08Q535.32-2.44 534.02-4.98Q532.72-7.52 532.72-10.96L532.72-10.96Q532.72-14.40 534.02-16.96Q535.32-19.52 537.60-20.88Q539.88-22.24 542.80-22.24L542.80-22.24ZM543.84-19Q540.48-19 538.46-16.86Q536.44-14.72 536.44-10.96L536.44-10.96Q536.44-7.20 538.46-5.06Q540.48-2.92 543.84-2.92L543.84-2.92Q546-2.92 547.70-3.92Q549.40-4.92 550.36-6.74Q551.32-8.56 551.32-10.96L551.32-10.96Q551.32-13.36 550.36-15.20Q549.40-17.04 547.70-18.02Q546-19 543.84-19L543.84-19Z M571.64-22.24Q575.36-22.24 577.62-20.30Q579.88-18.36 580.36-15.08L580.36-15.08L576.88-15.08Q576.64-17.04 575.26-18.30Q573.88-19.56 571.56-19.56L571.56-19.56Q569.60-19.56 568.50-18.62Q567.40-17.68 567.40-16.08L567.40-16.08Q567.40-14.88 568.14-14.14Q568.88-13.40 569.98-13.02Q571.08-12.64 573-12.20L573-12.20Q575.44-11.64 576.94-11.06Q578.44-10.48 579.50-9.20Q580.56-7.92 580.56-5.76L580.56-5.76Q580.56-3.08 578.54-1.40Q576.52 0.28 573.16 0.28L573.16 0.28Q569.24 0.28 566.76-1.60Q564.28-3.48 563.84-6.84L563.84-6.84L567.36-6.84Q567.56-4.84 569.10-3.60Q570.64-2.36 573.16-2.36L573.16-2.36Q575.04-2.36 576.10-3.32Q577.16-4.28 577.16-5.84L577.16-5.84Q577.16-7.12 576.40-7.88Q575.64-8.64 574.52-9.04Q573.40-9.44 571.44-9.88L571.44-9.88Q569-10.44 567.54-11Q566.08-11.56 565.06-12.78Q564.04-14 564.04-16.08L564.04-16.08Q564.04-18.84 566.08-20.54Q568.12-22.24 571.64-22.24L571.64-22.24Z"/></g>
</svg>
</g><g opacity="1" transform="rotate(0 104.059 157.4954)">
<svg width="393.8906" height="32" x="104.059" y="157.4954" version="1.1" preserveAspectRatio="none" viewBox="2.36 -32.2 399.79999999999995 32.480000000000004">
  <g transform="matrix(1 0 0 1 0 0)" class="companyName"><path id="id-D6z1nYkh18" d="M27.48-28.28L27.48 0L20.64 0L9.20-17.36L9.20 0L2.36 0L2.36-28.28L9.20-28.28L20.64-10.76L20.64-28.28L27.48-28.28Z M54.20-11.76Q54.20-10.92 54-9.92L54-9.92L38.52-9.92Q38.64-7.40 39.80-6.30Q40.96-5.20 42.76-5.20L42.76-5.20Q44.28-5.20 45.28-5.96Q46.28-6.72 46.60-7.92L46.60-7.92L53.84-7.92Q53.40-5.56 51.92-3.70Q50.44-1.84 48.16-0.78Q45.88 0.28 43.08 0.28L43.08 0.28Q39.80 0.28 37.26-1.10Q34.72-2.48 33.28-5.08Q31.84-7.68 31.84-11.16L31.84-11.16Q31.84-14.68 33.26-17.26Q34.68-19.84 37.24-21.22Q39.80-22.60 43.08-22.60L43.08-22.60Q46.40-22.60 48.92-21.24Q51.44-19.88 52.82-17.42Q54.20-14.96 54.20-11.76L54.20-11.76ZM47.28-12.80Q47.32-15 46.10-16.10Q44.88-17.20 43.08-17.20L43.08-17.20Q41.20-17.20 39.96-16.08Q38.72-14.96 38.56-12.80L38.56-12.80L47.28-12.80Z M84.84-22.32L91.20-22.32L85.48 0L77.84 0L73.80-14.96L69.72 0L62.08 0L56.36-22.32L63.20-22.32L66.16-6.24L70.32-22.32L77.60-22.32L81.88-6.20L84.84-22.32Z M120.84-28.28L127.72-28.28L127.72 0L120.84 0L120.84-11.80L110.12-11.80L110.12 0L103.28 0L103.28-28.28L110.12-28.28L110.12-17.32L120.84-17.32L120.84-28.28Z M143.68-22.60Q147-22.60 149.62-21.22Q152.24-19.84 153.74-17.24Q155.24-14.64 155.24-11.16L155.24-11.16Q155.24-7.68 153.74-5.08Q152.24-2.48 149.62-1.10Q147 0.28 143.68 0.28L143.68 0.28Q140.36 0.28 137.72-1.10Q135.08-2.48 133.58-5.08Q132.08-7.68 132.08-11.16L132.08-11.16Q132.08-14.64 133.58-17.24Q135.08-19.84 137.72-21.22Q140.36-22.60 143.68-22.60L143.68-22.60ZM143.68-16.68Q141.72-16.68 140.38-15.26Q139.04-13.84 139.04-11.16L139.04-11.16Q139.04-8.48 140.38-7.08Q141.72-5.68 143.68-5.68L143.68-5.68Q145.64-5.68 146.96-7.08Q148.28-8.48 148.28-11.16L148.28-11.16Q148.28-13.84 146.96-15.26Q145.64-16.68 143.68-16.68L143.68-16.68Z M166.44-18.12Q167.72-20.16 169.74-21.36Q171.76-22.56 174.12-22.56L174.12-22.56L174.12-15.24L172.16-15.24Q169.44-15.24 167.94-14.08Q166.44-12.92 166.44-10.16L166.44-10.16L166.44 0L159.60 0L159.60-22.32L166.44-22.32L166.44-18.12Z M177.16-28.60Q177.16-30.16 178.28-31.18Q179.40-32.20 181.24-32.20L181.24-32.20Q183.08-32.20 184.20-31.18Q185.32-30.16 185.32-28.60L185.32-28.60Q185.32-27.08 184.20-26.06Q183.08-25.04 181.24-25.04L181.24-25.04Q179.40-25.04 178.28-26.06Q177.16-27.08 177.16-28.60L177.16-28.60ZM177.80-22.32L184.64-22.32L184.64 0L177.80 0L177.80-22.32Z M206.12-16.92L196.20-5.72L206.52-5.72L206.52 0L188.72 0L188.72-5.40L198.32-16.64L188.88-16.64L188.88-22.32L206.12-22.32L206.12-16.92Z M221.00-22.60Q224.32-22.60 226.94-21.22Q229.56-19.84 231.06-17.24Q232.56-14.64 232.56-11.16L232.56-11.16Q232.56-7.68 231.06-5.08Q229.56-2.48 226.94-1.10Q224.32 0.28 221.00 0.28L221.00 0.28Q217.68 0.28 215.04-1.10Q212.40-2.48 210.90-5.08Q209.40-7.68 209.40-11.16L209.40-11.16Q209.40-14.64 210.90-17.24Q212.40-19.84 215.04-21.22Q217.68-22.60 221.00-22.60L221.00-22.60ZM221.00-16.68Q219.04-16.68 217.70-15.26Q216.36-13.84 216.36-11.16L216.36-11.16Q216.36-8.48 217.70-7.08Q219.04-5.68 221.00-5.68L221.00-5.68Q222.96-5.68 224.28-7.08Q225.60-8.48 225.60-11.16L225.60-11.16Q225.60-13.84 224.28-15.26Q222.96-16.68 221.00-16.68L221.00-16.68Z M251.08-22.56Q254.92-22.56 257.18-20Q259.44-17.44 259.44-12.96L259.44-12.96L259.44 0L252.60 0L252.60-12.16Q252.60-14.40 251.42-15.66Q250.24-16.92 248.28-16.92L248.28-16.92Q246.20-16.92 244.98-15.60Q243.76-14.28 243.76-11.84L243.76-11.84L243.76 0L236.92 0L236.92-22.32L243.76-22.32L243.76-18.24Q244.72-20.24 246.62-21.40Q248.52-22.56 251.08-22.56L251.08-22.56Z M271.72-28.28L293.88-28.28L293.88-22.84L286.20-22.84L286.20 0L279.32 0L279.32-22.84L271.72-22.84L271.72-28.28Z M304.40-18.12Q305.68-20.16 307.70-21.36Q309.72-22.56 312.08-22.56L312.08-22.56L312.08-15.24L310.12-15.24Q307.40-15.24 305.90-14.08Q304.40-12.92 304.40-10.16L304.40-10.16L304.40 0L297.56 0L297.56-22.32L304.40-22.32L304.40-18.12Z M324.24-22.60Q326.80-22.60 328.64-21.44Q330.48-20.28 331.36-18.28L331.36-18.28L331.36-22.32L338.16-22.32L338.16 0L331.36 0L331.36-4.04Q330.48-2.04 328.64-0.88Q326.80 0.28 324.24 0.28L324.24 0.28Q321.48 0.28 319.30-1.10Q317.12-2.48 315.86-5.08Q314.60-7.68 314.60-11.16L314.60-11.16Q314.60-14.68 315.86-17.26Q317.12-19.84 319.30-21.22Q321.48-22.60 324.24-22.60L324.24-22.60ZM326.44-16.60Q324.24-16.60 322.90-15.16Q321.56-13.72 321.56-11.16L321.56-11.16Q321.56-8.60 322.90-7.16Q324.24-5.72 326.44-5.72L326.44-5.72Q328.60-5.72 329.98-7.20Q331.36-8.68 331.36-11.16L331.36-11.16Q331.36-13.68 329.98-15.14Q328.60-16.60 326.44-16.60L326.44-16.60Z M349.08-22.32L354.00-6.68L358.84-22.32L366.12-22.32L358.20 0L349.72 0L341.80-22.32L349.08-22.32Z M390.96-11.76Q390.96-10.92 390.76-9.92L390.76-9.92L375.28-9.92Q375.40-7.40 376.56-6.30Q377.72-5.20 379.52-5.20L379.52-5.20Q381.04-5.20 382.04-5.96Q383.04-6.72 383.36-7.92L383.36-7.92L390.60-7.92Q390.16-5.56 388.68-3.70Q387.20-1.84 384.92-0.78Q382.64 0.28 379.84 0.28L379.84 0.28Q376.56 0.28 374.02-1.10Q371.48-2.48 370.04-5.08Q368.60-7.68 368.60-11.16L368.60-11.16Q368.60-14.68 370.02-17.26Q371.44-19.84 374.00-21.22Q376.56-22.60 379.84-22.60L379.84-22.60Q383.16-22.60 385.68-21.24Q388.20-19.88 389.58-17.42Q390.96-14.96 390.96-11.76L390.96-11.76ZM384.04-12.80Q384.08-15 382.86-16.10Q381.64-17.20 379.84-17.20L379.84-17.20Q377.96-17.20 376.72-16.08Q375.48-14.96 375.32-12.80L375.32-12.80L384.04-12.80Z M395.32-29.60L402.16-29.60L402.16 0L395.32 0L395.32-29.60Z"/></g>
</svg>
</g></svg></svg>