<svg version="1.1" preserveAspectRatio="none" xmlns="http://www.w3.org/2000/svg" width="500" height="500" viewBox="0 0 500 500"><rect width="100%" height="100%" fill="#0A0A0A" fill-opacity="1"/><svg viewBox="35.361 85.6213 352.2358 150" width="333" height="141.8084135684107" x="83.5px" y="179.0958px" xmlns="http://www.w3.org/2000/svg" xmlns:xlink="http://www.w3.org/1999/xlink" preserveAspectRatio="none"><defs></defs><style>.companyName {fill:#E9E9E9;fill-opacity:1;}.icon2 {fill:#7065EF;fill-opacity:1;}.icon3 {fill:#C4C4C4;fill-opacity:1;}.icon3-str {stroke:#C4C4C4;stroke-opacity:1;}.shape {fill:#28208C;fill-opacity:1;}.text {fill:#E9E9E9;fill-opacity:1;}</style><g opacity="1" transform="rotate(0 98.5883 85.6213)">
<svg width="225.7812" height="150" x="98.5883" y="85.6213" version="1.1" preserveAspectRatio="none" viewBox="4.200999736785889 21.96699905395508 89.02999114990234 59.14799880981445">
  <g transform="matrix(1 0 0 1 0 0)" class="shape"><g><circle cx="46.796" cy="22.734" r="0.767"></circle><circle cx="46.796" cy="26.58" r="0.886"></circle><circle cx="46.796" cy="30.425" r="1.004"></circle><circle cx="46.797" cy="34.271" r="1.12"></circle><circle cx="46.796" cy="38.079" r="1.24"></circle><circle cx="46.797" cy="41.963" r="1.356"></circle><circle cx="46.797" cy="45.809" r="1.476"></circle><circle cx="43.004" cy="22.734" r="0.767"></circle><circle cx="43.004" cy="26.58" r="0.886"></circle><circle cx="43.004" cy="30.425" r="1.004"></circle><circle cx="43.004" cy="34.271" r="1.12"></circle><circle cx="43.004" cy="38.079" r="1.24"></circle><circle cx="43.004" cy="41.963" r="1.356"></circle><circle cx="43.004" cy="80.348" r="0.767"></circle><circle cx="43.004" cy="76.57" r="0.886"></circle><circle cx="43.004" cy="72.723" r="1.003"></circle><circle cx="43.004" cy="68.876" r="1.121"></circle><circle cx="43.004" cy="65.031" r="1.239"></circle><circle cx="43.004" cy="61.186" r="1.356"></circle><circle cx="46.796" cy="80.348" r="0.767"></circle><circle cx="46.796" cy="76.57" r="0.886"></circle><circle cx="46.796" cy="72.723" r="1.003"></circle><circle cx="46.797" cy="68.876" r="1.121"></circle><circle cx="46.796" cy="65.031" r="1.239"></circle><circle cx="46.797" cy="61.186" r="1.356"></circle><circle cx="43.004" cy="45.809" r="1.476"></circle><circle cx="46.797" cy="49.447" r="1.476"></circle><circle cx="43.004" cy="49.447" r="1.476"></circle><circle cx="46.797" cy="53.083" r="1.475"></circle><circle cx="43.004" cy="53.083" r="1.475"></circle><circle cx="46.797" cy="57.024" r="1.475"></circle><circle cx="50.594" cy="22.734" r="0.767"></circle><circle cx="50.591" cy="26.58" r="0.886"></circle><circle cx="50.586" cy="30.425" r="1.004"></circle><circle cx="50.582" cy="34.271" r="1.12"></circle><circle cx="50.578" cy="38.079" r="1.24"></circle><circle cx="50.573" cy="41.963" r="1.356"></circle><circle cx="50.57" cy="45.809" r="1.476"></circle><circle cx="50.594" cy="80.348" r="0.767"></circle><circle cx="50.591" cy="76.57" r="0.886"></circle><circle cx="50.586" cy="72.723" r="1.003"></circle><circle cx="50.582" cy="68.876" r="1.121"></circle><circle cx="50.578" cy="65.031" r="1.239"></circle><circle cx="50.573" cy="61.186" r="1.356"></circle><circle cx="50.57" cy="49.447" r="1.476"></circle><circle cx="50.57" cy="53.083" r="1.475"></circle><circle cx="50.57" cy="57.024" r="1.475"></circle><circle cx="54.53" cy="76.57" r="0.886"></circle><circle cx="54.525" cy="72.723" r="1.003"></circle><circle cx="54.522" cy="68.876" r="1.121"></circle><circle cx="54.52" cy="65.031" r="1.239"></circle><circle cx="58.309" cy="49.571" r="1.24"></circle><circle cx="62.145" cy="49.571" r="1.144"></circle><circle cx="65.983" cy="49.571" r="1.049"></circle><circle cx="69.821" cy="49.571" r="0.954"></circle><circle cx="73.659" cy="49.571" r="0.859"></circle><circle cx="77.497" cy="49.571" r="0.763"></circle><circle cx="81.334" cy="49.571" r="0.668"></circle><circle cx="85.172" cy="49.571" r="0.573"></circle><circle cx="89.01" cy="49.571" r="0.479"></circle><circle cx="92.848" cy="49.571" r="0.383"></circle><path d="M35.535,52.165c0.684,0,1.239,0.553,1.239,1.238s-0.556,1.24-1.239,1.24s-1.238-0.555-1.238-1.24   C34.297,52.722,34.852,52.165,35.535,52.165z"></path><circle cx="31.698" cy="53.403" r="1.144"></circle><circle cx="27.713" cy="53.403" r="0.764"></circle><circle cx="23.876" cy="53.403" r="0.668"></circle><circle cx="20.038" cy="53.403" r="0.573"></circle><circle cx="16.2" cy="53.403" r="0.479"></circle><circle cx="12.363" cy="53.403" r="0.383"></circle><circle cx="58.356" cy="57.149" r="1.144"></circle><circle cx="62.194" cy="57.149" r="1.049"></circle><circle cx="66.032" cy="57.149" r="0.953"></circle><circle cx="69.87" cy="57.149" r="0.858"></circle><circle cx="73.707" cy="57.149" r="0.763"></circle><circle cx="77.545" cy="57.149" r="0.669"></circle><circle cx="81.383" cy="57.149" r="0.572"></circle><circle cx="85.221" cy="57.149" r="0.479"></circle><circle cx="89.058" cy="57.149" r="0.383"></circle><circle cx="58.356" cy="60.788" r="1.144"></circle><circle cx="62.194" cy="60.788" r="1.049"></circle><circle cx="66.032" cy="60.788" r="0.953"></circle><path d="M70.729,60.788c0,0.473-0.384,0.857-0.859,0.857c-0.474,0-0.857-0.385-0.857-0.857c0-0.477,0.384-0.859,0.857-0.859   C70.345,59.929,70.729,60.312,70.729,60.788z"></path><circle cx="73.707" cy="60.788" r="0.763"></circle><circle cx="77.545" cy="60.788" r="0.669"></circle><circle cx="81.383" cy="60.788" r="0.572"></circle><circle cx="85.221" cy="60.788" r="0.479"></circle><circle cx="89.058" cy="60.788" r="0.383"></circle><circle cx="58.449" cy="65.032" r="0.668"></circle><circle cx="62.286" cy="65.032" r="0.573"></circle><circle cx="66.124" cy="65.032" r="0.477"></circle><circle cx="69.963" cy="65.031" r="0.384"></circle><circle cx="58.449" cy="68.972" r="0.668"></circle><circle cx="62.286" cy="68.972" r="0.573"></circle><circle cx="66.124" cy="68.972" r="0.477"></circle><circle cx="69.963" cy="68.973" r="0.382"></circle><circle cx="58.449" cy="72.761" r="0.668"></circle><circle cx="62.286" cy="72.761" r="0.573"></circle><circle cx="66.124" cy="72.761" r="0.477"></circle><circle cx="69.963" cy="72.762" r="0.382"></circle><path d="M59.117,76.548c0,0.369-0.3,0.67-0.669,0.67s-0.668-0.301-0.668-0.67c0-0.367,0.299-0.666,0.668-0.666   S59.117,76.181,59.117,76.548z"></path><path d="M62.858,76.548c0,0.318-0.255,0.576-0.572,0.576c-0.316,0-0.573-0.258-0.573-0.576c0-0.314,0.257-0.57,0.573-0.57   C62.604,75.978,62.858,76.233,62.858,76.548z"></path><path d="M66.601,76.548c0,0.264-0.212,0.48-0.478,0.48c-0.263,0-0.477-0.217-0.477-0.48c0-0.262,0.214-0.477,0.477-0.477   C66.389,76.071,66.601,76.286,66.601,76.548z"></path><circle cx="39.236" cy="80.348" r="0.767"></circle><circle cx="35.301" cy="80.349" r="0.573"></circle><circle cx="31.464" cy="80.349" r="0.478"></circle><circle cx="27.627" cy="80.349" r="0.383"></circle><circle cx="58.309" cy="53.209" r="1.239"></circle><circle cx="62.145" cy="53.21" r="1.144"></circle><circle cx="65.983" cy="53.21" r="1.049"></circle><circle cx="69.821" cy="53.21" r="0.954"></circle><circle cx="73.659" cy="53.21" r="0.859"></circle><circle cx="77.497" cy="53.21" r="0.763"></circle><circle cx="81.334" cy="53.21" r="0.668"></circle><circle cx="85.172" cy="53.21" r="0.573"></circle><circle cx="89.01" cy="53.21" r="0.479"></circle><circle cx="54.514" cy="61.186" r="1.356"></circle><circle cx="54.511" cy="49.447" r="1.476"></circle><circle cx="58.309" cy="45.783" r="1.239"></circle><circle cx="62.145" cy="45.782" r="1.144"></circle><circle cx="65.983" cy="45.782" r="1.049"></circle><circle cx="69.821" cy="45.782" r="0.954"></circle><circle cx="73.659" cy="45.782" r="0.859"></circle><circle cx="77.497" cy="45.782" r="0.763"></circle><path d="M82.002,45.782c0,0.369-0.299,0.67-0.667,0.67c-0.369,0-0.669-0.301-0.669-0.67c0-0.367,0.3-0.668,0.669-0.668   C81.703,45.114,82.002,45.415,82.002,45.782z"></path><circle cx="85.172" cy="45.782" r="0.573"></circle><circle cx="89.01" cy="45.782" r="0.479"></circle><circle cx="92.848" cy="45.782" r="0.383"></circle><circle cx="35.441" cy="45.632" r="0.954"></circle><circle cx="31.604" cy="45.632" r="0.858"></circle><circle cx="27.766" cy="45.632" r="0.764"></circle><circle cx="23.928" cy="45.632" r="0.668"></circle><circle cx="20.09" cy="45.632" r="0.573"></circle><circle cx="16.252" cy="45.632" r="0.478"></circle><circle cx="12.414" cy="45.631" r="0.382"></circle><circle cx="35.368" cy="30.323" r="0.574"></circle><circle cx="31.529" cy="30.323" r="0.479"></circle><circle cx="27.692" cy="30.323" r="0.383"></circle><circle cx="35.368" cy="34.265" r="0.689"></circle><circle cx="31.529" cy="34.265" r="0.479"></circle><circle cx="27.692" cy="34.265" r="0.383"></circle><circle cx="35.463" cy="26.687" r="0.478"></circle><path d="M54.52,43.233c-0.686,0-1.24-0.555-1.24-1.24c0-0.682,0.555-1.238,1.24-1.238c0.683,0,1.237,0.557,1.237,1.238   C55.757,42.679,55.202,43.233,54.52,43.233z"></path><circle cx="58.356" cy="41.993" r="1.144"></circle><circle cx="62.194" cy="41.993" r="1.049"></circle><circle cx="54.52" cy="38.079" r="1.24"></circle><circle cx="58.356" cy="38.079" r="1.144"></circle><circle cx="62.194" cy="38.079" r="1.049"></circle><circle cx="66.032" cy="41.993" r="0.953"></circle><path d="M70.729,41.993c0,0.473-0.384,0.861-0.859,0.861c-0.474,0-0.857-0.389-0.857-0.861s0.384-0.859,0.857-0.859   C70.345,41.134,70.729,41.521,70.729,41.993z"></path><circle cx="54.464" cy="34.265" r="1.049"></circle><circle cx="58.302" cy="34.265" r="0.954"></circle><circle cx="62.14" cy="34.265" r="0.859"></circle><circle cx="73.707" cy="41.993" r="0.763"></circle><circle cx="77.545" cy="41.993" r="0.669"></circle><circle cx="66.027" cy="38.079" r="0.667"></circle><circle cx="81.383" cy="41.993" r="0.572"></circle><circle cx="69.864" cy="38.079" r="0.573"></circle><circle cx="85.221" cy="41.993" r="0.479"></circle><circle cx="89.058" cy="41.995" r="0.383"></circle><circle cx="73.6" cy="38.079" r="0.383"></circle><circle cx="35.251" cy="38.079" r="1.144"></circle><circle cx="31.413" cy="38.079" r="1.049"></circle><circle cx="27.58" cy="38.079" r="0.668"></circle><circle cx="23.743" cy="38.079" r="0.573"></circle><circle cx="20.008" cy="38.079" r="0.383"></circle><circle cx="35.251" cy="42.019" r="1.144"></circle><circle cx="31.413" cy="42.019" r="1.049"></circle><circle cx="27.58" cy="42.019" r="0.668"></circle><circle cx="23.743" cy="42.019" r="0.573"></circle><circle cx="20.008" cy="42.021" r="0.383"></circle><circle cx="54.616" cy="30.349" r="1.048"></circle><path d="M59.117,30.349c0,0.369-0.3,0.67-0.669,0.67s-0.668-0.301-0.668-0.67c0-0.367,0.299-0.668,0.668-0.668   S59.117,29.981,59.117,30.349z"></path><circle cx="62.286" cy="30.349" r="0.573"></circle><circle cx="66.021" cy="30.35" r="0.384"></circle><circle cx="54.405" cy="26.712" r="0.573"></circle><circle cx="58.141" cy="26.712" r="0.383"></circle><circle cx="54.511" cy="45.658" r="1.476"></circle><circle cx="54.511" cy="53.083" r="1.475"></circle><circle cx="54.511" cy="57.024" r="1.475"></circle><circle cx="43.004" cy="57.024" r="1.475"></circle><circle cx="39.237" cy="26.58" r="0.886"></circle><circle cx="39.237" cy="30.425" r="1.004"></circle><circle cx="35.368" cy="76.399" r="0.574"></circle><circle cx="31.529" cy="76.399" r="0.479"></circle><circle cx="27.692" cy="76.397" r="0.383"></circle><circle cx="39.237" cy="76.5" r="1.003"></circle><circle cx="39.237" cy="34.271" r="1.12"></circle><circle cx="39.237" cy="38.079" r="1.24"></circle><path d="M34.107,72.329c0-0.629,0.512-1.143,1.143-1.143c0.633,0,1.146,0.514,1.146,1.143c0,0.635-0.513,1.146-1.146,1.146   C34.619,73.476,34.107,72.964,34.107,72.329z"></path><path d="M30.364,72.329c0-0.576,0.47-1.047,1.049-1.047c0.58,0,1.049,0.471,1.049,1.047c0,0.584-0.469,1.053-1.049,1.053   C30.834,73.382,30.364,72.913,30.364,72.329z"></path><path d="M26.912,72.329c0-0.365,0.301-0.666,0.669-0.666c0.369,0,0.667,0.301,0.667,0.666c0,0.371-0.298,0.67-0.667,0.67   C27.213,72.999,26.912,72.7,26.912,72.329z"></path><path d="M23.17,72.329c0-0.314,0.257-0.57,0.573-0.57s0.572,0.256,0.572,0.57c0,0.318-0.256,0.574-0.572,0.574   S23.17,72.647,23.17,72.329z"></path><path d="M20.008,71.948c0.212,0,0.384,0.17,0.384,0.381c0,0.215-0.172,0.385-0.384,0.385c-0.21,0-0.383-0.17-0.383-0.385   C19.625,72.118,19.798,71.948,20.008,71.948z"></path><path d="M39.237,71.093c-0.687,0-1.24,0.553-1.24,1.236c0,0.688,0.554,1.24,1.24,1.24c0.684,0,1.238-0.553,1.238-1.24   C40.476,71.646,39.921,71.093,39.237,71.093z"></path><circle cx="39.237" cy="41.963" r="1.356"></circle><circle cx="35.251" cy="49.446" r="1.144"></circle><circle cx="31.413" cy="49.446" r="1.049"></circle><circle cx="27.58" cy="49.446" r="0.668"></circle><circle cx="23.743" cy="49.446" r="0.573"></circle><circle cx="20.008" cy="49.446" r="0.383"></circle><path d="M39.237,48.032c-0.751,0-1.357,0.609-1.357,1.359c0,0.746,0.606,1.355,1.357,1.355c0.748,0,1.356-0.609,1.356-1.355   C40.594,48.642,39.985,48.032,39.237,48.032z"></path><circle cx="39.237" cy="45.809" r="1.476"></circle><circle cx="39.237" cy="53.404" r="1.474"></circle><circle cx="35.535" cy="57.193" r="1.239"></circle><circle cx="31.698" cy="57.192" r="1.144"></circle><circle cx="27.713" cy="57.192" r="0.764"></circle><circle cx="23.876" cy="57.192" r="0.668"></circle><circle cx="20.038" cy="57.192" r="0.573"></circle><circle cx="16.2" cy="57.192" r="0.479"></circle><circle cx="12.363" cy="57.193" r="0.382"></circle><circle cx="8.422" cy="57.191" r="0.317"></circle><circle cx="4.481" cy="57.193" r="0.28"></circle><circle cx="39.237" cy="57.192" r="1.475"></circle><circle cx="35.535" cy="60.981" r="1.238"></circle><circle cx="31.698" cy="60.981" r="1.144"></circle><path d="M26.949,60.981c0-0.422,0.343-0.762,0.766-0.762c0.42,0,0.762,0.34,0.762,0.762c0,0.424-0.342,0.764-0.762,0.764   C27.292,61.745,26.949,61.405,26.949,60.981z"></path><path d="M23.208,60.983c0-0.369,0.299-0.67,0.668-0.67s0.669,0.299,0.669,0.67c-0.001,0.367-0.3,0.666-0.669,0.666   S23.208,61.351,23.208,60.983z"></path><circle cx="20.038" cy="60.983" r="0.573"></circle><circle cx="16.2" cy="60.981" r="0.479"></circle><circle cx="12.363" cy="60.982" r="0.382"></circle><circle cx="8.422" cy="60.982" r="0.317"></circle><circle cx="4.481" cy="60.982" r="0.28"></circle><circle cx="73.796" cy="65.074" r="0.28"></circle><circle cx="73.796" cy="68.862" r="0.279"></circle><circle cx="39.236" cy="64.923" r="1.238"></circle><circle cx="35.487" cy="64.923" r="1.144"></circle><circle cx="31.503" cy="64.923" r="0.764"></circle><circle cx="27.665" cy="64.923" r="0.669"></circle><circle cx="23.828" cy="64.923" r="0.574"></circle><circle cx="19.989" cy="64.923" r="0.478"></circle><circle cx="16.151" cy="64.923" r="0.383"></circle><circle cx="12.212" cy="64.923" r="0.316"></circle><circle cx="8.271" cy="64.923" r="0.279"></circle><circle cx="39.236" cy="68.711" r="1.239"></circle><circle cx="35.487" cy="68.712" r="1.144"></circle><circle cx="31.503" cy="68.712" r="0.764"></circle><circle cx="27.665" cy="68.712" r="0.669"></circle><circle cx="23.828" cy="68.712" r="0.574"></circle><circle cx="19.989" cy="68.712" r="0.478"></circle><circle cx="16.151" cy="68.712" r="0.383"></circle><circle cx="12.212" cy="68.713" r="0.317"></circle><circle cx="39.237" cy="60.982" r="1.476"></circle></g></g>
</svg>
</g><g opacity="1" transform="rotate(0 65.2389 190.6213)">
<svg width="292.48" height="16" x="65.2389" y="190.6213" version="1.1" preserveAspectRatio="none" viewBox="3.24 -28.32 523.48 28.64">
  <g transform="matrix(1 0 0 1 0 0)" class="text"><path id="id-6izo4zJp25" d="M25.52-26.48L29-26.48L29 0L26 0L26-21.92L16.20-9.32L6.24-21.92L6.24 0L3.24 0L3.24-26.48L6.72-26.48L16.20-13.92L25.52-26.48Z M54.08 0L54.08-3.20Q51.68 0.32 46.92 0.32L46.92 0.32Q42.60 0.32 39.88-2.68L39.88-2.68Q37.24-5.64 37.24-10L37.24-10Q37.24-14.36 39.88-17.32L39.88-17.32Q42.60-20.32 47.12-20.32Q51.64-20.32 54.08-16.76L54.08-16.76L54.08-20L57.08-20L57.08 0L54.08 0ZM47.32-2.40L47.32-2.40Q50.56-2.40 52.44-4.64L52.44-4.64Q54.24-6.76 54.24-10L54.24-10Q54.24-13.24 52.44-15.36L52.44-15.36Q50.56-17.60 47.32-17.60L47.32-17.60Q44.12-17.60 42.12-15.36L42.12-15.36Q40.24-13.24 40.24-10L40.24-10Q40.24-6.76 42.12-4.64L42.12-4.64Q44.12-2.40 47.32-2.40Z M81.08-14.64L78.04-14.64Q77.64-17.76 73.02-17.76Q68.40-17.76 68.40-14.88L68.40-14.88Q68.40-13.68 69.38-13.06Q70.36-12.44 71.84-12.04Q73.32-11.64 75.06-11.30Q76.80-10.96 78.28-10.34Q79.76-9.72 80.74-8.64Q81.72-7.56 81.72-5.68L81.72-5.68Q81.72-2.76 79.52-1.22Q77.32 0.32 73.56 0.32L73.56 0.32Q69.56 0.32 67.20-1.68L67.20-1.68Q65.04-3.44 64.88-6.28L64.88-6.28L68-6.28Q68.28-3.52 71.12-2.56L71.12-2.56Q72.16-2.24 73.18-2.24Q74.20-2.24 75.08-2.36Q75.96-2.48 76.80-2.80L76.80-2.80Q78.72-3.56 78.72-5.40L78.72-5.40Q78.72-6.64 77.74-7.30Q76.76-7.96 75.28-8.38Q73.80-8.80 72.06-9.14Q70.32-9.48 68.84-10.08Q67.36-10.68 66.38-11.72Q65.40-12.76 65.40-14.60L65.40-14.60Q65.40-17.32 67.38-18.82Q69.36-20.32 73.24-20.32L73.24-20.32Q76.92-20.32 79.04-18.56L79.04-18.56Q80.80-17.08 81.08-14.64L81.08-14.64Z M117.68 0L117.68-3.20Q115.28 0.32 110.52 0.32L110.52 0.32Q106.20 0.32 103.48-2.68L103.48-2.68Q100.84-5.64 100.84-10L100.84-10Q100.84-14.36 103.48-17.32L103.48-17.32Q106.20-20.32 110.72-20.32Q115.24-20.32 117.68-16.76L117.68-16.76L117.68-20L120.68-20L120.68 0L117.68 0ZM110.92-2.40L110.92-2.40Q114.16-2.40 116.04-4.64L116.04-4.64Q117.84-6.76 117.84-10L117.84-10Q117.84-13.24 116.04-15.36L116.04-15.36Q114.16-17.60 110.92-17.60L110.92-17.60Q107.72-17.60 105.72-15.36L105.72-15.36Q103.84-13.24 103.84-10L103.84-10Q103.84-6.76 105.72-4.64L105.72-4.64Q107.72-2.40 110.92-2.40Z M132.88-28L132.88 0L129.88 0L129.88-28L132.88-28Z M145.08-28L145.08 0L142.08 0L142.08-28L145.08-28Z M169.88 0L169.88-3.20Q167.48 0.32 162.72 0.32L162.72 0.32Q158.40 0.32 155.68-2.68L155.68-2.68Q153.04-5.64 153.04-10L153.04-10Q153.04-14.36 155.68-17.32L155.68-17.32Q158.40-20.32 162.92-20.32Q167.44-20.32 169.88-16.76L169.88-16.76L169.88-20L172.88-20L172.88 0L169.88 0ZM163.12-2.40L163.12-2.40Q166.36-2.40 168.24-4.64L168.24-4.64Q170.04-6.76 170.04-10L170.04-10Q170.04-13.24 168.24-15.36L168.24-15.36Q166.36-17.60 163.12-17.60L163.12-17.60Q159.92-17.60 157.92-15.36L157.92-15.36Q156.04-13.24 156.04-10L156.04-10Q156.04-6.76 157.92-4.64L157.92-4.64Q159.92-2.40 163.12-2.40ZM160.40-22.80L162.84-27L167.12-27L162.84-22.80L160.40-22.80Z M210.20 0L210.20-3.20Q207.80 0.32 203.04 0.32L203.04 0.32Q198.72 0.32 196-2.68L196-2.68Q193.36-5.64 193.36-10L193.36-10Q193.36-14.36 196-17.32L196-17.32Q198.72-20.32 203.24-20.32Q207.76-20.32 210.20-16.76L210.20-16.76L210.20-28L213.20-28L213.20 0L210.20 0ZM203.44-2.40L203.44-2.40Q206.68-2.40 208.56-4.64L208.56-4.64Q210.36-6.76 210.36-10L210.36-10Q210.36-13.24 208.56-15.36L208.56-15.36Q206.68-17.60 203.44-17.60L203.44-17.60Q200.24-17.60 198.24-15.36L198.24-15.36Q196.36-13.24 196.36-10L196.36-10Q196.36-6.76 198.24-4.64L198.24-4.64Q200.24-2.40 203.44-2.40Z M231.32-2.40L231.32-2.40Q235.36-2.40 237.12-5.76L237.12-5.76L240.40-5.76Q239.36-3.04 237.10-1.36Q234.84 0.32 231.28 0.32L231.28 0.32Q226.76 0.32 223.92-2.68L223.92-2.68Q221.16-5.60 221.16-10L221.16-10Q221.16-14.44 223.80-17.32L223.80-17.32Q226.60-20.32 231.08-20.32L231.08-20.32Q235.56-20.32 238.36-17.32L238.36-17.32Q241-14.44 241-10L241-10L241-8.80L224.24-8.80Q224.56-6.04 226.44-4.24L226.44-4.24Q228.36-2.40 231.32-2.40ZM231.08-17.60L231.08-17.60Q228.32-17.60 226.44-15.88L226.44-15.88Q224.68-14.24 224.28-11.60L224.28-11.60L237.88-11.60Q237.48-14.24 235.72-15.88L235.72-15.88Q233.84-17.60 231.08-17.60Z M264.20-28L264.20 0L261.20 0L261.20-28L264.20-28Z M289 0L289-3.20Q286.60 0.32 281.84 0.32L281.84 0.32Q277.52 0.32 274.80-2.68L274.80-2.68Q272.16-5.64 272.16-10L272.16-10Q272.16-14.36 274.80-17.32L274.80-17.32Q277.52-20.32 282.04-20.32Q286.56-20.32 289-16.76L289-16.76L289-20L292-20L292 0L289 0ZM282.24-2.40L282.24-2.40Q285.48-2.40 287.36-4.64L287.36-4.64Q289.16-6.76 289.16-10L289.16-10Q289.16-13.24 287.36-15.36L287.36-15.36Q285.48-17.60 282.24-17.60L282.24-17.60Q279.04-17.60 277.04-15.36L277.04-15.36Q275.16-13.24 275.16-10L275.16-10Q275.16-6.76 277.04-4.64L277.04-4.64Q279.04-2.40 282.24-2.40Z M316-14.64L312.96-14.64Q312.56-17.76 307.94-17.76Q303.32-17.76 303.32-14.88L303.32-14.88Q303.32-13.68 304.30-13.06Q305.28-12.44 306.76-12.04Q308.24-11.64 309.98-11.30Q311.72-10.96 313.20-10.34Q314.68-9.72 315.66-8.64Q316.64-7.56 316.64-5.68L316.64-5.68Q316.64-2.76 314.44-1.22Q312.24 0.32 308.48 0.32L308.48 0.32Q304.48 0.32 302.12-1.68L302.12-1.68Q299.96-3.44 299.80-6.28L299.80-6.28L302.92-6.28Q303.20-3.52 306.04-2.56L306.04-2.56Q307.08-2.24 308.10-2.24Q309.12-2.24 310-2.36Q310.88-2.48 311.72-2.80L311.72-2.80Q313.64-3.56 313.64-5.40L313.64-5.40Q313.64-6.64 312.66-7.30Q311.68-7.96 310.20-8.38Q308.72-8.80 306.98-9.14Q305.24-9.48 303.76-10.08Q302.28-10.68 301.30-11.72Q300.32-12.76 300.32-14.60L300.32-14.60Q300.32-17.32 302.30-18.82Q304.28-20.32 308.16-20.32L308.16-20.32Q311.84-20.32 313.96-18.56L313.96-18.56Q315.72-17.08 316-14.64L316-14.64Z M346-25.48L345.60-25.48Q343.48-25.48 342.42-24.54Q341.36-23.60 341.36-21.52L341.36-21.52L341.36-20L346-20L346-17.36L341.36-17.36L341.36 0L338.36 0L338.36-17.36L334.92-17.36L334.92-20L338.36-20L338.36-21.76Q338.36-25.04 340.32-26.68Q342.28-28.32 345.76-28.32L345.76-28.32L346-28.32L346-25.48Z M363.64-20.32L363.84-20.32L363.84-17.32L363.48-17.32Q360.24-17.32 358.20-14.72L358.20-14.72Q356.28-12.24 356.28-8.80L356.28-8.80L356.28 0L353.28 0L353.28-20L356.28-20L356.28-15.08Q357.24-18.20 360.44-19.68L360.44-19.68Q361.76-20.32 363.64-20.32L363.64-20.32Z M379.24-20.32L379.24-20.32Q383.72-20.32 386.52-17.32L386.52-17.32Q389.16-14.44 389.16-10L389.16-10Q389.16-5.56 386.52-2.68L386.52-2.68Q383.72 0.32 379.24 0.32L379.24 0.32Q374.76 0.32 371.96-2.68L371.96-2.68Q369.32-5.56 369.32-10L369.32-10Q369.32-14.44 371.96-17.32L371.96-17.32Q374.76-20.32 379.24-20.32ZM379.24-2.40L379.24-2.40Q382.48-2.40 384.36-4.64L384.36-4.64Q386.16-6.76 386.16-10L386.16-10Q386.16-13.24 384.36-15.36L384.36-15.36Q382.48-17.60 379.24-17.60L379.24-17.60Q376-17.60 374.12-15.36L374.12-15.36Q372.32-13.24 372.32-10L372.32-10Q372.32-6.76 374.12-4.64L374.12-4.64Q376-2.40 379.24-2.40Z M397.12-20L400.12-20L400.12-16.88Q401.20-18.32 402.76-19.32Q404.32-20.32 406.32-20.32Q408.32-20.32 409.76-19.76Q411.20-19.20 412.28-18.08L412.28-18.08Q414.76-15.64 414.76-11.64L414.76-11.64L414.76 0L411.76 0L411.76-11.56Q411.76-14.32 410.20-15.96Q408.64-17.60 406.16-17.60L406.16-17.60Q403.64-17.60 401.88-15.92L401.88-15.92Q400.12-14.20 400.12-11.52L400.12-11.52L400.12 0L397.12 0L397.12-20Z M428.44 0L425.44 0L425.44-17.36L421.36-17.36L421.36-20L425.44-20L425.44-27.16L428.44-27.16L428.44-20L433.04-20L433.04-17.36L428.44-17.36L428.44 0Z M448.84-2.40L448.84-2.40Q452.88-2.40 454.64-5.76L454.64-5.76L457.92-5.76Q456.88-3.04 454.62-1.36Q452.36 0.32 448.80 0.32L448.80 0.32Q444.28 0.32 441.44-2.68L441.44-2.68Q438.68-5.60 438.68-10L438.68-10Q438.68-14.44 441.32-17.32L441.32-17.32Q444.12-20.32 448.60-20.32L448.60-20.32Q453.08-20.32 455.88-17.32L455.88-17.32Q458.52-14.44 458.52-10L458.52-10L458.52-8.80L441.76-8.80Q442.08-6.04 443.96-4.24L443.96-4.24Q445.88-2.40 448.84-2.40ZM448.60-17.60L448.60-17.60Q445.84-17.60 443.96-15.88L443.96-15.88Q442.20-14.24 441.80-11.60L441.80-11.60L455.40-11.60Q455-14.24 453.24-15.88L453.24-15.88Q451.36-17.60 448.60-17.60Z M476.56-20.32L476.76-20.32L476.76-17.32L476.40-17.32Q473.16-17.32 471.12-14.72L471.12-14.72Q469.20-12.24 469.20-8.80L469.20-8.80L469.20 0L466.20 0L466.20-20L469.20-20L469.20-15.08Q470.16-18.20 473.36-19.68L473.36-19.68Q474.68-20.32 476.56-20.32L476.56-20.32Z M499.08 0L499.08-3.20Q496.68 0.32 491.92 0.32L491.92 0.32Q487.60 0.32 484.88-2.68L484.88-2.68Q482.24-5.64 482.24-10L482.24-10Q482.24-14.36 484.88-17.32L484.88-17.32Q487.60-20.32 492.12-20.32Q496.64-20.32 499.08-16.76L499.08-16.76L499.08-20L502.08-20L502.08 0L499.08 0ZM492.32-2.40L492.32-2.40Q495.56-2.40 497.44-4.64L497.44-4.64Q499.24-6.76 499.24-10L499.24-10Q499.24-13.24 497.44-15.36L497.44-15.36Q495.56-17.60 492.32-17.60L492.32-17.60Q489.12-17.60 487.12-15.36L487.12-15.36Q485.24-13.24 485.24-10L485.24-10Q485.24-6.76 487.12-4.64L487.12-4.64Q489.12-2.40 492.32-2.40Z M526.08-14.64L523.04-14.64Q522.64-17.76 518.02-17.76Q513.40-17.76 513.40-14.88L513.40-14.88Q513.40-13.68 514.38-13.06Q515.36-12.44 516.84-12.04Q518.32-11.64 520.06-11.30Q521.80-10.96 523.28-10.34Q524.76-9.72 525.74-8.64Q526.72-7.56 526.72-5.68L526.72-5.68Q526.72-2.76 524.52-1.22Q522.32 0.32 518.56 0.32L518.56 0.32Q514.56 0.32 512.20-1.68L512.20-1.68Q510.04-3.44 509.88-6.28L509.88-6.28L513.00-6.28Q513.28-3.52 516.12-2.56L516.12-2.56Q517.16-2.24 518.18-2.24Q519.20-2.24 520.08-2.36Q520.96-2.48 521.80-2.80L521.80-2.80Q523.72-3.56 523.72-5.40L523.72-5.40Q523.72-6.64 522.74-7.30Q521.76-7.96 520.28-8.38Q518.80-8.80 517.06-9.14Q515.32-9.48 513.84-10.08Q512.36-10.68 511.38-11.72Q510.40-12.76 510.40-14.60L510.40-14.60Q510.40-17.32 512.38-18.82Q514.36-20.32 518.24-20.32L518.24-20.32Q521.92-20.32 524.04-18.56L524.04-18.56Q525.80-17.08 526.08-14.64L526.08-14.64Z"/></g>
</svg>
</g><g opacity="1" transform="rotate(0 35.361 146.6213)">
<svg width="352.2358" height="28" x="35.361" y="146.6213" version="1.1" preserveAspectRatio="none" viewBox="3.32 -31.48 400.04 31.8">
  <g transform="matrix(1 0 0 1 0 0)" class="companyName"><path id="id-D6z1nYkh18" d="M22.60-28L29-28L29 0L23.68 0L9.72-17L9.72 0L3.32 0L3.32-28L8.68-28L22.60-11L22.60-28Z M56.28-10.68Q56.28-10.56 56.16-9L56.16-9L39.88-9Q40.32-7 41.96-5.84Q43.60-4.68 46.04-4.68L46.04-4.68Q47.72-4.68 49.02-5.18Q50.32-5.68 51.44-6.76L51.44-6.76L54.76-3.16Q51.72 0.32 45.88 0.32L45.88 0.32Q42.24 0.32 39.44-1.10Q36.64-2.52 35.12-5.04Q33.60-7.56 33.60-10.76L33.60-10.76Q33.60-13.92 35.10-16.46Q36.60-19 39.22-20.42Q41.84-21.84 45.08-21.84L45.08-21.84Q48.24-21.84 50.80-20.48Q53.36-19.12 54.82-16.58Q56.28-14.04 56.28-10.68L56.28-10.68ZM45.12-17.12Q43-17.12 41.56-15.92Q40.12-14.72 39.80-12.64L39.80-12.64L50.40-12.64Q50.08-14.68 48.64-15.90Q47.20-17.12 45.12-17.12L45.12-17.12Z M89.08-21.52L94.60-21.52L86.80 0L80.80 0L75.96-13.36L70.96 0L64.96 0L57.20-21.52L63.08-21.52L68.16-6.96L73.44-21.52L78.72-21.52L83.84-6.96L89.08-21.52Z M128.48-28L134.96-28L134.96 0L128.48 0L128.48-11.48L115.76-11.48L115.76 0L109.28 0L109.28-28L115.76-28L115.76-16.96L128.48-16.96L128.48-28Z M151.40 0.32Q148 0.32 145.30-1.10Q142.60-2.52 141.08-5.04Q139.56-7.56 139.56-10.76L139.56-10.76Q139.56-13.96 141.08-16.48Q142.60-19 145.30-20.42Q148-21.84 151.40-21.84L151.40-21.84Q154.80-21.84 157.48-20.42Q160.16-19 161.68-16.48Q163.20-13.96 163.20-10.76L163.20-10.76Q163.20-7.56 161.68-5.04Q160.16-2.52 157.48-1.10Q154.80 0.32 151.40 0.32L151.40 0.32ZM151.40-4.80Q153.80-4.80 155.34-6.42Q156.88-8.04 156.88-10.76L156.88-10.76Q156.88-13.48 155.34-15.10Q153.80-16.72 151.40-16.72L151.40-16.72Q149-16.72 147.44-15.10Q145.88-13.48 145.88-10.76L145.88-10.76Q145.88-8.04 147.44-6.42Q149-4.80 151.40-4.80L151.40-4.80Z M173.32-18.68Q174.44-20.24 176.34-21.04Q178.24-21.84 180.72-21.84L180.72-21.84L180.72-16.08Q179.68-16.16 179.32-16.16L179.32-16.16Q176.64-16.16 175.12-14.66Q173.60-13.16 173.60-10.16L173.60-10.16L173.60 0L167.36 0L167.36-21.52L173.32-21.52L173.32-18.68Z M184.44 0L184.44-21.52L190.68-21.52L190.68 0L184.44 0ZM187.56-24.52Q185.84-24.52 184.76-25.52Q183.68-26.52 183.68-28L183.68-28Q183.68-29.48 184.76-30.48Q185.84-31.48 187.56-31.48L187.56-31.48Q189.28-31.48 190.36-30.52Q191.44-29.56 191.44-28.12L191.44-28.12Q191.44-26.56 190.36-25.54Q189.28-24.52 187.56-24.52L187.56-24.52Z M202.88-4.80L214.20-4.80L214.20 0L195 0L195-3.76L205.96-16.72L195.28-16.72L195.28-21.52L213.84-21.52L213.84-17.76L202.88-4.80Z M228.16 0.32Q224.76 0.32 222.06-1.10Q219.36-2.52 217.84-5.04Q216.32-7.56 216.32-10.76L216.32-10.76Q216.32-13.96 217.84-16.48Q219.36-19 222.06-20.42Q224.76-21.84 228.16-21.84L228.16-21.84Q231.56-21.84 234.24-20.42Q236.92-19 238.44-16.48Q239.96-13.96 239.96-10.76L239.96-10.76Q239.96-7.56 238.44-5.04Q236.92-2.52 234.24-1.10Q231.56 0.32 228.16 0.32L228.16 0.32ZM228.16-4.80Q230.56-4.80 232.10-6.42Q233.64-8.04 233.64-10.76L233.64-10.76Q233.64-13.48 232.10-15.10Q230.56-16.72 228.16-16.72L228.16-16.72Q225.76-16.72 224.20-15.10Q222.64-13.48 222.64-10.76L222.64-10.76Q222.64-8.04 224.20-6.42Q225.76-4.80 228.16-4.80L228.16-4.80Z M257.20-21.84Q261.20-21.84 263.66-19.44Q266.12-17.04 266.12-12.32L266.12-12.32L266.12 0L259.88 0L259.88-11.36Q259.88-13.92 258.76-15.18Q257.64-16.44 255.52-16.44L255.52-16.44Q253.16-16.44 251.76-14.98Q250.36-13.52 250.36-10.64L250.36-10.64L250.36 0L244.12 0L244.12-21.52L250.08-21.52L250.08-19Q251.32-20.36 253.16-21.10Q255.00-21.84 257.20-21.84L257.20-21.84Z M289.32 0L289.32-22.72L280.36-22.72L280.36-28L304.76-28L304.76-22.72L295.80-22.72L295.80 0L289.32 0Z M313.28-18.68Q314.40-20.24 316.30-21.04Q318.20-21.84 320.68-21.84L320.68-21.84L320.68-16.08Q319.64-16.16 319.28-16.16L319.28-16.16Q316.60-16.16 315.08-14.66Q313.56-13.16 313.56-10.16L313.56-10.16L313.56 0L307.32 0L307.32-21.52L313.28-21.52L313.28-18.68Z M332.96-21.84Q337.96-21.84 340.64-19.46Q343.32-17.08 343.32-12.28L343.32-12.28L343.32 0L337.48 0L337.48-2.68Q335.72 0.32 330.92 0.32L330.92 0.32Q328.44 0.32 326.62-0.52Q324.80-1.36 323.84-2.84Q322.88-4.32 322.88-6.20L322.88-6.20Q322.88-9.20 325.14-10.92Q327.40-12.64 332.12-12.64L332.12-12.64L337.08-12.64Q337.08-14.68 335.84-15.78Q334.60-16.88 332.12-16.88L332.12-16.88Q330.40-16.88 328.74-16.34Q327.08-15.80 325.92-14.88L325.92-14.88L323.68-19.24Q325.44-20.48 327.90-21.16Q330.36-21.84 332.96-21.84L332.96-21.84ZM332.48-3.88Q334.08-3.88 335.32-4.62Q336.56-5.36 337.08-6.80L337.08-6.80L337.08-9L332.80-9Q328.96-9 328.96-6.48L328.96-6.48Q328.96-5.28 329.90-4.58Q330.84-3.88 332.48-3.88L332.48-3.88Z M363.92-21.52L369.92-21.52L360.84 0L354.40 0L345.36-21.52L351.80-21.52L357.76-6.88L363.92-21.52Z M392.96-10.68Q392.96-10.56 392.84-9L392.84-9L376.56-9Q377-7 378.64-5.84Q380.28-4.68 382.72-4.68L382.72-4.68Q384.40-4.68 385.70-5.18Q387-5.68 388.12-6.76L388.12-6.76L391.44-3.16Q388.40 0.32 382.56 0.32L382.56 0.32Q378.92 0.32 376.12-1.10Q373.32-2.52 371.80-5.04Q370.28-7.56 370.28-10.76L370.28-10.76Q370.28-13.92 371.78-16.46Q373.28-19 375.90-20.42Q378.52-21.84 381.76-21.84L381.76-21.84Q384.92-21.84 387.48-20.48Q390.04-19.12 391.50-16.58Q392.96-14.04 392.96-10.68L392.96-10.68ZM381.80-17.12Q379.68-17.12 378.24-15.92Q376.80-14.72 376.48-12.64L376.48-12.64L387.08-12.64Q386.76-14.68 385.32-15.90Q383.88-17.12 381.80-17.12L381.80-17.12Z M397.12 0L397.12-29.68L403.36-29.68L403.36 0L397.12 0Z"/></g>
</svg>
</g></svg></svg>