<svg version="1.1" preserveAspectRatio="none" xmlns="http://www.w3.org/2000/svg" width="500" height="500" viewBox="0 0 500 500"><rect width="100%" height="100%" fill="#FFFFFF" fill-opacity="1"/><svg viewBox="-12.1672 107.7925 367.137 176" width="333" height="159.63523153482214" x="83.5px" y="170.1824px" xmlns="http://www.w3.org/2000/svg" xmlns:xlink="http://www.w3.org/1999/xlink" preserveAspectRatio="none"><defs></defs><style>.companyName {fill:#182145;fill-opacity:1;}.icon1 {fill:#182145;fill-opacity:1;}.icon2 {fill:#E35B34;fill-opacity:1;}.icon3 {fill:#E3D454;fill-opacity:1;}.icon3-str {stroke:#E3D454;stroke-opacity:1;}.text {fill:#182145;fill-opacity:1;}</style><g opacity="1" transform="rotate(0 -12.1672 107.7925)">
<svg width="120.8946" height="120" x="-12.1672" y="107.7925" version="1.1" preserveAspectRatio="none" viewBox="11.80000114440918 12.245500564575195 77.1252670288086 76.55450439453125">
  <g transform="matrix(1 0 0 1 0 0)" class="icon1"><path d="M66.8,17.9C66.8,17.9,66.8,17.9,66.8,17.9L47.1,37.7l-11.7,0.2c0.8-0.8,3.4-3.9,2-8.9c-0.1-0.3-0.4-0.6-0.7-0.7  c-5.5-1.6-8.8,1.9-9,2.1L16.9,41.1c-0.4,0.4-0.4,1,0,1.4l6.2,6.2c0.2,0.2,0.5,0.3,0.7,0.3s0.5-0.1,0.7-0.3l0.6-0.6l5.8,5.8l-1.5,1.5  c-0.2,0.2-0.3,0.4-0.3,0.7s0.1,0.5,0.3,0.7l0.4,0.4l-2.3,2.3c-0.2,0.2-0.3,0.4-0.3,0.7s0.1,0.5,0.3,0.7l4.8,4.8l-6.6,6.6  c-0.4,0.4-0.4,1,0,1.4c0.2,0.2,0.5,0.3,0.7,0.3s0.5-0.1,0.7-0.3l6.6-6.6l1.6,1.6L21.3,82.8c-0.4,0.4-0.4,1,0,1.4  c0.2,0.2,0.5,0.3,0.7,0.3s0.5-0.1,0.7-0.3l14.1-14.1l3.5,3.5c0.2,0.2,0.5,0.3,0.7,0.3s0.5-0.1,0.7-0.3l2.3-2.3l0.4,0.4  c0.2,0.2,0.4,0.3,0.7,0.3s0.5-0.1,0.7-0.3l1.5-1.5l5.9,5.9l-0.6,0.6c-0.4,0.4-0.4,1,0,1.4l6.2,6.2c0.2,0.2,0.5,0.3,0.7,0.3  s0.5-0.1,0.7-0.3l10.7-10.7c0.3-0.3,3.7-3.6,2.1-9c-0.1-0.3-0.4-0.6-0.7-0.7c-5-1.4-8.1,1.2-8.9,2L63.6,54l19.6-19.6c0,0,0,0,0,0  c0.8-0.7,8.3-8,4.8-20.5c-0.1-0.3-0.4-0.6-0.7-0.7C74.9,9.6,67.4,17.3,66.8,17.9z M35.5,30c0.6,2.8-0.4,4.8-1.1,5.8l-4.7-4.7  C30.8,30.4,32.8,29.4,35.5,30z M19,41.8l9.3-9.3l4.8,4.8l-9.3,9.3L19,41.8z M26.5,46.7l6.8-6.8L45,39.7L32.3,52.4L26.5,46.7z   M41,71.5L29.6,60.2l1.6-1.6L42.6,70L41,71.5z M59.5,82.3l-4.8-4.8l9.3-9.3l4.8,4.8L59.5,82.3z M71.2,65.7c0.6,2.8-0.4,4.8-1.1,5.8  l-4.7-4.7C66.4,66.1,68.4,65.1,71.2,65.7z M61.4,67.9l-6.8,6.8l-5.9-5.9L61.6,56L61.4,67.9z M45.1,69.7L31.5,56.1l36-36l13.6,13.6  L45.1,69.7z M82.5,32.3L68.9,18.7c2-1.7,8.1-6.1,17.3-3.7C88.7,24.3,84.3,30.3,82.5,32.3z"></path><path d="M62.8,29.3c-2.5,2.5-2.5,6.6,0,9.1c1.3,1.3,2.9,1.9,4.6,1.9s3.3-0.6,4.6-1.9c1.2-1.2,1.9-2.8,1.9-4.6c0-1.7-0.7-3.3-1.9-4.6  c-1.2-1.2-2.8-1.9-4.6-1.9S64,28.1,62.8,29.3z M70.5,37c-0.8,0.8-2,1.3-3.1,1.3S65,37.8,64.2,37c-1.7-1.7-1.7-4.6,0-6.3  c1.7-1.7,4.6-1.7,6.3,0S72.2,35.2,70.5,37z"></path><path d="M65.2,32.7c0.4,0.4,1,0.4,1.4,0c0.4-0.4,1.2-0.4,1.6,0c0.2,0.2,0.5,0.3,0.7,0.3s0.5-0.1,0.7-0.3c0.4-0.4,0.4-1,0-1.4  c-1.2-1.2-3.2-1.2-4.4,0C64.8,31.7,64.8,32.3,65.2,32.7z"></path><path d="M26.1,68c0.3,0,0.5-0.1,0.7-0.3l2.1-2.1c0.4-0.4,0.4-1,0-1.4c-0.4-0.4-1-0.4-1.4,0l-2.1,2.1c-0.4,0.4-0.4,1,0,1.4  C25.6,67.9,25.9,68,26.1,68z"></path><path d="M12.8,87.4c0.3,0,0.5-0.1,0.7-0.3l10.9-10.9c0.4-0.4,0.4-1,0-1.4s-1-0.4-1.4,0L12.1,85.7c-0.4,0.4-0.4,1,0,1.4  C12.3,87.3,12.6,87.4,12.8,87.4z"></path><path d="M15.7,78.4c0.3,0,0.5-0.1,0.7-0.3l8-8c0.4-0.4,0.4-1,0-1.4s-1-0.4-1.4,0l-8,8c-0.4,0.4-0.4,1,0,1.4  C15.2,78.3,15.4,78.4,15.7,78.4z"></path><path d="M24.1,88.8c0.3,0,0.5-0.1,0.7-0.3l2.1-2.1c0.4-0.4,0.4-1,0-1.4s-1-0.4-1.4,0l-2.1,2.1c-0.4,0.4-0.4,1,0,1.4  C23.6,88.7,23.9,88.8,24.1,88.8z"></path><path d="M36,74.5l-8,8c-0.4,0.4-0.4,1,0,1.4c0.2,0.2,0.5,0.3,0.7,0.3s0.5-0.1,0.7-0.3l8-8c0.4-0.4,0.4-1,0-1.4S36.4,74.1,36,74.5z"></path></g>
</svg>
</g><g opacity="1" transform="rotate(0 138.7274 107.7925)">
<svg width="216.2424" height="120" x="138.7274" y="107.7925" version="1.1" preserveAspectRatio="none" viewBox="3.32 -28 194.60000000000002 108">
  <g transform="matrix(1 0 0 1 0 0)" class="companyName"><path id="id-D6z1nYkh16" d="M22.60-28L29-28L29 0L23.68 0L9.72-17L9.72 0L3.32 0L3.32-28L8.68-28L22.60-11L22.60-28Z M42.08-5.20L57.32-5.20L57.32 0L35.64 0L35.64-28L56.80-28L56.80-22.80L42.08-22.80L42.08-16.72L55.08-16.72L55.08-11.68L42.08-11.68L42.08-5.20Z M98.20-28L104.40-28L95.24 0L88.28 0L82.12-18.96L75.76 0L68.84 0L59.64-28L66.36-28L72.68-8.32L79.28-28L85.28-28L91.68-8.16L98.20-28Z M22.52 12L29 12L29 40L22.52 40L22.52 28.52L9.80 28.52L9.80 40L3.32 40L3.32 12L9.80 12L9.80 23.04L22.52 23.04L22.52 12Z M49.20 40.48Q44.84 40.48 41.34 38.60Q37.84 36.72 35.86 33.42Q33.88 30.12 33.88 26L33.88 26Q33.88 21.88 35.86 18.58Q37.84 15.28 41.34 13.40Q44.84 11.52 49.20 11.52L49.20 11.52Q53.56 11.52 57.04 13.40Q60.52 15.28 62.52 18.58Q64.52 21.88 64.52 26L64.52 26Q64.52 30.12 62.52 33.42Q60.52 36.72 57.04 38.60Q53.56 40.48 49.20 40.48L49.20 40.48ZM49.20 34.96Q51.68 34.96 53.68 33.82Q55.68 32.68 56.82 30.64Q57.96 28.60 57.96 26L57.96 26Q57.96 23.40 56.82 21.36Q55.68 19.32 53.68 18.18Q51.68 17.04 49.20 17.04L49.20 17.04Q46.72 17.04 44.72 18.18Q42.72 19.32 41.58 21.36Q40.44 23.40 40.44 26L40.44 26Q40.44 28.60 41.58 30.64Q42.72 32.68 44.72 33.82Q46.72 34.96 49.20 34.96L49.20 34.96Z M94.20 40L87.24 40L81.84 32.20L81.52 32.20L75.88 32.20L75.88 40L69.40 40L69.40 12L81.52 12Q85.24 12 87.98 13.24Q90.72 14.48 92.20 16.76Q93.68 19.04 93.68 22.16L93.68 22.16Q93.68 25.28 92.18 27.54Q90.68 29.80 87.92 31L87.92 31L94.20 40ZM87.12 22.16Q87.12 19.80 85.60 18.54Q84.08 17.28 81.16 17.28L81.16 17.28L75.88 17.28L75.88 27.04L81.16 27.04Q84.08 27.04 85.60 25.76Q87.12 24.48 87.12 22.16L87.12 22.16Z M98.80 40L98.80 12L105.28 12L105.28 40L98.80 40Z M118.68 34.72L134.60 34.72L134.60 40L110.12 40L110.12 35.80L125.48 17.28L110.44 17.28L110.44 12L134 12L134 16.20L118.68 34.72Z M152.04 40.48Q147.68 40.48 144.18 38.60Q140.68 36.72 138.70 33.42Q136.72 30.12 136.72 26L136.72 26Q136.72 21.88 138.70 18.58Q140.68 15.28 144.18 13.40Q147.68 11.52 152.04 11.52L152.04 11.52Q156.40 11.52 159.88 13.40Q163.36 15.28 165.36 18.58Q167.36 21.88 167.36 26L167.36 26Q167.36 30.12 165.36 33.42Q163.36 36.72 159.88 38.60Q156.40 40.48 152.04 40.48L152.04 40.48ZM152.04 34.96Q154.52 34.96 156.52 33.82Q158.52 32.68 159.66 30.64Q160.80 28.60 160.80 26L160.80 26Q160.80 23.40 159.66 21.36Q158.52 19.32 156.52 18.18Q154.52 17.04 152.04 17.04L152.04 17.04Q149.56 17.04 147.56 18.18Q145.56 19.32 144.42 21.36Q143.28 23.40 143.28 26L143.28 26Q143.28 28.60 144.42 30.64Q145.56 32.68 147.56 33.82Q149.56 34.96 152.04 34.96L152.04 34.96Z M191.52 12L197.92 12L197.92 40L192.60 40L178.64 23L178.64 40L172.24 40L172.24 12L177.60 12L191.52 29L191.52 12Z M12.28 80L12.28 57.28L3.32 57.28L3.32 52L27.72 52L27.72 57.28L18.76 57.28L18.76 80L12.28 80Z M56 80L49.04 80L43.64 72.20L43.32 72.20L37.68 72.20L37.68 80L31.20 80L31.20 52L43.32 52Q47.04 52 49.78 53.24Q52.52 54.48 54 56.76Q55.48 59.04 55.48 62.16L55.48 62.16Q55.48 65.28 53.98 67.54Q52.48 69.80 49.72 71L49.72 71L56 80ZM48.92 62.16Q48.92 59.80 47.40 58.54Q45.88 57.28 42.96 57.28L42.96 57.28L37.68 57.28L37.68 67.04L42.96 67.04Q45.88 67.04 47.40 65.76Q48.92 64.48 48.92 62.16L48.92 62.16Z M81.52 80L79.04 74L66.04 74L63.56 80L56.92 80L69.40 52L75.80 52L88.32 80L81.52 80ZM68.12 69.08L77 69.08L72.56 58.36L68.12 69.08Z M110.20 52L116.64 52L104.52 80L98.12 80L86.04 52L93.04 52L101.56 72L110.20 52Z M125.40 74.80L140.64 74.80L140.64 80L118.96 80L118.96 52L140.12 52L140.12 57.20L125.40 57.20L125.40 63.28L138.40 63.28L138.40 68.32L125.40 68.32L125.40 74.80Z M145.80 80L145.80 52L152.28 52L152.28 74.72L166.32 74.72L166.32 80L145.80 80Z"/></g>
</svg>
</g><g opacity="1" transform="rotate(0 1.7045 263.7925)">
<svg width="339.3937" height="20" x="1.7045" y="263.7925" version="1.1" preserveAspectRatio="none" viewBox="4.2 -29.92 511.92 30.160000000000004">
  <g transform="matrix(1 0 0 1 0 0)" class="text"><path id="id-D-YM9nyY425" d="M34 0L30.16 0L30.12-20.40L20-3.40L18.16-3.40L8.04-20.28L8.04 0L4.20 0L4.20-28L7.48-28L19.16-8.32L30.68-28L33.96-28L34 0Z M50.76-21.40Q55.16-21.40 57.50-19.24Q59.84-17.08 59.84-12.80L59.84-12.80L59.84 0L56.20 0L56.20-2.80Q55.24-1.32 53.46-0.54Q51.68 0.24 49.24 0.24L49.24 0.24Q45.68 0.24 43.54-1.48Q41.40-3.20 41.40-6L41.40-6Q41.40-8.80 43.44-10.50Q45.48-12.20 49.92-12.20L49.92-12.20L56.00-12.20L56.00-12.96Q56.00-15.44 54.56-16.76Q53.12-18.08 50.32-18.08L50.32-18.08Q48.44-18.08 46.64-17.46Q44.84-16.84 43.60-15.80L43.60-15.80L42.00-18.68Q43.64-20 45.92-20.70Q48.20-21.40 50.76-21.40L50.76-21.40ZM49.88-2.72Q52.08-2.72 53.68-3.70Q55.28-4.68 56.00-6.48L56.00-6.48L56.00-9.44L50.08-9.44Q45.20-9.44 45.20-6.16L45.20-6.16Q45.20-4.56 46.44-3.64Q47.68-2.72 49.88-2.72L49.88-2.72Z M74.24 0.24Q71.64 0.24 69.24-0.46Q66.84-1.16 65.48-2.24L65.48-2.24L67.08-5.28Q68.48-4.28 70.48-3.68Q72.48-3.08 74.52-3.08L74.52-3.08Q79.56-3.08 79.56-5.96L79.56-5.96Q79.56-6.92 78.88-7.48Q78.20-8.04 77.18-8.30Q76.16-8.56 74.28-8.88L74.28-8.88Q71.72-9.28 70.10-9.80Q68.48-10.32 67.32-11.56Q66.16-12.80 66.16-15.04L66.16-15.04Q66.16-17.92 68.56-19.66Q70.96-21.40 75.00-21.40L75.00-21.40Q77.12-21.40 79.24-20.88Q81.36-20.36 82.72-19.48L82.72-19.48L81.08-16.44Q78.48-18.12 74.96-18.12L74.96-18.12Q72.52-18.12 71.24-17.32Q69.96-16.52 69.96-15.20L69.96-15.20Q69.96-14.16 70.68-13.56Q71.40-12.96 72.46-12.68Q73.52-12.40 75.44-12.04L75.44-12.04Q78.00-11.60 79.58-11.10Q81.16-10.60 82.28-9.40Q83.40-8.20 83.40-6.04L83.40-6.04Q83.40-3.16 80.94-1.46Q78.48 0.24 74.24 0.24L74.24 0.24Z M109.08-21.40Q113.48-21.40 115.82-19.24Q118.16-17.08 118.16-12.80L118.16-12.80L118.16 0L114.52 0L114.52-2.80Q113.56-1.32 111.78-0.54Q110.00 0.24 107.56 0.24L107.56 0.24Q104.00 0.24 101.86-1.48Q99.72-3.20 99.72-6L99.72-6Q99.72-8.80 101.76-10.50Q103.80-12.20 108.24-12.20L108.24-12.20L114.32-12.20L114.32-12.96Q114.32-15.44 112.88-16.76Q111.44-18.08 108.64-18.08L108.64-18.08Q106.76-18.08 104.96-17.46Q103.16-16.84 101.92-15.80L101.92-15.80L100.32-18.68Q101.96-20 104.24-20.70Q106.52-21.40 109.08-21.40L109.08-21.40ZM108.20-2.72Q110.40-2.72 112.00-3.70Q113.60-4.68 114.32-6.48L114.32-6.48L114.32-9.44L108.40-9.44Q103.52-9.44 103.52-6.16L103.52-6.16Q103.52-4.56 104.76-3.64Q106.00-2.72 108.20-2.72L108.20-2.72Z M126.48 0L126.48-29.68L130.32-29.68L130.32 0L126.48 0Z M138.84 0L138.84-29.68L142.68-29.68L142.68 0L138.84 0Z M158.92-21.40Q163.32-21.40 165.66-19.24Q168-17.08 168-12.80L168-12.80L168 0L164.36 0L164.36-2.80Q163.40-1.32 161.62-0.54Q159.84 0.24 157.40 0.24L157.40 0.24Q153.84 0.24 151.70-1.48Q149.56-3.20 149.56-6L149.56-6Q149.56-8.80 151.60-10.50Q153.64-12.20 158.08-12.20L158.08-12.20L164.16-12.20L164.16-12.96Q164.16-15.44 162.72-16.76Q161.28-18.08 158.48-18.08L158.48-18.08Q156.60-18.08 154.80-17.46Q153-16.84 151.76-15.80L151.76-15.80L150.16-18.68Q151.80-20 154.08-20.70Q156.36-21.40 158.92-21.40L158.92-21.40ZM158.04-2.72Q160.24-2.72 161.84-3.70Q163.44-4.68 164.16-6.48L164.16-6.48L164.16-9.44L158.24-9.44Q153.36-9.44 153.36-6.16L153.36-6.16Q153.36-4.56 154.60-3.64Q155.84-2.72 158.04-2.72L158.04-2.72ZM156.20-24.28L161.64-29.48L166.52-29.48L159.80-24.28L156.20-24.28Z M204.44-29.68L208.28-29.68L208.28 0L204.60 0L204.60-3.36Q203.32-1.60 201.36-0.68Q199.40 0.24 197.04 0.24L197.04 0.24Q193.96 0.24 191.52-1.12Q189.08-2.48 187.70-4.94Q186.32-7.40 186.32-10.60L186.32-10.60Q186.32-13.80 187.70-16.24Q189.08-18.68 191.52-20.04Q193.96-21.40 197.04-21.40L197.04-21.40Q199.32-21.40 201.24-20.54Q203.16-19.68 204.44-18L204.44-18L204.44-29.68ZM197.36-3.12Q199.36-3.12 201-4.06Q202.64-5 203.56-6.70Q204.48-8.40 204.48-10.60L204.48-10.60Q204.48-12.80 203.56-14.50Q202.64-16.20 201-17.12Q199.36-18.04 197.36-18.04L197.36-18.04Q195.32-18.04 193.70-17.12Q192.08-16.20 191.14-14.50Q190.20-12.80 190.20-10.60L190.20-10.60Q190.20-8.40 191.14-6.70Q192.08-5 193.70-4.06Q195.32-3.12 197.36-3.12L197.36-3.12Z M235.92-10.48Q235.92-10.04 235.84-9.32L235.84-9.32L218.64-9.32Q219.00-6.52 221.10-4.82Q223.20-3.12 226.32-3.12L226.32-3.12Q230.12-3.12 232.44-5.68L232.44-5.68L234.56-3.20Q233.12-1.52 230.98-0.64Q228.84 0.24 226.20 0.24L226.20 0.24Q222.84 0.24 220.24-1.14Q217.64-2.52 216.22-5Q214.80-7.48 214.80-10.60L214.80-10.60Q214.80-13.68 216.18-16.16Q217.56-18.64 219.98-20.02Q222.40-21.40 225.44-21.40L225.44-21.40Q228.48-21.40 230.86-20.02Q233.24-18.64 234.58-16.16Q235.92-13.68 235.92-10.48L235.92-10.48ZM225.44-18.16Q222.68-18.16 220.82-16.48Q218.96-14.80 218.64-12.08L218.64-12.08L232.24-12.08Q231.92-14.76 230.06-16.46Q228.20-18.16 225.44-18.16L225.44-18.16Z M254.40 0L254.40-29.68L258.24-29.68L258.24 0L254.40 0Z M274.48-21.40Q278.88-21.40 281.22-19.24Q283.56-17.08 283.56-12.80L283.56-12.80L283.56 0L279.92 0L279.92-2.80Q278.96-1.32 277.18-0.54Q275.40 0.24 272.96 0.24L272.96 0.24Q269.40 0.24 267.26-1.48Q265.12-3.20 265.12-6L265.12-6Q265.12-8.80 267.16-10.50Q269.20-12.20 273.64-12.20L273.64-12.20L279.72-12.20L279.72-12.96Q279.72-15.44 278.28-16.76Q276.84-18.08 274.04-18.08L274.04-18.08Q272.16-18.08 270.36-17.46Q268.56-16.84 267.32-15.80L267.32-15.80L265.72-18.68Q267.36-20 269.64-20.70Q271.92-21.40 274.48-21.40L274.48-21.40ZM273.60-2.72Q275.80-2.72 277.40-3.70Q279.00-4.68 279.72-6.48L279.72-6.48L279.72-9.44L273.80-9.44Q268.92-9.44 268.92-6.16L268.92-6.16Q268.92-4.56 270.16-3.64Q271.40-2.72 273.60-2.72L273.60-2.72Z M297.96 0.24Q295.36 0.24 292.96-0.46Q290.56-1.16 289.20-2.24L289.20-2.24L290.80-5.28Q292.20-4.28 294.20-3.68Q296.20-3.08 298.24-3.08L298.24-3.08Q303.28-3.08 303.28-5.96L303.28-5.96Q303.28-6.92 302.60-7.48Q301.92-8.04 300.90-8.30Q299.88-8.56 298.00-8.88L298.00-8.88Q295.44-9.28 293.82-9.80Q292.20-10.32 291.04-11.56Q289.88-12.80 289.88-15.04L289.88-15.04Q289.88-17.92 292.28-19.66Q294.68-21.40 298.72-21.40L298.72-21.40Q300.84-21.40 302.96-20.88Q305.08-20.36 306.44-19.48L306.44-19.48L304.80-16.44Q302.20-18.12 298.68-18.12L298.68-18.12Q296.24-18.12 294.96-17.32Q293.68-16.52 293.68-15.20L293.68-15.20Q293.68-14.16 294.40-13.56Q295.12-12.96 296.18-12.68Q297.24-12.40 299.16-12.04L299.16-12.04Q301.72-11.60 303.30-11.10Q304.88-10.60 306.00-9.40Q307.12-8.20 307.12-6.04L307.12-6.04Q307.12-3.16 304.66-1.46Q302.20 0.24 297.96 0.24L297.96 0.24Z M332.84-26.76Q329.40-26.76 329.40-23.04L329.40-23.04L329.40-21.20L335.56-21.20L335.56-18.04L329.48-18.04L329.48 0L325.64 0L325.64-18.04L322.04-18.04L322.04-21.20L325.64-21.20L325.64-23.08Q325.64-26.24 327.48-28.08Q329.32-29.92 332.64-29.92L332.64-29.92Q333.92-29.92 335.04-29.60Q336.16-29.28 336.96-28.68L336.96-28.68L335.80-25.76Q334.48-26.76 332.84-26.76L332.84-26.76Z M347.28-17.64Q348.28-19.48 350.24-20.44Q352.20-21.40 355.00-21.40L355.00-21.40L355.00-17.68Q354.68-17.72 354.12-17.72L354.12-17.72Q351.00-17.72 349.22-15.86Q347.44-14 347.44-10.56L347.44-10.56L347.44 0L343.60 0L343.60-21.20L347.28-21.20L347.28-17.64Z M369.80 0.24Q366.64 0.24 364.12-1.16Q361.60-2.56 360.18-5.02Q358.76-7.48 358.76-10.60L358.76-10.60Q358.76-13.72 360.18-16.18Q361.60-18.64 364.12-20.02Q366.64-21.40 369.80-21.40L369.80-21.40Q372.96-21.40 375.46-20.02Q377.96-18.64 379.38-16.18Q380.80-13.72 380.80-10.60L380.80-10.60Q380.80-7.48 379.38-5.02Q377.96-2.56 375.46-1.16Q372.96 0.24 369.80 0.24L369.80 0.24ZM369.80-3.12Q371.84-3.12 373.46-4.06Q375.08-5 376.00-6.70Q376.92-8.40 376.92-10.60L376.92-10.60Q376.92-12.80 376.00-14.50Q375.08-16.20 373.46-17.12Q371.84-18.04 369.80-18.04L369.80-18.04Q367.76-18.04 366.14-17.12Q364.52-16.20 363.58-14.50Q362.64-12.80 362.64-10.60L362.64-10.60Q362.64-8.40 363.58-6.70Q364.52-5 366.14-4.06Q367.76-3.12 369.80-3.12L369.80-3.12Z M398.64-21.40Q402.68-21.40 405.06-19.06Q407.44-16.72 407.44-12.20L407.44-12.20L407.44 0L403.60 0L403.60-11.76Q403.60-14.84 402.12-16.40Q400.64-17.96 397.88-17.96L397.88-17.96Q394.76-17.96 392.96-16.14Q391.16-14.32 391.16-10.92L391.16-10.92L391.16 0L387.32 0L387.32-21.20L391.00-21.20L391.00-18Q392.16-19.64 394.14-20.52Q396.12-21.40 398.64-21.40L398.64-21.40Z M426.48-4L427.68-1.24Q426.84-0.52 425.60-0.14Q424.36 0.24 423.04 0.24L423.04 0.24Q419.84 0.24 418.08-1.48Q416.32-3.20 416.32-6.40L416.32-6.40L416.32-18.04L412.72-18.04L412.72-21.20L416.32-21.20L416.32-25.84L420.16-25.84L420.16-21.20L426.24-21.20L426.24-18.04L420.16-18.04L420.16-6.56Q420.16-4.84 421.02-3.92Q421.88-3 423.48-3L423.48-3Q425.24-3 426.48-4L426.48-4Z M451.96-10.48Q451.96-10.04 451.88-9.32L451.88-9.32L434.68-9.32Q435.04-6.52 437.14-4.82Q439.24-3.12 442.36-3.12L442.36-3.12Q446.16-3.12 448.48-5.68L448.48-5.68L450.60-3.20Q449.16-1.52 447.02-0.64Q444.88 0.24 442.24 0.24L442.24 0.24Q438.88 0.24 436.28-1.14Q433.68-2.52 432.26-5Q430.84-7.48 430.84-10.60L430.84-10.60Q430.84-13.68 432.22-16.16Q433.60-18.64 436.02-20.02Q438.44-21.40 441.48-21.40L441.48-21.40Q444.52-21.40 446.90-20.02Q449.28-18.64 450.62-16.16Q451.96-13.68 451.96-10.48L451.96-10.48ZM441.48-18.16Q438.72-18.16 436.86-16.48Q435.00-14.80 434.68-12.08L434.68-12.08L448.28-12.08Q447.96-14.76 446.10-16.46Q444.24-18.16 441.48-18.16L441.48-18.16Z M462.16-17.64Q463.16-19.48 465.12-20.44Q467.08-21.40 469.88-21.40L469.88-21.40L469.88-17.68Q469.56-17.72 469.00-17.72L469.00-17.72Q465.88-17.72 464.10-15.86Q462.32-14 462.32-10.56L462.32-10.56L462.32 0L458.48 0L458.48-21.20L462.16-21.20L462.16-17.64Z M483.48-21.40Q487.88-21.40 490.22-19.24Q492.56-17.08 492.56-12.80L492.56-12.80L492.56 0L488.92 0L488.92-2.80Q487.96-1.32 486.18-0.54Q484.40 0.24 481.96 0.24L481.96 0.24Q478.40 0.24 476.26-1.48Q474.12-3.20 474.12-6L474.12-6Q474.12-8.80 476.16-10.50Q478.20-12.20 482.64-12.20L482.64-12.20L488.72-12.20L488.72-12.96Q488.72-15.44 487.28-16.76Q485.84-18.08 483.04-18.08L483.04-18.08Q481.16-18.08 479.36-17.46Q477.56-16.84 476.32-15.80L476.32-15.80L474.72-18.68Q476.36-20 478.64-20.70Q480.92-21.40 483.48-21.40L483.48-21.40ZM482.60-2.72Q484.80-2.72 486.40-3.70Q488.00-4.68 488.72-6.48L488.72-6.48L488.72-9.44L482.80-9.44Q477.92-9.44 477.92-6.16L477.92-6.16Q477.92-4.56 479.16-3.64Q480.40-2.72 482.60-2.72L482.60-2.72Z M506.96 0.24Q504.36 0.24 501.96-0.46Q499.56-1.16 498.20-2.24L498.20-2.24L499.80-5.28Q501.20-4.28 503.20-3.68Q505.20-3.08 507.24-3.08L507.24-3.08Q512.28-3.08 512.28-5.96L512.28-5.96Q512.28-6.92 511.60-7.48Q510.92-8.04 509.90-8.30Q508.88-8.56 507.00-8.88L507.00-8.88Q504.44-9.28 502.82-9.80Q501.20-10.32 500.04-11.56Q498.88-12.80 498.88-15.04L498.88-15.04Q498.88-17.92 501.28-19.66Q503.68-21.40 507.72-21.40L507.72-21.40Q509.84-21.40 511.96-20.88Q514.08-20.36 515.44-19.48L515.44-19.48L513.80-16.44Q511.20-18.12 507.68-18.12L507.68-18.12Q505.24-18.12 503.96-17.32Q502.68-16.52 502.68-15.20L502.68-15.20Q502.68-14.16 503.40-13.56Q504.12-12.96 505.18-12.68Q506.24-12.40 508.16-12.04L508.16-12.04Q510.72-11.60 512.30-11.10Q513.88-10.60 515.00-9.40Q516.12-8.20 516.12-6.04L516.12-6.04Q516.12-3.16 513.66-1.46Q511.20 0.24 506.96 0.24L506.96 0.24Z"/></g>
</svg>
</g></svg></svg>