<svg version="1.1" preserveAspectRatio="none" xmlns="http://www.w3.org/2000/svg" width="500" height="500" viewBox="0 0 500 500"><rect width="100%" height="100%" fill="#FFFFFF" fill-opacity="1"/><svg viewBox="-20.7841 115.6056 472.8877 110" width="333" height="77.4602511336201" x="83.5px" y="211.2699px" xmlns="http://www.w3.org/2000/svg" xmlns:xlink="http://www.w3.org/1999/xlink" preserveAspectRatio="none"><defs></defs><style>.companyName {fill:#4D4D4D;fill-opacity:1;}.icon1 {fill:#FF834F;fill-opacity:1;}.icon2 {fill:#FF4949;fill-opacity:1;}.icon3 {fill:#FFAE78;fill-opacity:1;}.icon3-str {stroke:#FFAE78;stroke-opacity:1;}.shapeStroke-str {stroke:#313131;stroke-opacity:1;}.text {fill:#4D4D4D;fill-opacity:1;}</style><g opacity="1" transform="rotate(0 -20.7841 127.6056)">
<svg width="86.6412" height="86" x="-20.7841" y="127.6056" version="1.1" preserveAspectRatio="none" viewBox="11.80000114440918 12.245500564575195 77.1252670288086 76.55450439453125">
  <g transform="matrix(1 0 0 1 0 0)" class="icon1"><path d="M66.8,17.9C66.8,17.9,66.8,17.9,66.8,17.9L47.1,37.7l-11.7,0.2c0.8-0.8,3.4-3.9,2-8.9c-0.1-0.3-0.4-0.6-0.7-0.7  c-5.5-1.6-8.8,1.9-9,2.1L16.9,41.1c-0.4,0.4-0.4,1,0,1.4l6.2,6.2c0.2,0.2,0.5,0.3,0.7,0.3s0.5-0.1,0.7-0.3l0.6-0.6l5.8,5.8l-1.5,1.5  c-0.2,0.2-0.3,0.4-0.3,0.7s0.1,0.5,0.3,0.7l0.4,0.4l-2.3,2.3c-0.2,0.2-0.3,0.4-0.3,0.7s0.1,0.5,0.3,0.7l4.8,4.8l-6.6,6.6  c-0.4,0.4-0.4,1,0,1.4c0.2,0.2,0.5,0.3,0.7,0.3s0.5-0.1,0.7-0.3l6.6-6.6l1.6,1.6L21.3,82.8c-0.4,0.4-0.4,1,0,1.4  c0.2,0.2,0.5,0.3,0.7,0.3s0.5-0.1,0.7-0.3l14.1-14.1l3.5,3.5c0.2,0.2,0.5,0.3,0.7,0.3s0.5-0.1,0.7-0.3l2.3-2.3l0.4,0.4  c0.2,0.2,0.4,0.3,0.7,0.3s0.5-0.1,0.7-0.3l1.5-1.5l5.9,5.9l-0.6,0.6c-0.4,0.4-0.4,1,0,1.4l6.2,6.2c0.2,0.2,0.5,0.3,0.7,0.3  s0.5-0.1,0.7-0.3l10.7-10.7c0.3-0.3,3.7-3.6,2.1-9c-0.1-0.3-0.4-0.6-0.7-0.7c-5-1.4-8.1,1.2-8.9,2L63.6,54l19.6-19.6c0,0,0,0,0,0  c0.8-0.7,8.3-8,4.8-20.5c-0.1-0.3-0.4-0.6-0.7-0.7C74.9,9.6,67.4,17.3,66.8,17.9z M35.5,30c0.6,2.8-0.4,4.8-1.1,5.8l-4.7-4.7  C30.8,30.4,32.8,29.4,35.5,30z M19,41.8l9.3-9.3l4.8,4.8l-9.3,9.3L19,41.8z M26.5,46.7l6.8-6.8L45,39.7L32.3,52.4L26.5,46.7z   M41,71.5L29.6,60.2l1.6-1.6L42.6,70L41,71.5z M59.5,82.3l-4.8-4.8l9.3-9.3l4.8,4.8L59.5,82.3z M71.2,65.7c0.6,2.8-0.4,4.8-1.1,5.8  l-4.7-4.7C66.4,66.1,68.4,65.1,71.2,65.7z M61.4,67.9l-6.8,6.8l-5.9-5.9L61.6,56L61.4,67.9z M45.1,69.7L31.5,56.1l36-36l13.6,13.6  L45.1,69.7z M82.5,32.3L68.9,18.7c2-1.7,8.1-6.1,17.3-3.7C88.7,24.3,84.3,30.3,82.5,32.3z"></path><path d="M62.8,29.3c-2.5,2.5-2.5,6.6,0,9.1c1.3,1.3,2.9,1.9,4.6,1.9s3.3-0.6,4.6-1.9c1.2-1.2,1.9-2.8,1.9-4.6c0-1.7-0.7-3.3-1.9-4.6  c-1.2-1.2-2.8-1.9-4.6-1.9S64,28.1,62.8,29.3z M70.5,37c-0.8,0.8-2,1.3-3.1,1.3S65,37.8,64.2,37c-1.7-1.7-1.7-4.6,0-6.3  c1.7-1.7,4.6-1.7,6.3,0S72.2,35.2,70.5,37z"></path><path d="M65.2,32.7c0.4,0.4,1,0.4,1.4,0c0.4-0.4,1.2-0.4,1.6,0c0.2,0.2,0.5,0.3,0.7,0.3s0.5-0.1,0.7-0.3c0.4-0.4,0.4-1,0-1.4  c-1.2-1.2-3.2-1.2-4.4,0C64.8,31.7,64.8,32.3,65.2,32.7z"></path><path d="M26.1,68c0.3,0,0.5-0.1,0.7-0.3l2.1-2.1c0.4-0.4,0.4-1,0-1.4c-0.4-0.4-1-0.4-1.4,0l-2.1,2.1c-0.4,0.4-0.4,1,0,1.4  C25.6,67.9,25.9,68,26.1,68z"></path><path d="M12.8,87.4c0.3,0,0.5-0.1,0.7-0.3l10.9-10.9c0.4-0.4,0.4-1,0-1.4s-1-0.4-1.4,0L12.1,85.7c-0.4,0.4-0.4,1,0,1.4  C12.3,87.3,12.6,87.4,12.8,87.4z"></path><path d="M15.7,78.4c0.3,0,0.5-0.1,0.7-0.3l8-8c0.4-0.4,0.4-1,0-1.4s-1-0.4-1.4,0l-8,8c-0.4,0.4-0.4,1,0,1.4  C15.2,78.3,15.4,78.4,15.7,78.4z"></path><path d="M24.1,88.8c0.3,0,0.5-0.1,0.7-0.3l2.1-2.1c0.4-0.4,0.4-1,0-1.4s-1-0.4-1.4,0l-2.1,2.1c-0.4,0.4-0.4,1,0,1.4  C23.6,88.7,23.9,88.8,24.1,88.8z"></path><path d="M36,74.5l-8,8c-0.4,0.4-0.4,1,0,1.4c0.2,0.2,0.5,0.3,0.7,0.3s0.5-0.1,0.7-0.3l8-8c0.4-0.4,0.4-1,0-1.4S36.4,74.1,36,74.5z"></path></g>
</svg>
</g><g opacity="1" transform="rotate(0 99.8571 182.6056)">
<svg width="311.6205" height="16" x="99.8571" y="182.6056" version="1.1" preserveAspectRatio="none" viewBox="3.76 -29.96 588.96 30.240000000000002">
  <g transform="matrix(1 0 0 1 0 0)" class="text"><path id="id-6izo4zJp25" d="M34.40 0L29.48 0L29.44-18.56L20.24-3.20L17.92-3.20L8.72-18.32L8.72 0L3.76 0L3.76-28L8.04-28L19.16-9.44L30.08-28L34.36-28L34.40 0Z M53.64-21.60Q58.36-21.60 60.86-19.34Q63.36-17.08 63.36-12.52L63.36-12.52L63.36 0L58.64 0L58.64-2.60Q57.72-1.20 56.02-0.46Q54.32 0.28 51.92 0.28L51.92 0.28Q49.52 0.28 47.72-0.54Q45.92-1.36 44.94-2.82Q43.96-4.28 43.96-6.12L43.96-6.12Q43.96-9 46.10-10.74Q48.24-12.48 52.84-12.48L52.84-12.48L58.36-12.48L58.36-12.80Q58.36-15.04 57.02-16.24Q55.68-17.44 53.04-17.44L53.04-17.44Q51.24-17.44 49.50-16.88Q47.76-16.32 46.56-15.32L46.56-15.32L44.60-18.96Q46.28-20.24 48.64-20.92Q51-21.60 53.64-21.60L53.64-21.60ZM52.96-3.36Q54.84-3.36 56.30-4.22Q57.76-5.08 58.36-6.68L58.36-6.68L58.36-9.16L53.20-9.16Q48.88-9.16 48.88-6.32L48.88-6.32Q48.88-4.96 49.96-4.16Q51.04-3.36 52.96-3.36L52.96-3.36Z M80.36 0.28Q77.76 0.28 75.28-0.40Q72.80-1.08 71.32-2.12L71.32-2.12L73.24-5.92Q74.68-4.96 76.70-4.38Q78.72-3.80 80.68-3.80L80.68-3.80Q85.16-3.80 85.16-6.16L85.16-6.16Q85.16-7.28 84.02-7.72Q82.88-8.16 80.36-8.56L80.36-8.56Q77.72-8.96 76.06-9.48Q74.40-10 73.18-11.30Q71.96-12.60 71.96-14.92L71.96-14.92Q71.96-17.96 74.50-19.78Q77.04-21.60 81.36-21.60L81.36-21.60Q83.56-21.60 85.76-21.10Q87.96-20.60 89.36-19.76L89.36-19.76L87.44-15.96Q84.72-17.56 81.32-17.56L81.32-17.56Q79.12-17.56 77.98-16.90Q76.84-16.24 76.84-15.16L76.84-15.16Q76.84-13.96 78.06-13.46Q79.28-12.96 81.84-12.52L81.84-12.52Q84.40-12.12 86.04-11.60Q87.68-11.08 88.86-9.84Q90.04-8.60 90.04-6.32L90.04-6.32Q90.04-3.32 87.44-1.52Q84.84 0.28 80.36 0.28L80.36 0.28Z M121.56-21.60Q126.28-21.60 128.78-19.34Q131.28-17.08 131.28-12.52L131.28-12.52L131.28 0L126.56 0L126.56-2.60Q125.64-1.20 123.94-0.46Q122.24 0.28 119.84 0.28L119.84 0.28Q117.44 0.28 115.64-0.54Q113.84-1.36 112.86-2.82Q111.88-4.28 111.88-6.12L111.88-6.12Q111.88-9 114.02-10.74Q116.16-12.48 120.76-12.48L120.76-12.48L126.28-12.48L126.28-12.80Q126.28-15.04 124.94-16.24Q123.60-17.44 120.96-17.44L120.96-17.44Q119.16-17.44 117.42-16.88Q115.68-16.32 114.48-15.32L114.48-15.32L112.52-18.96Q114.20-20.24 116.56-20.92Q118.92-21.60 121.56-21.60L121.56-21.60ZM120.88-3.36Q122.76-3.36 124.22-4.22Q125.68-5.08 126.28-6.68L126.28-6.68L126.28-9.16L121.12-9.16Q116.80-9.16 116.80-6.32L116.80-6.32Q116.80-4.96 117.88-4.16Q118.96-3.36 120.88-3.36L120.88-3.36Z M141.68 0L141.68-29.68L146.68-29.68L146.68 0L141.68 0Z M157.24 0L157.24-29.68L162.24-29.68L162.24 0L157.24 0Z M180.96-21.60Q185.68-21.60 188.18-19.34Q190.68-17.08 190.68-12.52L190.68-12.52L190.68 0L185.96 0L185.96-2.60Q185.04-1.20 183.34-0.46Q181.64 0.28 179.24 0.28L179.24 0.28Q176.84 0.28 175.04-0.54Q173.24-1.36 172.26-2.82Q171.28-4.28 171.28-6.12L171.28-6.12Q171.28-9 173.42-10.74Q175.56-12.48 180.16-12.48L180.16-12.48L185.68-12.48L185.68-12.80Q185.68-15.04 184.34-16.24Q183.00-17.44 180.36-17.44L180.36-17.44Q178.56-17.44 176.82-16.88Q175.08-16.32 173.88-15.32L173.88-15.32L171.92-18.96Q173.60-20.24 175.96-20.92Q178.32-21.60 180.96-21.60L180.96-21.60ZM180.28-3.36Q182.16-3.36 183.62-4.22Q185.08-5.08 185.68-6.68L185.68-6.68L185.68-9.16L180.52-9.16Q176.20-9.16 176.20-6.32L176.20-6.32Q176.20-4.96 177.28-4.16Q178.36-3.36 180.28-3.36L180.28-3.36ZM178.04-24.28L183.44-29.76L189.32-29.76L182.36-24.28L178.04-24.28Z M232.04-29.68L237.04-29.68L237.04 0L232.24 0L232.24-2.76Q231.00-1.24 229.18-0.48Q227.36 0.28 225.16 0.28L225.16 0.28Q222.08 0.28 219.62-1.08Q217.16-2.44 215.76-4.94Q214.36-7.44 214.36-10.68L214.36-10.68Q214.36-13.92 215.76-16.40Q217.16-18.88 219.62-20.24Q222.08-21.60 225.16-21.60L225.16-21.60Q227.28-21.60 229.04-20.88Q230.80-20.16 232.04-18.72L232.04-18.72L232.04-29.68ZM225.76-4Q227.56-4 229.00-4.82Q230.44-5.64 231.28-7.16Q232.12-8.68 232.12-10.68L232.12-10.68Q232.12-12.68 231.28-14.20Q230.44-15.72 229.00-16.54Q227.56-17.36 225.76-17.36L225.76-17.36Q223.96-17.36 222.52-16.54Q221.08-15.72 220.24-14.20Q219.40-12.68 219.40-10.68L219.40-10.68Q219.40-8.68 220.24-7.16Q221.08-5.64 222.52-4.82Q223.96-4 225.76-4L225.76-4Z M267.68-10.56Q267.68-10.04 267.60-9.08L267.60-9.08L250.84-9.08Q251.28-6.72 253.14-5.34Q255.00-3.96 257.76-3.96L257.76-3.96Q261.28-3.96 263.56-6.28L263.56-6.28L266.24-3.20Q264.80-1.48 262.60-0.60Q260.40 0.28 257.64 0.28L257.64 0.28Q254.12 0.28 251.44-1.12Q248.76-2.52 247.30-5.02Q245.84-7.52 245.84-10.68L245.84-10.68Q245.84-13.80 247.26-16.30Q248.68-18.80 251.20-20.20Q253.72-21.60 256.88-21.60L256.88-21.60Q260-21.60 262.46-20.22Q264.92-18.84 266.30-16.34Q267.68-13.84 267.68-10.56L267.68-10.56ZM256.88-17.60Q254.48-17.60 252.82-16.18Q251.16-14.76 250.80-12.40L250.80-12.40L262.92-12.40Q262.60-14.72 260.96-16.16Q259.32-17.60 256.88-17.60L256.88-17.60Z M291.52 0L291.52-29.68L296.52-29.68L296.52 0L291.52 0Z M315.24-21.60Q319.96-21.60 322.46-19.34Q324.96-17.08 324.96-12.52L324.96-12.52L324.96 0L320.24 0L320.24-2.60Q319.32-1.20 317.62-0.46Q315.92 0.28 313.52 0.28L313.52 0.28Q311.12 0.28 309.32-0.54Q307.52-1.36 306.54-2.82Q305.56-4.28 305.56-6.12L305.56-6.12Q305.56-9 307.70-10.74Q309.84-12.48 314.44-12.48L314.44-12.48L319.96-12.48L319.96-12.80Q319.96-15.04 318.62-16.24Q317.28-17.44 314.64-17.44L314.64-17.44Q312.84-17.44 311.10-16.88Q309.36-16.32 308.16-15.32L308.16-15.32L306.20-18.96Q307.88-20.24 310.24-20.92Q312.60-21.60 315.24-21.60L315.24-21.60ZM314.56-3.36Q316.44-3.36 317.90-4.22Q319.36-5.08 319.96-6.68L319.96-6.68L319.96-9.16L314.80-9.16Q310.48-9.16 310.48-6.32L310.48-6.32Q310.48-4.96 311.56-4.16Q312.64-3.36 314.56-3.36L314.56-3.36Z M341.96 0.28Q339.36 0.28 336.88-0.40Q334.40-1.08 332.92-2.12L332.92-2.12L334.84-5.92Q336.28-4.96 338.30-4.38Q340.32-3.80 342.28-3.80L342.28-3.80Q346.76-3.80 346.76-6.16L346.76-6.16Q346.76-7.28 345.62-7.72Q344.48-8.16 341.96-8.56L341.96-8.56Q339.32-8.96 337.66-9.48Q336.00-10 334.78-11.30Q333.56-12.60 333.56-14.92L333.56-14.92Q333.56-17.96 336.10-19.78Q338.64-21.60 342.96-21.60L342.96-21.60Q345.16-21.60 347.36-21.10Q349.56-20.60 350.96-19.76L350.96-19.76L349.04-15.96Q346.32-17.56 342.92-17.56L342.92-17.56Q340.72-17.56 339.58-16.90Q338.44-16.24 338.44-15.16L338.44-15.16Q338.44-13.96 339.66-13.46Q340.88-12.96 343.44-12.52L343.44-12.52Q346.00-12.12 347.64-11.60Q349.28-11.08 350.46-9.84Q351.64-8.60 351.64-6.32L351.64-6.32Q351.64-3.32 349.04-1.52Q346.44 0.28 341.96 0.28L341.96 0.28Z M383.68-25.92Q380.52-25.92 380.52-22.48L380.52-22.48L380.52-21.20L386.40-21.20L386.40-17.20L380.68-17.20L380.68 0L375.68 0L375.68-17.20L372.16-17.20L372.16-21.20L375.68-21.20L375.68-22.56Q375.68-26 377.68-27.98Q379.68-29.96 383.32-29.96L383.32-29.96Q386.20-29.96 387.84-28.80L387.84-28.80L386.44-25.04Q385.16-25.92 383.68-25.92L383.68-25.92Z M401.72-18.24Q403.88-21.60 409.32-21.60L409.32-21.60L409.32-16.84Q408.68-16.96 408.16-16.96L408.16-16.96Q405.24-16.96 403.60-15.26Q401.96-13.56 401.96-10.36L401.96-10.36L401.96 0L396.96 0L396.96-21.36L401.72-21.36L401.72-18.24Z M426.96 0.28Q423.72 0.28 421.12-1.12Q418.52-2.52 417.06-5.02Q415.60-7.52 415.60-10.68L415.60-10.68Q415.60-13.84 417.06-16.32Q418.52-18.80 421.12-20.20Q423.72-21.60 426.96-21.60L426.96-21.60Q430.24-21.60 432.84-20.20Q435.44-18.80 436.90-16.32Q438.36-13.84 438.36-10.68L438.36-10.68Q438.36-7.52 436.90-5.02Q435.44-2.52 432.84-1.12Q430.24 0.28 426.96 0.28L426.96 0.28ZM426.96-4Q429.72-4 431.52-5.84Q433.32-7.68 433.32-10.68L433.32-10.68Q433.32-13.68 431.52-15.52Q429.72-17.36 426.96-17.36L426.96-17.36Q424.20-17.36 422.42-15.52Q420.64-13.68 420.64-10.68L420.64-10.68Q420.64-7.68 422.42-5.84Q424.20-4 426.96-4L426.96-4Z M459.28-21.60Q463.32-21.60 465.76-19.24Q468.20-16.88 468.20-12.24L468.20-12.24L468.20 0L463.20 0L463.20-11.60Q463.20-14.40 461.88-15.82Q460.56-17.24 458.12-17.24L458.12-17.24Q455.36-17.24 453.76-15.58Q452.16-13.92 452.16-10.80L452.16-10.80L452.16 0L447.16 0L447.16-21.36L451.92-21.36L451.92-18.60Q453.16-20.08 455.04-20.84Q456.92-21.60 459.28-21.60L459.28-21.60Z M490.00-4.72L491.40-1.16Q490.52-0.44 489.26-0.08Q488.00 0.28 486.60 0.28L486.60 0.28Q483.08 0.28 481.16-1.56Q479.24-3.40 479.24-6.92L479.24-6.92L479.24-17.20L475.72-17.20L475.72-21.20L479.24-21.20L479.24-26.08L484.24-26.08L484.24-21.20L489.96-21.20L489.96-17.20L484.24-17.20L484.24-7.04Q484.24-5.48 485.00-4.66Q485.76-3.84 487.20-3.84L487.20-3.84Q488.88-3.84 490.00-4.72L490.00-4.72Z M518.88-10.56Q518.88-10.04 518.80-9.08L518.80-9.08L502.04-9.08Q502.48-6.72 504.34-5.34Q506.20-3.96 508.96-3.96L508.96-3.96Q512.48-3.96 514.76-6.28L514.76-6.28L517.44-3.20Q516-1.48 513.80-0.60Q511.60 0.28 508.84 0.28L508.84 0.28Q505.32 0.28 502.64-1.12Q499.96-2.52 498.50-5.02Q497.04-7.52 497.04-10.68L497.04-10.68Q497.04-13.80 498.46-16.30Q499.88-18.80 502.40-20.20Q504.92-21.60 508.08-21.60L508.08-21.60Q511.20-21.60 513.66-20.22Q516.12-18.84 517.50-16.34Q518.88-13.84 518.88-10.56L518.88-10.56ZM508.08-17.60Q505.68-17.60 504.02-16.18Q502.36-14.76 502.00-12.40L502.00-12.40L514.12-12.40Q513.80-14.72 512.16-16.16Q510.52-17.60 508.08-17.60L508.08-17.60Z M532.44-18.24Q534.60-21.60 540.04-21.60L540.04-21.60L540.04-16.84Q539.40-16.96 538.88-16.96L538.88-16.96Q535.96-16.96 534.32-15.26Q532.68-13.56 532.68-10.36L532.68-10.36L532.68 0L527.68 0L527.68-21.36L532.44-21.36L532.44-18.24Z M556.32-21.60Q561.04-21.60 563.54-19.34Q566.04-17.08 566.04-12.52L566.04-12.52L566.04 0L561.32 0L561.32-2.60Q560.40-1.20 558.70-0.46Q557 0.28 554.60 0.28L554.60 0.28Q552.20 0.28 550.40-0.54Q548.60-1.36 547.62-2.82Q546.64-4.28 546.64-6.12L546.64-6.12Q546.64-9 548.78-10.74Q550.92-12.48 555.52-12.48L555.52-12.48L561.04-12.48L561.04-12.80Q561.04-15.04 559.70-16.24Q558.36-17.44 555.72-17.44L555.72-17.44Q553.92-17.44 552.18-16.88Q550.44-16.32 549.24-15.32L549.24-15.32L547.28-18.96Q548.96-20.24 551.32-20.92Q553.68-21.60 556.32-21.60L556.32-21.60ZM555.64-3.36Q557.52-3.36 558.98-4.22Q560.44-5.08 561.04-6.68L561.04-6.68L561.04-9.16L555.88-9.16Q551.56-9.16 551.56-6.32L551.56-6.32Q551.56-4.96 552.64-4.16Q553.72-3.36 555.64-3.36L555.64-3.36Z M583.04 0.28Q580.44 0.28 577.96-0.40Q575.48-1.08 574-2.12L574-2.12L575.92-5.92Q577.36-4.96 579.38-4.38Q581.40-3.80 583.36-3.80L583.36-3.80Q587.84-3.80 587.84-6.16L587.84-6.16Q587.84-7.28 586.70-7.72Q585.56-8.16 583.04-8.56L583.04-8.56Q580.40-8.96 578.74-9.48Q577.08-10 575.86-11.30Q574.64-12.60 574.64-14.92L574.64-14.92Q574.64-17.96 577.18-19.78Q579.72-21.60 584.04-21.60L584.04-21.60Q586.24-21.60 588.44-21.10Q590.64-20.60 592.04-19.76L592.04-19.76L590.12-15.96Q587.40-17.56 584-17.56L584-17.56Q581.80-17.56 580.66-16.90Q579.52-16.24 579.52-15.16L579.52-15.16Q579.52-13.96 580.74-13.46Q581.96-12.96 584.52-12.52L584.52-12.52Q587.08-12.12 588.72-11.60Q590.36-11.08 591.54-9.84Q592.72-8.60 592.72-6.32L592.72-6.32Q592.72-3.32 590.12-1.52Q587.52 0.28 583.04 0.28L583.04 0.28Z"/></g>
</svg>
</g><g opacity="1" transform="rotate(0 99.8571 142.6056)">
<svg width="352.2465" height="28" x="99.8571" y="142.6056" version="1.1" preserveAspectRatio="none" viewBox="3.32 -31.48 400.04 31.8">
  <g transform="matrix(1 0 0 1 0 0)" class="companyName"><path id="id-D6z1nYkh18" d="M22.60-28L29-28L29 0L23.68 0L9.72-17L9.72 0L3.32 0L3.32-28L8.68-28L22.60-11L22.60-28Z M56.28-10.68Q56.28-10.56 56.16-9L56.16-9L39.88-9Q40.32-7 41.96-5.84Q43.60-4.68 46.04-4.68L46.04-4.68Q47.72-4.68 49.02-5.18Q50.32-5.68 51.44-6.76L51.44-6.76L54.76-3.16Q51.72 0.32 45.88 0.32L45.88 0.32Q42.24 0.32 39.44-1.10Q36.64-2.52 35.12-5.04Q33.60-7.56 33.60-10.76L33.60-10.76Q33.60-13.92 35.10-16.46Q36.60-19 39.22-20.42Q41.84-21.84 45.08-21.84L45.08-21.84Q48.24-21.84 50.80-20.48Q53.36-19.12 54.82-16.58Q56.28-14.04 56.28-10.68L56.28-10.68ZM45.12-17.12Q43-17.12 41.56-15.92Q40.12-14.72 39.80-12.64L39.80-12.64L50.40-12.64Q50.08-14.68 48.64-15.90Q47.20-17.12 45.12-17.12L45.12-17.12Z M89.08-21.52L94.60-21.52L86.80 0L80.80 0L75.96-13.36L70.96 0L64.96 0L57.20-21.52L63.08-21.52L68.16-6.96L73.44-21.52L78.72-21.52L83.84-6.96L89.08-21.52Z M128.48-28L134.96-28L134.96 0L128.48 0L128.48-11.48L115.76-11.48L115.76 0L109.28 0L109.28-28L115.76-28L115.76-16.96L128.48-16.96L128.48-28Z M151.40 0.32Q148 0.32 145.30-1.10Q142.60-2.52 141.08-5.04Q139.56-7.56 139.56-10.76L139.56-10.76Q139.56-13.96 141.08-16.48Q142.60-19 145.30-20.42Q148-21.84 151.40-21.84L151.40-21.84Q154.80-21.84 157.48-20.42Q160.16-19 161.68-16.48Q163.20-13.96 163.20-10.76L163.20-10.76Q163.20-7.56 161.68-5.04Q160.16-2.52 157.48-1.10Q154.80 0.32 151.40 0.32L151.40 0.32ZM151.40-4.80Q153.80-4.80 155.34-6.42Q156.88-8.04 156.88-10.76L156.88-10.76Q156.88-13.48 155.34-15.10Q153.80-16.72 151.40-16.72L151.40-16.72Q149-16.72 147.44-15.10Q145.88-13.48 145.88-10.76L145.88-10.76Q145.88-8.04 147.44-6.42Q149-4.80 151.40-4.80L151.40-4.80Z M173.32-18.68Q174.44-20.24 176.34-21.04Q178.24-21.84 180.72-21.84L180.72-21.84L180.72-16.08Q179.68-16.16 179.32-16.16L179.32-16.16Q176.64-16.16 175.12-14.66Q173.60-13.16 173.60-10.16L173.60-10.16L173.60 0L167.36 0L167.36-21.52L173.32-21.52L173.32-18.68Z M184.44 0L184.44-21.52L190.68-21.52L190.68 0L184.44 0ZM187.56-24.52Q185.84-24.52 184.76-25.52Q183.68-26.52 183.68-28L183.68-28Q183.68-29.48 184.76-30.48Q185.84-31.48 187.56-31.48L187.56-31.48Q189.28-31.48 190.36-30.52Q191.44-29.56 191.44-28.12L191.44-28.12Q191.44-26.56 190.36-25.54Q189.28-24.52 187.56-24.52L187.56-24.52Z M202.88-4.80L214.20-4.80L214.20 0L195 0L195-3.76L205.96-16.72L195.28-16.72L195.28-21.52L213.84-21.52L213.84-17.76L202.88-4.80Z M228.16 0.32Q224.76 0.32 222.06-1.10Q219.36-2.52 217.84-5.04Q216.32-7.56 216.32-10.76L216.32-10.76Q216.32-13.96 217.84-16.48Q219.36-19 222.06-20.42Q224.76-21.84 228.16-21.84L228.16-21.84Q231.56-21.84 234.24-20.42Q236.92-19 238.44-16.48Q239.96-13.96 239.96-10.76L239.96-10.76Q239.96-7.56 238.44-5.04Q236.92-2.52 234.24-1.10Q231.56 0.32 228.16 0.32L228.16 0.32ZM228.16-4.80Q230.56-4.80 232.10-6.42Q233.64-8.04 233.64-10.76L233.64-10.76Q233.64-13.48 232.10-15.10Q230.56-16.72 228.16-16.72L228.16-16.72Q225.76-16.72 224.20-15.10Q222.64-13.48 222.64-10.76L222.64-10.76Q222.64-8.04 224.20-6.42Q225.76-4.80 228.16-4.80L228.16-4.80Z M257.20-21.84Q261.20-21.84 263.66-19.44Q266.12-17.04 266.12-12.32L266.12-12.32L266.12 0L259.88 0L259.88-11.36Q259.88-13.92 258.76-15.18Q257.64-16.44 255.52-16.44L255.52-16.44Q253.16-16.44 251.76-14.98Q250.36-13.52 250.36-10.64L250.36-10.64L250.36 0L244.12 0L244.12-21.52L250.08-21.52L250.08-19Q251.32-20.36 253.16-21.10Q255.00-21.84 257.20-21.84L257.20-21.84Z M289.32 0L289.32-22.72L280.36-22.72L280.36-28L304.76-28L304.76-22.72L295.80-22.72L295.80 0L289.32 0Z M313.28-18.68Q314.40-20.24 316.30-21.04Q318.20-21.84 320.68-21.84L320.68-21.84L320.68-16.08Q319.64-16.16 319.28-16.16L319.28-16.16Q316.60-16.16 315.08-14.66Q313.56-13.16 313.56-10.16L313.56-10.16L313.56 0L307.32 0L307.32-21.52L313.28-21.52L313.28-18.68Z M332.96-21.84Q337.96-21.84 340.64-19.46Q343.32-17.08 343.32-12.28L343.32-12.28L343.32 0L337.48 0L337.48-2.68Q335.72 0.32 330.92 0.32L330.92 0.32Q328.44 0.32 326.62-0.52Q324.80-1.36 323.84-2.84Q322.88-4.32 322.88-6.20L322.88-6.20Q322.88-9.20 325.14-10.92Q327.40-12.64 332.12-12.64L332.12-12.64L337.08-12.64Q337.08-14.68 335.84-15.78Q334.60-16.88 332.12-16.88L332.12-16.88Q330.40-16.88 328.74-16.34Q327.08-15.80 325.92-14.88L325.92-14.88L323.68-19.24Q325.44-20.48 327.90-21.16Q330.36-21.84 332.96-21.84L332.96-21.84ZM332.48-3.88Q334.08-3.88 335.32-4.62Q336.56-5.36 337.08-6.80L337.08-6.80L337.08-9L332.80-9Q328.96-9 328.96-6.48L328.96-6.48Q328.96-5.28 329.90-4.58Q330.84-3.88 332.48-3.88L332.48-3.88Z M363.92-21.52L369.92-21.52L360.84 0L354.40 0L345.36-21.52L351.80-21.52L357.76-6.88L363.92-21.52Z M392.96-10.68Q392.96-10.56 392.84-9L392.84-9L376.56-9Q377-7 378.64-5.84Q380.28-4.68 382.72-4.68L382.72-4.68Q384.40-4.68 385.70-5.18Q387-5.68 388.12-6.76L388.12-6.76L391.44-3.16Q388.40 0.32 382.56 0.32L382.56 0.32Q378.92 0.32 376.12-1.10Q373.32-2.52 371.80-5.04Q370.28-7.56 370.28-10.76L370.28-10.76Q370.28-13.92 371.78-16.46Q373.28-19 375.90-20.42Q378.52-21.84 381.76-21.84L381.76-21.84Q384.92-21.84 387.48-20.48Q390.04-19.12 391.50-16.58Q392.96-14.04 392.96-10.68L392.96-10.68ZM381.80-17.12Q379.68-17.12 378.24-15.92Q376.80-14.72 376.48-12.64L376.48-12.64L387.08-12.64Q386.76-14.68 385.32-15.90Q383.88-17.12 381.80-17.12L381.80-17.12Z M397.12 0L397.12-29.68L403.36-29.68L403.36 0L397.12 0Z"/></g>
</svg>
</g><g opacity="1" transform="rotate(0 79.8571 115.6056)">
<svg width="4" height="110" x="79.8571" y="115.6056" version="1.1" preserveAspectRatio="none" viewBox="0 0 4 110">
  <defs><rect x="0" y="0" width="4" height="110" rx="0px" ry="0px" id="id-tBXipXk0b1674869366093"></rect></defs><use class="companyName shapeStroke-str" style="stroke-width:0;" xlink:href="#id-tBXipXk0b1674869366093"></use>
</svg>
</g></svg></svg>