<svg version="1.1" preserveAspectRatio="none" xmlns="http://www.w3.org/2000/svg" width="500" height="500" viewBox="0 0 500 500"><rect width="100%" height="100%" fill="#EFFFE0" fill-opacity="1"/><svg viewBox="-34.7406 -4.5991 389.1008 264.4885" width="333" height="226.35438040733916" x="83.5px" y="136.8228px" xmlns="http://www.w3.org/2000/svg" xmlns:xlink="http://www.w3.org/1999/xlink" preserveAspectRatio="none"><defs></defs><style>.companyName {fill:#313131;fill-opacity:1;}.icon1 {fill:#313131;fill-opacity:1;}.icon2 {fill:#C2EF7E;fill-opacity:1;}.icon3 {fill:#6B7D3B;fill-opacity:1;}.icon3-str {stroke:#6B7D3B;stroke-opacity:1;}.text {fill:#313131;fill-opacity:1;}</style><g opacity="1" transform="rotate(0 16.863 241.8894)">
<svg width="285.8935" height="18" x="16.863" y="241.8894" version="1.1" preserveAspectRatio="none" viewBox="3.48 -29.46 472.94 29.78">
  <g transform="matrix(1 0 0 1 0 0)" class="text"><path id="id-6izo4zJp25" d="M17.58-10.36L17.58-10.36Q17.86-9.88 18.07-9.35Q18.28-8.82 18.48-8.28L18.48-8.28Q18.68-8.84 18.90-9.35Q19.12-9.86 19.40-10.38L19.40-10.38L29.10-28Q29.36-28.46 29.64-28.56Q29.92-28.66 30.44-28.66L30.44-28.66L33.30-28.66L33.30 0L29.90 0L29.90-21.06Q29.90-21.48 29.92-21.96Q29.94-22.44 29.98-22.94L29.98-22.94L20.16-5.02Q19.66-4.12 18.76-4.12L18.76-4.12L18.20-4.12Q17.30-4.12 16.80-5.02L16.80-5.02L6.76-23Q6.82-22.48 6.85-21.98Q6.88-21.48 6.88-21.06L6.88-21.06L6.88 0L3.48 0L3.48-28.66L6.34-28.66Q6.86-28.66 7.14-28.56Q7.42-28.46 7.68-28L7.68-28L17.58-10.36Z M57-12.96L57 0L55.42 0Q54.90 0 54.58-0.16Q54.26-0.32 54.16-0.84L54.16-0.84L53.76-2.72Q52.96-2 52.20-1.43Q51.44-0.86 50.60-0.47Q49.76-0.08 48.81 0.12Q47.86 0.32 46.70 0.32L46.70 0.32Q45.52 0.32 44.49-0.01Q43.46-0.34 42.70-1Q41.94-1.66 41.49-2.67Q41.04-3.68 41.04-5.06L41.04-5.06Q41.04-6.26 41.70-7.37Q42.36-8.48 43.83-9.34Q45.30-10.20 47.68-10.75Q50.06-11.30 53.50-11.38L53.50-11.38L53.50-12.96Q53.50-15.32 52.49-16.53Q51.48-17.74 49.50-17.74L49.50-17.74Q48.20-17.74 47.31-17.41Q46.42-17.08 45.77-16.67Q45.12-16.26 44.65-15.93Q44.18-15.60 43.72-15.60L43.72-15.60Q43.36-15.60 43.09-15.79Q42.82-15.98 42.66-16.26L42.66-16.26L42.02-17.40Q43.70-19.02 45.64-19.82Q47.58-20.62 49.94-20.62L49.94-20.62Q51.64-20.62 52.96-20.06Q54.28-19.50 55.18-18.50Q56.08-17.50 56.54-16.08Q57-14.66 57-12.96L57-12.96ZM47.76-2.18L47.76-2.18Q48.70-2.18 49.48-2.37Q50.26-2.56 50.95-2.91Q51.64-3.26 52.27-3.76Q52.90-4.26 53.50-4.90L53.50-4.90L53.50-9.12Q51.04-9.04 49.32-8.73Q47.60-8.42 46.52-7.92Q45.44-7.42 44.95-6.74Q44.46-6.06 44.46-5.22L44.46-5.22Q44.46-4.42 44.72-3.84Q44.98-3.26 45.42-2.89Q45.86-2.52 46.46-2.35Q47.06-2.18 47.76-2.18Z M77.20-18.22L76.40-16.92Q76.16-16.48 75.66-16.48L75.66-16.48Q75.36-16.48 74.98-16.70Q74.60-16.92 74.05-17.19Q73.50-17.46 72.74-17.69Q71.98-17.92 70.94-17.92L70.94-17.92Q70.04-17.92 69.32-17.69Q68.60-17.46 68.09-17.06Q67.58-16.66 67.31-16.13Q67.04-15.60 67.04-14.98L67.04-14.98Q67.04-14.20 67.49-13.68Q67.94-13.16 68.68-12.78Q69.42-12.40 70.36-12.11Q71.30-11.82 72.29-11.49Q73.28-11.16 74.22-10.76Q75.16-10.36 75.90-9.76Q76.64-9.16 77.09-8.29Q77.54-7.42 77.54-6.20L77.54-6.20Q77.54-4.80 77.04-3.61Q76.54-2.42 75.56-1.55Q74.58-0.68 73.16-0.18Q71.74 0.32 69.88 0.32L69.88 0.32Q67.76 0.32 66.04-0.37Q64.32-1.06 63.12-2.14L63.12-2.14L63.96-3.50Q64.12-3.76 64.34-3.90Q64.56-4.04 64.92-4.04L64.92-4.04Q65.28-4.04 65.68-3.76Q66.08-3.48 66.65-3.14Q67.22-2.80 68.03-2.52Q68.84-2.24 70.06-2.24L70.06-2.24Q71.10-2.24 71.88-2.51Q72.66-2.78 73.18-3.24Q73.70-3.70 73.95-4.30Q74.20-4.90 74.20-5.58L74.20-5.58Q74.20-6.42 73.75-6.97Q73.30-7.52 72.56-7.91Q71.82-8.30 70.87-8.59Q69.92-8.88 68.93-9.20Q67.94-9.52 66.99-9.93Q66.04-10.34 65.30-10.96Q64.56-11.58 64.11-12.49Q63.66-13.40 63.66-14.70L63.66-14.70Q63.66-15.86 64.14-16.93Q64.62-18 65.54-18.81Q66.46-19.62 67.80-20.10Q69.14-20.58 70.86-20.58L70.86-20.58Q72.86-20.58 74.45-19.95Q76.04-19.32 77.20-18.22L77.20-18.22Z M109.56-12.96L109.56 0L107.98 0Q107.46 0 107.14-0.16Q106.82-0.32 106.72-0.84L106.72-0.84L106.32-2.72Q105.52-2 104.76-1.43Q104.00-0.86 103.16-0.47Q102.32-0.08 101.37 0.12Q100.42 0.32 99.26 0.32L99.26 0.32Q98.08 0.32 97.05-0.01Q96.02-0.34 95.26-1Q94.50-1.66 94.05-2.67Q93.60-3.68 93.60-5.06L93.60-5.06Q93.60-6.26 94.26-7.37Q94.92-8.48 96.39-9.34Q97.86-10.20 100.24-10.75Q102.62-11.30 106.06-11.38L106.06-11.38L106.06-12.96Q106.06-15.32 105.05-16.53Q104.04-17.74 102.06-17.74L102.06-17.74Q100.76-17.74 99.87-17.41Q98.98-17.08 98.33-16.67Q97.68-16.26 97.21-15.93Q96.74-15.60 96.28-15.60L96.28-15.60Q95.92-15.60 95.65-15.79Q95.38-15.98 95.22-16.26L95.22-16.26L94.58-17.40Q96.26-19.02 98.20-19.82Q100.14-20.62 102.50-20.62L102.50-20.62Q104.20-20.62 105.52-20.06Q106.84-19.50 107.74-18.50Q108.64-17.50 109.10-16.08Q109.56-14.66 109.56-12.96L109.56-12.96ZM100.32-2.18L100.32-2.18Q101.26-2.18 102.04-2.37Q102.82-2.56 103.51-2.91Q104.20-3.26 104.83-3.76Q105.46-4.26 106.06-4.90L106.06-4.90L106.06-9.12Q103.60-9.04 101.88-8.73Q100.16-8.42 99.08-7.92Q98.00-7.42 97.51-6.74Q97.02-6.06 97.02-5.22L97.02-5.22Q97.02-4.42 97.28-3.84Q97.54-3.26 97.98-2.89Q98.42-2.52 99.02-2.35Q99.62-2.18 100.32-2.18Z M117.76-29.46L121.32-29.46L121.32 0L117.76 0L117.76-29.46Z M130.40-29.46L133.96-29.46L133.96 0L130.40 0L130.40-29.46Z M157.52-12.96L157.52 0L155.94 0Q155.42 0 155.10-0.16Q154.78-0.32 154.68-0.84L154.68-0.84L154.28-2.72Q153.48-2 152.72-1.43Q151.96-0.86 151.12-0.47Q150.28-0.08 149.33 0.12Q148.38 0.32 147.22 0.32L147.22 0.32Q146.04 0.32 145.01-0.01Q143.98-0.34 143.22-1Q142.46-1.66 142.01-2.67Q141.56-3.68 141.56-5.06L141.56-5.06Q141.56-6.26 142.22-7.37Q142.88-8.48 144.35-9.34Q145.82-10.20 148.20-10.75Q150.58-11.30 154.02-11.38L154.02-11.38L154.02-12.96Q154.02-15.32 153.01-16.53Q152.00-17.74 150.02-17.74L150.02-17.74Q148.72-17.74 147.83-17.41Q146.94-17.08 146.29-16.67Q145.64-16.26 145.17-15.93Q144.70-15.60 144.24-15.60L144.24-15.60Q143.88-15.60 143.61-15.79Q143.34-15.98 143.18-16.26L143.18-16.26L142.54-17.40Q144.22-19.02 146.16-19.82Q148.10-20.62 150.46-20.62L150.46-20.62Q152.16-20.62 153.48-20.06Q154.80-19.50 155.70-18.50Q156.60-17.50 157.06-16.08Q157.52-14.66 157.52-12.96L157.52-12.96ZM148.28-2.18L148.28-2.18Q149.22-2.18 150.00-2.37Q150.78-2.56 151.47-2.91Q152.16-3.26 152.79-3.76Q153.42-4.26 154.02-4.90L154.02-4.90L154.02-9.12Q151.56-9.04 149.84-8.73Q148.12-8.42 147.04-7.92Q145.96-7.42 145.47-6.74Q144.98-6.06 144.98-5.22L144.98-5.22Q144.98-4.42 145.24-3.84Q145.50-3.26 145.94-2.89Q146.38-2.52 146.98-2.35Q147.58-2.18 148.28-2.18ZM152.60-28.98L156.08-28.98L151.42-23.82Q151.14-23.52 150.87-23.39Q150.60-23.26 150.18-23.26L150.18-23.26L148.06-23.26L151.02-28.10Q151.30-28.56 151.63-28.77Q151.96-28.98 152.60-28.98L152.60-28.98Z M191.82 0L189.70 0Q188.94 0 188.74-0.74L188.74-0.74L188.42-3.20Q187.12-1.62 185.45-0.67Q183.78 0.28 181.62 0.28L181.62 0.28Q179.88 0.28 178.46-0.39Q177.04-1.06 176.04-2.36Q175.04-3.66 174.50-5.60Q173.96-7.54 173.96-10.06L173.96-10.06Q173.96-12.30 174.56-14.23Q175.16-16.16 176.29-17.58Q177.42-19 179.04-19.81Q180.66-20.62 182.72-20.62L182.72-20.62Q184.58-20.62 185.90-19.99Q187.22-19.36 188.26-18.22L188.26-18.22L188.26-29.46L191.82-29.46L191.82 0ZM182.80-2.60L182.80-2.60Q184.54-2.60 185.85-3.40Q187.16-4.20 188.26-5.66L188.26-5.66L188.26-15.46Q187.28-16.78 186.11-17.31Q184.94-17.84 183.52-17.84L183.52-17.84Q180.68-17.84 179.16-15.82Q177.64-13.80 177.64-10.06L177.64-10.06Q177.64-8.08 177.98-6.67Q178.32-5.26 178.98-4.35Q179.64-3.44 180.60-3.02Q181.56-2.60 182.80-2.60Z M208.22-20.58L208.22-20.58Q210.04-20.58 211.58-19.97Q213.12-19.36 214.24-18.21Q215.36-17.06 215.99-15.37Q216.62-13.68 216.62-11.52L216.62-11.52Q216.62-10.68 216.44-10.40Q216.26-10.12 215.76-10.12L215.76-10.12L202.28-10.12Q202.32-8.20 202.80-6.78Q203.28-5.36 204.12-4.41Q204.96-3.46 206.12-2.99Q207.28-2.52 208.72-2.52L208.72-2.52Q210.06-2.52 211.03-2.83Q212.00-3.14 212.70-3.50Q213.40-3.86 213.87-4.17Q214.34-4.48 214.68-4.48L214.68-4.48Q215.12-4.48 215.36-4.14L215.36-4.14L216.36-2.84Q215.70-2.04 214.78-1.45Q213.86-0.86 212.81-0.48Q211.76-0.10 210.64 0.09Q209.52 0.28 208.42 0.28L208.42 0.28Q206.32 0.28 204.55-0.43Q202.78-1.14 201.49-2.51Q200.20-3.88 199.48-5.90Q198.76-7.92 198.76-10.54L198.76-10.54Q198.76-12.66 199.41-14.50Q200.06-16.34 201.28-17.69Q202.50-19.04 204.26-19.81Q206.02-20.58 208.22-20.58ZM208.30-17.96L208.30-17.96Q205.72-17.96 204.24-16.47Q202.76-14.98 202.40-12.34L202.40-12.34L213.42-12.34Q213.42-13.58 213.08-14.61Q212.74-15.64 212.08-16.39Q211.42-17.14 210.47-17.55Q209.52-17.96 208.30-17.96Z M234.08-29.46L237.64-29.46L237.64 0L234.08 0L234.08-29.46Z M261.20-12.96L261.20 0L259.62 0Q259.10 0 258.78-0.16Q258.46-0.32 258.36-0.84L258.36-0.84L257.96-2.72Q257.16-2 256.40-1.43Q255.64-0.86 254.80-0.47Q253.96-0.08 253.01 0.12Q252.06 0.32 250.90 0.32L250.90 0.32Q249.72 0.32 248.69-0.01Q247.66-0.34 246.90-1Q246.14-1.66 245.69-2.67Q245.24-3.68 245.24-5.06L245.24-5.06Q245.24-6.26 245.90-7.37Q246.56-8.48 248.03-9.34Q249.50-10.20 251.88-10.75Q254.26-11.30 257.70-11.38L257.70-11.38L257.70-12.96Q257.70-15.32 256.69-16.53Q255.68-17.74 253.70-17.74L253.70-17.74Q252.40-17.74 251.51-17.41Q250.62-17.08 249.97-16.67Q249.32-16.26 248.85-15.93Q248.38-15.60 247.92-15.60L247.92-15.60Q247.56-15.60 247.29-15.79Q247.02-15.98 246.86-16.26L246.86-16.26L246.22-17.40Q247.90-19.02 249.84-19.82Q251.78-20.62 254.14-20.62L254.14-20.62Q255.84-20.62 257.16-20.06Q258.48-19.50 259.38-18.50Q260.28-17.50 260.74-16.08Q261.20-14.66 261.20-12.96L261.20-12.96ZM251.96-2.18L251.96-2.18Q252.90-2.18 253.68-2.37Q254.46-2.56 255.15-2.91Q255.84-3.26 256.47-3.76Q257.10-4.26 257.70-4.90L257.70-4.90L257.70-9.12Q255.24-9.04 253.52-8.73Q251.80-8.42 250.72-7.92Q249.64-7.42 249.15-6.74Q248.66-6.06 248.66-5.22L248.66-5.22Q248.66-4.42 248.92-3.84Q249.18-3.26 249.62-2.89Q250.06-2.52 250.66-2.35Q251.26-2.18 251.96-2.18Z M281.40-18.22L280.60-16.92Q280.36-16.48 279.86-16.48L279.86-16.48Q279.56-16.48 279.18-16.70Q278.80-16.92 278.25-17.19Q277.70-17.46 276.94-17.69Q276.18-17.92 275.14-17.92L275.14-17.92Q274.24-17.92 273.52-17.69Q272.80-17.46 272.29-17.06Q271.78-16.66 271.51-16.13Q271.24-15.60 271.24-14.98L271.24-14.98Q271.24-14.20 271.69-13.68Q272.14-13.16 272.88-12.78Q273.62-12.40 274.56-12.11Q275.50-11.82 276.49-11.49Q277.48-11.16 278.42-10.76Q279.36-10.36 280.10-9.76Q280.84-9.16 281.29-8.29Q281.74-7.42 281.74-6.20L281.74-6.20Q281.74-4.80 281.24-3.61Q280.74-2.42 279.76-1.55Q278.78-0.68 277.36-0.18Q275.94 0.32 274.08 0.32L274.08 0.32Q271.96 0.32 270.24-0.37Q268.52-1.06 267.32-2.14L267.32-2.14L268.16-3.50Q268.32-3.76 268.54-3.90Q268.76-4.04 269.12-4.04L269.12-4.04Q269.48-4.04 269.88-3.76Q270.28-3.48 270.85-3.14Q271.42-2.80 272.23-2.52Q273.04-2.24 274.26-2.24L274.26-2.24Q275.30-2.24 276.08-2.51Q276.86-2.78 277.38-3.24Q277.90-3.70 278.15-4.30Q278.40-4.90 278.40-5.58L278.40-5.58Q278.40-6.42 277.95-6.97Q277.50-7.52 276.76-7.91Q276.02-8.30 275.07-8.59Q274.12-8.88 273.13-9.20Q272.14-9.52 271.19-9.93Q270.24-10.34 269.50-10.96Q268.76-11.58 268.31-12.49Q267.86-13.40 267.86-14.70L267.86-14.70Q267.86-15.86 268.34-16.93Q268.82-18 269.74-18.81Q270.66-19.62 272.00-20.10Q273.34-20.58 275.06-20.58L275.06-20.58Q277.06-20.58 278.65-19.95Q280.24-19.32 281.40-18.22L281.40-18.22Z M303.26 0L299.68 0L299.68-17.22L297.44-17.48Q297.02-17.58 296.75-17.79Q296.48-18 296.48-18.40L296.48-18.40L296.48-19.86L299.68-19.86L299.68-21.82Q299.68-23.56 300.17-24.91Q300.66-26.26 301.57-27.19Q302.48-28.12 303.76-28.60Q305.04-29.08 306.64-29.08L306.64-29.08Q308.00-29.08 309.16-28.68L309.16-28.68L309.08-26.90Q309.06-26.50 308.74-26.42Q308.42-26.34 307.84-26.34L307.84-26.34L307.22-26.34Q306.30-26.34 305.55-26.10Q304.80-25.86 304.26-25.32Q303.72-24.78 303.43-23.90Q303.14-23.02 303.14-21.72L303.14-21.72L303.14-19.86L309.00-19.86L309.00-17.28L303.26-17.28L303.26 0Z M318.32 0L314.76 0L314.76-20.26L316.80-20.26Q317.38-20.26 317.60-20.04Q317.82-19.82 317.90-19.28L317.90-19.28L318.14-16.12Q319.18-18.24 320.71-19.43Q322.24-20.62 324.30-20.62L324.30-20.62Q325.14-20.62 325.82-20.43Q326.50-20.24 327.08-19.90L327.08-19.90L326.62-17.24Q326.48-16.74 326.00-16.74L326.00-16.74Q325.72-16.74 325.14-16.93Q324.56-17.12 323.52-17.12L323.52-17.12Q321.66-17.12 320.41-16.04Q319.16-14.96 318.32-12.90L318.32-12.90L318.32 0Z M341.48-20.58L341.48-20.58Q343.70-20.58 345.49-19.84Q347.28-19.10 348.53-17.74Q349.78-16.38 350.45-14.45Q351.12-12.52 351.12-10.14L351.12-10.14Q351.12-7.74 350.45-5.82Q349.78-3.90 348.53-2.54Q347.28-1.18 345.49-0.45Q343.70 0.28 341.48 0.28L341.48 0.28Q339.26 0.28 337.47-0.45Q335.68-1.18 334.42-2.54Q333.16-3.90 332.48-5.82Q331.80-7.74 331.80-10.14L331.80-10.14Q331.80-12.52 332.48-14.45Q333.16-16.38 334.42-17.74Q335.68-19.10 337.47-19.84Q339.26-20.58 341.48-20.58ZM341.48-2.50L341.48-2.50Q344.48-2.50 345.96-4.51Q347.44-6.52 347.44-10.12L347.44-10.12Q347.44-13.74 345.96-15.76Q344.48-17.78 341.48-17.78L341.48-17.78Q339.96-17.78 338.84-17.26Q337.72-16.74 336.97-15.76Q336.22-14.78 335.85-13.35Q335.48-11.92 335.48-10.12L335.48-10.12Q335.48-8.32 335.85-6.90Q336.22-5.48 336.97-4.51Q337.72-3.54 338.84-3.02Q339.96-2.50 341.48-2.50Z M361.48 0L357.92 0L357.92-20.26L360.04-20.26Q360.80-20.26 361-19.52L361-19.52L361.28-17.32Q362.60-18.78 364.23-19.68Q365.86-20.58 368-20.58L368-20.58Q369.66-20.58 370.93-20.03Q372.20-19.48 373.05-18.47Q373.90-17.46 374.34-16.04Q374.78-14.62 374.78-12.90L374.78-12.90L374.78 0L371.22 0L371.22-12.90Q371.22-15.20 370.17-16.47Q369.12-17.74 366.96-17.74L366.96-17.74Q365.38-17.74 364.01-16.98Q362.64-16.22 361.48-14.92L361.48-14.92L361.48 0Z M388.70 0.32L388.70 0.32Q386.30 0.32 385.01-1.02Q383.72-2.36 383.72-4.88L383.72-4.88L383.72-17.28L381.28-17.28Q380.96-17.28 380.74-17.47Q380.52-17.66 380.52-18.06L380.52-18.06L380.52-19.48L383.84-19.90L384.66-26.16Q384.70-26.46 384.92-26.65Q385.14-26.84 385.48-26.84L385.48-26.84L387.28-26.84L387.28-19.86L393.08-19.86L393.08-17.28L387.28-17.28L387.28-5.12Q387.28-3.84 387.90-3.22Q388.52-2.60 389.50-2.60L389.50-2.60Q390.06-2.60 390.47-2.75Q390.88-2.90 391.18-3.08Q391.48-3.26 391.69-3.41Q391.90-3.56 392.06-3.56L392.06-3.56Q392.34-3.56 392.56-3.22L392.56-3.22L393.60-1.52Q392.68-0.66 391.38-0.17Q390.08 0.32 388.70 0.32Z M407.90-20.58L407.90-20.58Q409.72-20.58 411.26-19.97Q412.80-19.36 413.92-18.21Q415.04-17.06 415.67-15.37Q416.30-13.68 416.30-11.52L416.30-11.52Q416.30-10.68 416.12-10.40Q415.94-10.12 415.44-10.12L415.44-10.12L401.96-10.12Q402-8.20 402.48-6.78Q402.96-5.36 403.80-4.41Q404.64-3.46 405.80-2.99Q406.96-2.52 408.40-2.52L408.40-2.52Q409.74-2.52 410.71-2.83Q411.68-3.14 412.38-3.50Q413.08-3.86 413.55-4.17Q414.02-4.48 414.36-4.48L414.36-4.48Q414.80-4.48 415.04-4.14L415.04-4.14L416.04-2.84Q415.38-2.04 414.46-1.45Q413.54-0.86 412.49-0.48Q411.44-0.10 410.32 0.09Q409.20 0.28 408.10 0.28L408.10 0.28Q406 0.28 404.23-0.43Q402.46-1.14 401.17-2.51Q399.88-3.88 399.16-5.90Q398.44-7.92 398.44-10.54L398.44-10.54Q398.44-12.66 399.09-14.50Q399.74-16.34 400.96-17.69Q402.18-19.04 403.94-19.81Q405.70-20.58 407.90-20.58ZM407.98-17.96L407.98-17.96Q405.40-17.96 403.92-16.47Q402.44-14.98 402.08-12.34L402.08-12.34L413.10-12.34Q413.10-13.58 412.76-14.61Q412.42-15.64 411.76-16.39Q411.10-17.14 410.15-17.55Q409.20-17.96 407.98-17.96Z M426.80 0L423.24 0L423.24-20.26L425.28-20.26Q425.86-20.26 426.08-20.04Q426.30-19.82 426.38-19.28L426.38-19.28L426.62-16.12Q427.66-18.24 429.19-19.43Q430.72-20.62 432.78-20.62L432.78-20.62Q433.62-20.62 434.30-20.43Q434.98-20.24 435.56-19.90L435.56-19.90L435.10-17.24Q434.96-16.74 434.48-16.74L434.48-16.74Q434.20-16.74 433.62-16.93Q433.04-17.12 432.00-17.12L432.00-17.12Q430.14-17.12 428.89-16.04Q427.64-14.96 426.80-12.90L426.80-12.90L426.80 0Z M455.88-12.96L455.88 0L454.30 0Q453.78 0 453.46-0.16Q453.14-0.32 453.04-0.84L453.04-0.84L452.64-2.72Q451.84-2 451.08-1.43Q450.32-0.86 449.48-0.47Q448.64-0.08 447.69 0.12Q446.74 0.32 445.58 0.32L445.58 0.32Q444.40 0.32 443.37-0.01Q442.34-0.34 441.58-1Q440.82-1.66 440.37-2.67Q439.92-3.68 439.92-5.06L439.92-5.06Q439.92-6.26 440.58-7.37Q441.24-8.48 442.71-9.34Q444.18-10.20 446.56-10.75Q448.94-11.30 452.38-11.38L452.38-11.38L452.38-12.96Q452.38-15.32 451.37-16.53Q450.36-17.74 448.38-17.74L448.38-17.74Q447.08-17.74 446.19-17.41Q445.30-17.08 444.65-16.67Q444.00-16.26 443.53-15.93Q443.06-15.60 442.60-15.60L442.60-15.60Q442.24-15.60 441.97-15.79Q441.70-15.98 441.54-16.26L441.54-16.26L440.90-17.40Q442.58-19.02 444.52-19.82Q446.46-20.62 448.82-20.62L448.82-20.62Q450.52-20.62 451.84-20.06Q453.16-19.50 454.06-18.50Q454.96-17.50 455.42-16.08Q455.88-14.66 455.88-12.96L455.88-12.96ZM446.64-2.18L446.64-2.18Q447.58-2.18 448.36-2.37Q449.14-2.56 449.83-2.91Q450.52-3.26 451.15-3.76Q451.78-4.26 452.38-4.90L452.38-4.90L452.38-9.12Q449.92-9.04 448.20-8.73Q446.48-8.42 445.40-7.92Q444.32-7.42 443.83-6.74Q443.34-6.06 443.34-5.22L443.34-5.22Q443.34-4.42 443.60-3.84Q443.86-3.26 444.30-2.89Q444.74-2.52 445.34-2.35Q445.94-2.18 446.64-2.18Z M476.08-18.22L475.28-16.92Q475.04-16.48 474.54-16.48L474.54-16.48Q474.24-16.48 473.86-16.70Q473.48-16.92 472.93-17.19Q472.38-17.46 471.62-17.69Q470.86-17.92 469.82-17.92L469.82-17.92Q468.92-17.92 468.20-17.69Q467.48-17.46 466.97-17.06Q466.46-16.66 466.19-16.13Q465.92-15.60 465.92-14.98L465.92-14.98Q465.92-14.20 466.37-13.68Q466.82-13.16 467.56-12.78Q468.30-12.40 469.24-12.11Q470.18-11.82 471.17-11.49Q472.16-11.16 473.10-10.76Q474.04-10.36 474.78-9.76Q475.52-9.16 475.97-8.29Q476.42-7.42 476.42-6.20L476.42-6.20Q476.42-4.80 475.92-3.61Q475.42-2.42 474.44-1.55Q473.46-0.68 472.04-0.18Q470.62 0.32 468.76 0.32L468.76 0.32Q466.64 0.32 464.92-0.37Q463.20-1.06 462.00-2.14L462.00-2.14L462.84-3.50Q463.00-3.76 463.22-3.90Q463.44-4.04 463.80-4.04L463.80-4.04Q464.16-4.04 464.56-3.76Q464.96-3.48 465.53-3.14Q466.10-2.80 466.91-2.52Q467.72-2.24 468.94-2.24L468.94-2.24Q469.98-2.24 470.76-2.51Q471.54-2.78 472.06-3.24Q472.58-3.70 472.83-4.30Q473.08-4.90 473.08-5.58L473.08-5.58Q473.08-6.42 472.63-6.97Q472.18-7.52 471.44-7.91Q470.70-8.30 469.75-8.59Q468.80-8.88 467.81-9.20Q466.82-9.52 465.87-9.93Q464.92-10.34 464.18-10.96Q463.44-11.58 462.99-12.49Q462.54-13.40 462.54-14.70L462.54-14.70Q462.54-15.86 463.02-16.93Q463.50-18 464.42-18.81Q465.34-19.62 466.68-20.10Q468.02-20.58 469.74-20.58L469.74-20.58Q471.74-20.58 473.33-19.95Q474.92-19.32 476.08-18.22L476.08-18.22Z"/></g>
</svg>
</g><g opacity="1" transform="rotate(0 -34.7406 189.8894)">
<svg width="389.1008" height="32" x="-34.7406" y="189.8894" version="1.1" preserveAspectRatio="none" viewBox="1.8 -33.2 409.04 33.64">
  <g transform="matrix(1 0 0 1 0 0)" class="companyName"><path id="id-D6z1nYkh18" d="M30.16 0.40L27.76 0.40L8.76-24.64L8.60-24.64L8.60-7.56Q8.60-5.56 8.74-4.40Q8.88-3.24 9.30-2.60Q9.72-1.96 10.50-1.76Q11.28-1.56 12.56-1.52L12.56-1.52L12.56 0L1.80 0L1.80-1.52Q3.20-1.56 4.06-1.78Q4.92-2 5.40-2.60Q5.88-3.20 6.04-4.30Q6.20-5.40 6.20-7.28L6.20-7.28L6.20-23.52Q6.20-25.20 6.06-26.30Q5.92-27.40 5.50-28.04Q5.08-28.68 4.28-28.94Q3.48-29.20 2.20-29.28L2.20-29.28L2.20-30.80L10.12-30.80L27.60-7.48L27.76-7.48L27.76-23.24Q27.76-25.20 27.62-26.38Q27.48-27.56 27.06-28.20Q26.64-28.84 25.86-29.04Q25.08-29.24 23.80-29.28L23.80-29.28L23.80-30.80L34.56-30.80L34.56-29.28Q33.16-29.24 32.30-29.02Q31.44-28.80 30.96-28.20Q30.48-27.60 30.32-26.48Q30.16-25.36 30.16-23.52L30.16-23.52L30.16 0.40Z M54.56-4.84L55.80-3.72Q52.40 0.40 47.36 0.40L47.36 0.40Q45 0.40 43.08-0.38Q41.16-1.16 39.78-2.58Q38.40-4 37.64-5.98Q36.88-7.96 36.88-10.36L36.88-10.36Q36.88-12.80 37.68-14.88Q38.48-16.96 39.94-18.44Q41.40-19.92 43.42-20.76Q45.44-21.60 47.84-21.60L47.84-21.60Q51.72-21.60 53.84-19.50Q55.96-17.40 55.96-13.48L55.96-13.48Q55.96-12.92 55.74-12.80Q55.52-12.68 54.72-12.68L54.72-12.68L41.56-12.68Q41.48-12.36 41.44-11.90Q41.40-11.44 41.40-10.88L41.40-10.88Q41.40-8.80 41.90-7.10Q42.40-5.40 43.34-4.20Q44.28-3 45.58-2.34Q46.88-1.68 48.48-1.68L48.48-1.68Q50.16-1.68 51.60-2.42Q53.04-3.16 54.56-4.84L54.56-4.84ZM41.84-14.52L49.20-14.52Q50-14.52 50.48-14.56Q50.96-14.60 51.20-14.72Q51.44-14.84 51.52-15.06Q51.60-15.28 51.60-15.64L51.60-15.64Q51.60-17.48 50.42-18.58Q49.24-19.68 47.20-19.68L47.20-19.68Q42.88-19.68 41.84-14.52L41.84-14.52Z M74.32-14.36L68.44 0.40L66.96 0.40L61.76-16.24Q61.40-17.36 61.08-18.04Q60.76-18.72 60.32-19.12Q59.88-19.52 59.28-19.66Q58.68-19.80 57.80-19.80L57.80-19.80L57.80-21.20L68.40-21.20L68.40-19.80Q66.84-19.80 66.20-19.44Q65.56-19.08 65.56-18.20L65.56-18.20Q65.56-17.80 65.68-17.26Q65.80-16.72 66-15.92L66-15.92L68.72-6.36L68.88-6.36L74.76-21.20L76-21.20L81.32-6.36L81.48-6.36L83.88-12.84Q84.36-14.16 84.68-15.06Q85-15.96 85.18-16.58Q85.36-17.20 85.44-17.60Q85.52-18 85.52-18.36L85.52-18.36Q85.52-19.24 85-19.52Q84.48-19.80 82.84-19.80L82.84-19.80L82.84-21.20L90.84-21.20L90.84-19.80Q90.24-19.80 89.82-19.62Q89.40-19.44 88.98-18.92Q88.56-18.40 88.12-17.44Q87.68-16.48 87.04-14.92L87.04-14.92L80.84 0.40L79.36 0.40L74.48-14.36L74.32-14.36Z M132.56-24.44L132.56-6.36Q132.56-4.84 132.72-3.90Q132.88-2.96 133.34-2.46Q133.80-1.96 134.66-1.76Q135.52-1.56 136.92-1.52L136.92-1.52L136.92 0L123.96 0L123.96-1.52Q125.36-1.56 126.22-1.76Q127.08-1.96 127.56-2.44Q128.04-2.92 128.20-3.80Q128.36-4.68 128.36-6.08L128.36-6.08L128.36-14.76L112.16-14.76L112.16-6.36Q112.16-4.84 112.32-3.90Q112.48-2.96 112.94-2.46Q113.40-1.96 114.26-1.76Q115.12-1.56 116.52-1.52L116.52-1.52L116.52 0L103.56 0L103.56-1.52Q104.96-1.56 105.82-1.76Q106.68-1.96 107.16-2.44Q107.64-2.92 107.80-3.80Q107.96-4.68 107.96-6.08L107.96-6.08L107.96-24.72Q107.96-26.12 107.82-26.98Q107.68-27.84 107.26-28.34Q106.84-28.84 106.04-29.02Q105.24-29.20 103.96-29.28L103.96-29.28L103.96-30.80L116.12-30.80L116.12-29.28Q114.84-29.24 114.06-29.04Q113.28-28.84 112.86-28.32Q112.44-27.80 112.30-26.88Q112.16-25.96 112.16-24.44L112.16-24.44L112.16-16.76L128.36-16.76L128.36-24.72Q128.36-26.12 128.22-26.98Q128.08-27.84 127.66-28.34Q127.24-28.84 126.44-29.02Q125.64-29.20 124.36-29.28L124.36-29.28L124.36-30.80L136.52-30.80L136.52-29.28Q135.24-29.24 134.46-29.04Q133.68-28.84 133.26-28.32Q132.84-27.80 132.70-26.88Q132.56-25.96 132.56-24.44L132.56-24.44Z M150.68-21.60L150.68-21.60Q152.96-21.60 155.00-20.78Q157.04-19.96 158.58-18.52Q160.12-17.08 161.02-15.10Q161.92-13.12 161.92-10.76L161.92-10.76Q161.92-8.32 161.02-6.28Q160.12-4.24 158.58-2.76Q157.04-1.28 155.00-0.44Q152.96 0.40 150.68 0.40L150.68 0.40Q148.44 0.40 146.42-0.42Q144.40-1.24 142.88-2.72Q141.36-4.20 140.48-6.26Q139.60-8.32 139.60-10.76L139.60-10.76Q139.60-13.12 140.48-15.12Q141.36-17.12 142.88-18.56Q144.40-20 146.42-20.80Q148.44-21.60 150.68-21.60ZM150.68-19.68L150.68-19.68Q149.20-19.68 147.98-19.04Q146.76-18.40 145.90-17.22Q145.04-16.04 144.58-14.38Q144.12-12.72 144.12-10.72L144.12-10.72Q144.12-8.64 144.58-6.96Q145.04-5.28 145.90-4.10Q146.76-2.92 147.96-2.28Q149.16-1.64 150.68-1.64L150.68-1.64Q152.20-1.64 153.44-2.28Q154.68-2.92 155.56-4.12Q156.44-5.32 156.92-7Q157.40-8.68 157.40-10.72L157.40-10.72Q157.40-12.72 156.92-14.36Q156.44-16 155.56-17.18Q154.68-18.36 153.44-19.02Q152.20-19.68 150.68-19.68Z M172.72-7.72L172.72-6.36Q172.72-4.72 172.80-3.76Q172.88-2.80 173.22-2.30Q173.56-1.80 174.20-1.64Q174.84-1.48 176.00-1.40L176.00-1.40L176.00 0L165.36 0L165.36-1.40Q166.52-1.44 167.20-1.62Q167.88-1.80 168.24-2.28Q168.60-2.76 168.70-3.66Q168.80-4.56 168.80-6.08L168.80-6.08L168.80-10.76Q168.80-13.48 168.74-15Q168.68-16.52 168.34-17.24Q168.00-17.96 167.28-18.10Q166.56-18.24 165.28-18.24L165.28-18.24L165.28-19.64L172.28-21.16L172.84-16.20L173.00-16.20Q173.52-17.40 174.30-18.40Q175.08-19.40 176.00-20.10Q176.92-20.80 177.92-21.20Q178.92-21.60 179.96-21.60L179.96-21.60Q181.24-21.60 181.98-20.98Q182.72-20.36 182.72-19.32L182.72-19.32Q182.72-18.36 182.12-17.82Q181.52-17.28 180.40-17.28L180.40-17.28Q179.76-17.28 179.32-17.44Q178.88-17.60 178.54-17.78Q178.20-17.96 177.90-18.12Q177.60-18.28 177.24-18.28L177.24-18.28Q176.16-18.28 175.08-16.90Q174.00-15.52 173.40-13.40L173.40-13.40Q173.08-12.24 172.90-10.78Q172.72-9.32 172.72-7.72L172.72-7.72Z M192.04-21.60L192.04-6.36Q192.04-4.80 192.18-3.86Q192.32-2.92 192.72-2.38Q193.12-1.84 193.84-1.64Q194.56-1.44 195.76-1.40L195.76-1.40L195.76 0L184.28 0L184.28-1.40Q185.48-1.44 186.24-1.66Q187-1.88 187.42-2.38Q187.84-2.88 187.98-3.78Q188.12-4.68 188.12-6.08L188.12-6.08L188.12-11.20Q188.12-13.52 188.06-15.02Q188-16.52 187.84-17.08L187.84-17.08Q187.64-18 186.92-18.34Q186.20-18.68 184.20-18.68L184.20-18.68L184.20-20.08L192.04-21.60ZM187.44-29.72L187.44-29.72Q187.44-30.76 188.16-31.48Q188.88-32.20 189.92-32.20L189.92-32.20Q190.96-32.20 191.68-31.48Q192.40-30.76 192.40-29.72L192.40-29.72Q192.40-28.68 191.68-27.96Q190.96-27.24 189.92-27.24L189.92-27.24Q188.88-27.24 188.16-27.96Q187.44-28.68 187.44-29.72Z M217.16-6.20L216.48 0L197.28 0L197.28-0.16L211.12-19.52L206.68-19.52Q204.96-19.52 203.86-19.38Q202.76-19.24 202.06-18.82Q201.36-18.40 201-17.66Q200.64-16.92 200.44-15.68L200.44-15.68L199.16-15.68L199.80-21.20L217-21.20L217-21.04L203.36-1.84L208.04-1.84Q210.08-1.84 211.42-2Q212.76-2.16 213.62-2.64Q214.48-3.12 214.98-3.96Q215.48-4.80 215.84-6.20L215.84-6.20L217.16-6.20Z M231.84-21.60L231.84-21.60Q234.12-21.60 236.16-20.78Q238.20-19.96 239.74-18.52Q241.28-17.08 242.18-15.10Q243.08-13.12 243.08-10.76L243.08-10.76Q243.08-8.32 242.18-6.28Q241.28-4.24 239.74-2.76Q238.20-1.28 236.16-0.44Q234.12 0.40 231.84 0.40L231.84 0.40Q229.60 0.40 227.58-0.42Q225.56-1.24 224.04-2.72Q222.52-4.20 221.64-6.26Q220.76-8.32 220.76-10.76L220.76-10.76Q220.76-13.12 221.64-15.12Q222.52-17.12 224.04-18.56Q225.56-20 227.58-20.80Q229.60-21.60 231.84-21.60ZM231.84-19.68L231.84-19.68Q230.36-19.68 229.14-19.04Q227.92-18.40 227.06-17.22Q226.20-16.04 225.74-14.38Q225.28-12.72 225.28-10.72L225.28-10.72Q225.28-8.64 225.74-6.96Q226.20-5.28 227.06-4.10Q227.92-2.92 229.12-2.28Q230.32-1.64 231.84-1.64L231.84-1.64Q233.36-1.64 234.60-2.28Q235.84-2.92 236.72-4.12Q237.60-5.32 238.08-7Q238.56-8.68 238.56-10.72L238.56-10.72Q238.56-12.72 238.08-14.36Q237.60-16 236.72-17.18Q235.84-18.36 234.60-19.02Q233.36-19.68 231.84-19.68Z M253.64-11.64L253.64-6.28Q253.64-4.64 253.72-3.70Q253.80-2.76 254.14-2.26Q254.48-1.76 255.14-1.60Q255.80-1.44 256.96-1.36L256.96-1.36L256.96 0L246.48 0L246.48-1.36Q247.60-1.44 248.26-1.60Q248.92-1.76 249.28-2.24Q249.64-2.72 249.74-3.60Q249.84-4.48 249.84-6L249.84-6L249.84-11.32Q249.84-16.08 249.60-17.12L249.60-17.12Q249.48-17.64 249.30-17.98Q249.12-18.32 248.76-18.50Q248.40-18.68 247.84-18.74Q247.28-18.80 246.40-18.80L246.40-18.80L246.40-20.08L252.80-21.60L253.28-17.64L253.44-17.64Q254.96-19.52 257-20.56Q259.04-21.60 261.44-21.60L261.44-21.60Q263.28-21.60 264.80-21Q266.32-20.40 267.12-19.36L267.12-19.36Q267.80-18.44 268.08-16.98Q268.36-15.52 268.36-12.96L268.36-12.96L268.36-6.28Q268.36-4.64 268.46-3.70Q268.56-2.76 268.88-2.26Q269.20-1.76 269.86-1.60Q270.52-1.44 271.60-1.36L271.60-1.36L271.60 0L261.24 0L261.24-1.36Q262.36-1.40 263.02-1.58Q263.68-1.76 264.02-2.24Q264.36-2.72 264.46-3.62Q264.56-4.52 264.56-6L264.56-6L264.56-11.28Q264.56-13.56 264.32-15.12Q264.08-16.68 263.54-17.64Q263-18.60 262.12-19.02Q261.24-19.44 260-19.44L260-19.44Q258.20-19.44 256.70-18.50Q255.20-17.56 254.36-15.92L254.36-15.92Q254.16-15.52 254.02-15.16Q253.88-14.80 253.80-14.32Q253.72-13.84 253.68-13.22Q253.64-12.60 253.64-11.64L253.64-11.64Z M313.84-30.80L314.24-23.16L312.60-23.16Q312.48-24.88 312.04-26.04Q311.60-27.20 310.78-27.86Q309.96-28.52 308.72-28.80Q307.48-29.08 305.76-29.08L305.76-29.08Q304.28-29.08 303.38-29.02Q302.48-28.96 302-28.80Q301.52-28.64 301.38-28.42Q301.24-28.20 301.24-27.84L301.24-27.84L301.24-6.44Q301.24-5.16 301.42-4.24Q301.60-3.32 302.14-2.74Q302.68-2.16 303.70-1.86Q304.72-1.56 306.40-1.52L306.40-1.52L306.40 0L291.28 0L291.28-1.52Q292.96-1.56 294-1.86Q295.04-2.16 295.58-2.74Q296.12-3.32 296.30-4.24Q296.48-5.16 296.48-6.44L296.48-6.44L296.48-27.84Q296.48-28.20 296.34-28.42Q296.20-28.64 295.78-28.80Q295.36-28.96 294.60-29.02Q293.84-29.08 292.56-29.08L292.56-29.08Q291-29.08 289.66-28.96Q288.32-28.84 287.34-28.26Q286.36-27.68 285.76-26.48Q285.16-25.28 285.12-23.16L285.12-23.16L283.64-23.16L283.64-30.80L313.84-30.80Z M320.92-7.72L320.92-6.36Q320.92-4.72 321-3.76Q321.08-2.80 321.42-2.30Q321.76-1.80 322.40-1.64Q323.04-1.48 324.20-1.40L324.20-1.40L324.20 0L313.56 0L313.56-1.40Q314.72-1.44 315.40-1.62Q316.08-1.80 316.44-2.28Q316.80-2.76 316.90-3.66Q317-4.56 317-6.08L317-6.08L317-10.76Q317-13.48 316.94-15Q316.88-16.52 316.54-17.24Q316.20-17.96 315.48-18.10Q314.76-18.24 313.48-18.24L313.48-18.24L313.48-19.64L320.48-21.16L321.04-16.20L321.20-16.20Q321.72-17.40 322.50-18.40Q323.28-19.40 324.20-20.10Q325.12-20.80 326.12-21.20Q327.12-21.60 328.16-21.60L328.16-21.60Q329.44-21.60 330.18-20.98Q330.92-20.36 330.92-19.32L330.92-19.32Q330.92-18.36 330.32-17.82Q329.72-17.28 328.60-17.28L328.60-17.28Q327.96-17.28 327.52-17.44Q327.08-17.60 326.74-17.78Q326.40-17.96 326.10-18.12Q325.80-18.28 325.44-18.28L325.44-18.28Q324.36-18.28 323.28-16.90Q322.20-15.52 321.60-13.40L321.60-13.40Q321.28-12.24 321.10-10.78Q320.92-9.32 320.92-7.72L320.92-7.72Z M345.08-8.68L345.08-11.84Q342.80-10.96 341.22-10.12Q339.64-9.28 338.68-8.44Q337.72-7.60 337.30-6.76Q336.88-5.92 336.88-5.04L336.88-5.04Q336.88-3.72 337.76-2.88Q338.64-2.04 340.08-2.04L340.08-2.04Q341.12-2.04 342.02-2.56Q342.92-3.08 343.60-3.98Q344.28-4.88 344.68-6.10Q345.08-7.32 345.08-8.68L345.08-8.68ZM339.32-11.04L345.08-13.56L345.08-15.20Q345.08-20.08 340.92-20.08L340.92-20.08Q340.24-20.08 339.76-19.96Q339.28-19.84 338.96-19.56Q338.64-19.28 338.38-18.76Q338.12-18.24 337.88-17.48L337.88-17.48Q337.44-16.32 337.02-15.94Q336.60-15.56 335.80-15.56L335.80-15.56Q333.80-15.56 333.80-17.56L333.80-17.56Q333.80-19.48 335.84-20.54Q337.88-21.60 341.64-21.60L341.64-21.60Q345.64-21.60 347.32-20.18Q349-18.76 349-15.36L349-15.36L349-6.40Q349-1.84 350.80-1.84L350.80-1.84Q351.36-1.84 351.88-1.98Q352.40-2.12 352.76-2.72L352.76-2.72L353.32-1.76Q352.84-0.84 351.56-0.22Q350.28 0.40 348.88 0.40L348.88 0.40Q347.12 0.40 346.26-0.72Q345.40-1.84 345.40-3.88L345.40-3.88L345.20-3.88Q344.16-1.92 342.32-0.78Q340.48 0.36 338.24 0.36L338.24 0.36Q335.72 0.36 334.28-0.92Q332.84-2.20 332.84-4.36L332.84-4.36Q332.84-5.32 333.18-6.20Q333.52-7.08 334.28-7.88Q335.04-8.68 336.28-9.46Q337.52-10.24 339.32-11.04L339.32-11.04Z M363.40 0.44L356.64-16.24Q356.16-17.44 355.78-18.14Q355.40-18.84 354.96-19.20Q354.52-19.56 353.98-19.66Q353.44-19.76 352.68-19.80L352.68-19.80L352.68-21.20L363.28-21.20L363.28-19.80Q362.48-19.76 361.96-19.72Q361.44-19.68 361.14-19.54Q360.84-19.40 360.72-19.14Q360.60-18.88 360.60-18.40L360.60-18.40Q360.60-17.72 360.78-17.12Q360.96-16.52 361.16-15.92L361.16-15.92L365.40-4.32L365.56-4.32L369.20-12.92Q370.04-14.92 370.40-16.12Q370.76-17.32 370.76-18.24L370.76-18.24Q370.76-19.16 370.28-19.48Q369.80-19.80 368.20-19.80L368.20-19.80L368.20-21.20L376.16-21.20L376.16-19.80Q375.52-19.80 375-19.48Q374.48-19.16 374.08-18.68L374.08-18.68Q373.76-18.24 373.42-17.50Q373.08-16.76 372.74-15.96Q372.40-15.16 372.12-14.38Q371.84-13.60 371.60-13.12L371.60-13.12L365.72 0.44L363.40 0.44Z M395.64-4.84L396.88-3.72Q393.48 0.40 388.44 0.40L388.44 0.40Q386.08 0.40 384.16-0.38Q382.24-1.16 380.86-2.58Q379.48-4 378.72-5.98Q377.96-7.96 377.96-10.36L377.96-10.36Q377.96-12.80 378.76-14.88Q379.56-16.96 381.02-18.44Q382.48-19.92 384.50-20.76Q386.52-21.60 388.92-21.60L388.92-21.60Q392.80-21.60 394.92-19.50Q397.04-17.40 397.04-13.48L397.04-13.48Q397.04-12.92 396.82-12.80Q396.60-12.68 395.80-12.68L395.80-12.68L382.64-12.68Q382.56-12.36 382.52-11.90Q382.48-11.44 382.48-10.88L382.48-10.88Q382.48-8.80 382.98-7.10Q383.48-5.40 384.42-4.20Q385.36-3 386.66-2.34Q387.96-1.68 389.56-1.68L389.56-1.68Q391.24-1.68 392.68-2.42Q394.12-3.16 395.64-4.84L395.64-4.84ZM382.92-14.52L390.28-14.52Q391.08-14.52 391.56-14.56Q392.04-14.60 392.28-14.72Q392.52-14.84 392.60-15.06Q392.68-15.28 392.68-15.64L392.68-15.64Q392.68-17.48 391.50-18.58Q390.32-19.68 388.28-19.68L388.28-19.68Q383.96-19.68 382.92-14.52L382.92-14.52Z M407.28-33.20L407.28-6.24Q407.28-4.72 407.40-3.80Q407.52-2.88 407.90-2.36Q408.28-1.84 408.98-1.64Q409.68-1.44 410.84-1.40L410.84-1.40L410.84 0L399.80 0L399.80-1.40Q401-1.44 401.72-1.66Q402.44-1.88 402.86-2.36Q403.28-2.84 403.42-3.70Q403.56-4.56 403.56-5.96L403.56-5.96L403.56-23.20Q403.56-25.36 403.50-26.82Q403.44-28.28 403.32-28.80L403.32-28.80Q403.12-29.72 402.38-30.04Q401.64-30.36 399.72-30.36L399.72-30.36L399.72-31.72L407.28-33.20Z"/></g>
</svg>
</g><g opacity="1" transform="rotate(0 81.9896 -4.5991)">
<svg width="155.6404" height="154.4885" x="81.9896" y="-4.5991" version="1.1" preserveAspectRatio="none" viewBox="11.80000114440918 12.245500564575195 77.1252670288086 76.55450439453125">
  <g transform="matrix(1 0 0 1 0 0)" class="icon1"><path d="M66.8,17.9C66.8,17.9,66.8,17.9,66.8,17.9L47.1,37.7l-11.7,0.2c0.8-0.8,3.4-3.9,2-8.9c-0.1-0.3-0.4-0.6-0.7-0.7  c-5.5-1.6-8.8,1.9-9,2.1L16.9,41.1c-0.4,0.4-0.4,1,0,1.4l6.2,6.2c0.2,0.2,0.5,0.3,0.7,0.3s0.5-0.1,0.7-0.3l0.6-0.6l5.8,5.8l-1.5,1.5  c-0.2,0.2-0.3,0.4-0.3,0.7s0.1,0.5,0.3,0.7l0.4,0.4l-2.3,2.3c-0.2,0.2-0.3,0.4-0.3,0.7s0.1,0.5,0.3,0.7l4.8,4.8l-6.6,6.6  c-0.4,0.4-0.4,1,0,1.4c0.2,0.2,0.5,0.3,0.7,0.3s0.5-0.1,0.7-0.3l6.6-6.6l1.6,1.6L21.3,82.8c-0.4,0.4-0.4,1,0,1.4  c0.2,0.2,0.5,0.3,0.7,0.3s0.5-0.1,0.7-0.3l14.1-14.1l3.5,3.5c0.2,0.2,0.5,0.3,0.7,0.3s0.5-0.1,0.7-0.3l2.3-2.3l0.4,0.4  c0.2,0.2,0.4,0.3,0.7,0.3s0.5-0.1,0.7-0.3l1.5-1.5l5.9,5.9l-0.6,0.6c-0.4,0.4-0.4,1,0,1.4l6.2,6.2c0.2,0.2,0.5,0.3,0.7,0.3  s0.5-0.1,0.7-0.3l10.7-10.7c0.3-0.3,3.7-3.6,2.1-9c-0.1-0.3-0.4-0.6-0.7-0.7c-5-1.4-8.1,1.2-8.9,2L63.6,54l19.6-19.6c0,0,0,0,0,0  c0.8-0.7,8.3-8,4.8-20.5c-0.1-0.3-0.4-0.6-0.7-0.7C74.9,9.6,67.4,17.3,66.8,17.9z M35.5,30c0.6,2.8-0.4,4.8-1.1,5.8l-4.7-4.7  C30.8,30.4,32.8,29.4,35.5,30z M19,41.8l9.3-9.3l4.8,4.8l-9.3,9.3L19,41.8z M26.5,46.7l6.8-6.8L45,39.7L32.3,52.4L26.5,46.7z   M41,71.5L29.6,60.2l1.6-1.6L42.6,70L41,71.5z M59.5,82.3l-4.8-4.8l9.3-9.3l4.8,4.8L59.5,82.3z M71.2,65.7c0.6,2.8-0.4,4.8-1.1,5.8  l-4.7-4.7C66.4,66.1,68.4,65.1,71.2,65.7z M61.4,67.9l-6.8,6.8l-5.9-5.9L61.6,56L61.4,67.9z M45.1,69.7L31.5,56.1l36-36l13.6,13.6  L45.1,69.7z M82.5,32.3L68.9,18.7c2-1.7,8.1-6.1,17.3-3.7C88.7,24.3,84.3,30.3,82.5,32.3z"></path><path d="M62.8,29.3c-2.5,2.5-2.5,6.6,0,9.1c1.3,1.3,2.9,1.9,4.6,1.9s3.3-0.6,4.6-1.9c1.2-1.2,1.9-2.8,1.9-4.6c0-1.7-0.7-3.3-1.9-4.6  c-1.2-1.2-2.8-1.9-4.6-1.9S64,28.1,62.8,29.3z M70.5,37c-0.8,0.8-2,1.3-3.1,1.3S65,37.8,64.2,37c-1.7-1.7-1.7-4.6,0-6.3  c1.7-1.7,4.6-1.7,6.3,0S72.2,35.2,70.5,37z"></path><path d="M65.2,32.7c0.4,0.4,1,0.4,1.4,0c0.4-0.4,1.2-0.4,1.6,0c0.2,0.2,0.5,0.3,0.7,0.3s0.5-0.1,0.7-0.3c0.4-0.4,0.4-1,0-1.4  c-1.2-1.2-3.2-1.2-4.4,0C64.8,31.7,64.8,32.3,65.2,32.7z"></path><path d="M26.1,68c0.3,0,0.5-0.1,0.7-0.3l2.1-2.1c0.4-0.4,0.4-1,0-1.4c-0.4-0.4-1-0.4-1.4,0l-2.1,2.1c-0.4,0.4-0.4,1,0,1.4  C25.6,67.9,25.9,68,26.1,68z"></path><path d="M12.8,87.4c0.3,0,0.5-0.1,0.7-0.3l10.9-10.9c0.4-0.4,0.4-1,0-1.4s-1-0.4-1.4,0L12.1,85.7c-0.4,0.4-0.4,1,0,1.4  C12.3,87.3,12.6,87.4,12.8,87.4z"></path><path d="M15.7,78.4c0.3,0,0.5-0.1,0.7-0.3l8-8c0.4-0.4,0.4-1,0-1.4s-1-0.4-1.4,0l-8,8c-0.4,0.4-0.4,1,0,1.4  C15.2,78.3,15.4,78.4,15.7,78.4z"></path><path d="M24.1,88.8c0.3,0,0.5-0.1,0.7-0.3l2.1-2.1c0.4-0.4,0.4-1,0-1.4s-1-0.4-1.4,0l-2.1,2.1c-0.4,0.4-0.4,1,0,1.4  C23.6,88.7,23.9,88.8,24.1,88.8z"></path><path d="M36,74.5l-8,8c-0.4,0.4-0.4,1,0,1.4c0.2,0.2,0.5,0.3,0.7,0.3s0.5-0.1,0.7-0.3l8-8c0.4-0.4,0.4-1,0-1.4S36.4,74.1,36,74.5z"></path></g>
</svg>
</g></svg></svg>