<svg version="1.1" preserveAspectRatio="none" xmlns="http://www.w3.org/2000/svg" width="500" height="500" viewBox="0 0 500 500"><rect width="100%" height="100%" fill="#F5E7E0" fill-opacity="1"/><svg viewBox="30.3707 32.8352 365.7416 202.9104" width="333" height="184.74563243557748" x="83.5px" y="157.6272px" xmlns="http://www.w3.org/2000/svg" xmlns:xlink="http://www.w3.org/1999/xlink" preserveAspectRatio="none"><defs></defs><style>.companyName {fill:#C66358;fill-opacity:1;}.icon1 {fill:#C66358;fill-opacity:1;}.icon2 {fill:#E3BBA7;fill-opacity:1;}.icon3 {fill:#985A55;fill-opacity:1;}.icon3-str {stroke:#985A55;stroke-opacity:1;}.text {fill:#C66358;fill-opacity:1;}</style><g opacity="1" transform="rotate(0 158.3803 32.8352)">
<svg width="109.7225" height="108.9104" x="158.3803" y="32.8352" version="1.1" preserveAspectRatio="none" viewBox="11.80000114440918 12.245500564575195 77.1252670288086 76.55450439453125">
  <g transform="matrix(1 0 0 1 0 0)" class="icon1"><path d="M66.8,17.9C66.8,17.9,66.8,17.9,66.8,17.9L47.1,37.7l-11.7,0.2c0.8-0.8,3.4-3.9,2-8.9c-0.1-0.3-0.4-0.6-0.7-0.7  c-5.5-1.6-8.8,1.9-9,2.1L16.9,41.1c-0.4,0.4-0.4,1,0,1.4l6.2,6.2c0.2,0.2,0.5,0.3,0.7,0.3s0.5-0.1,0.7-0.3l0.6-0.6l5.8,5.8l-1.5,1.5  c-0.2,0.2-0.3,0.4-0.3,0.7s0.1,0.5,0.3,0.7l0.4,0.4l-2.3,2.3c-0.2,0.2-0.3,0.4-0.3,0.7s0.1,0.5,0.3,0.7l4.8,4.8l-6.6,6.6  c-0.4,0.4-0.4,1,0,1.4c0.2,0.2,0.5,0.3,0.7,0.3s0.5-0.1,0.7-0.3l6.6-6.6l1.6,1.6L21.3,82.8c-0.4,0.4-0.4,1,0,1.4  c0.2,0.2,0.5,0.3,0.7,0.3s0.5-0.1,0.7-0.3l14.1-14.1l3.5,3.5c0.2,0.2,0.5,0.3,0.7,0.3s0.5-0.1,0.7-0.3l2.3-2.3l0.4,0.4  c0.2,0.2,0.4,0.3,0.7,0.3s0.5-0.1,0.7-0.3l1.5-1.5l5.9,5.9l-0.6,0.6c-0.4,0.4-0.4,1,0,1.4l6.2,6.2c0.2,0.2,0.5,0.3,0.7,0.3  s0.5-0.1,0.7-0.3l10.7-10.7c0.3-0.3,3.7-3.6,2.1-9c-0.1-0.3-0.4-0.6-0.7-0.7c-5-1.4-8.1,1.2-8.9,2L63.6,54l19.6-19.6c0,0,0,0,0,0  c0.8-0.7,8.3-8,4.8-20.5c-0.1-0.3-0.4-0.6-0.7-0.7C74.9,9.6,67.4,17.3,66.8,17.9z M35.5,30c0.6,2.8-0.4,4.8-1.1,5.8l-4.7-4.7  C30.8,30.4,32.8,29.4,35.5,30z M19,41.8l9.3-9.3l4.8,4.8l-9.3,9.3L19,41.8z M26.5,46.7l6.8-6.8L45,39.7L32.3,52.4L26.5,46.7z   M41,71.5L29.6,60.2l1.6-1.6L42.6,70L41,71.5z M59.5,82.3l-4.8-4.8l9.3-9.3l4.8,4.8L59.5,82.3z M71.2,65.7c0.6,2.8-0.4,4.8-1.1,5.8  l-4.7-4.7C66.4,66.1,68.4,65.1,71.2,65.7z M61.4,67.9l-6.8,6.8l-5.9-5.9L61.6,56L61.4,67.9z M45.1,69.7L31.5,56.1l36-36l13.6,13.6  L45.1,69.7z M82.5,32.3L68.9,18.7c2-1.7,8.1-6.1,17.3-3.7C88.7,24.3,84.3,30.3,82.5,32.3z"></path><path d="M62.8,29.3c-2.5,2.5-2.5,6.6,0,9.1c1.3,1.3,2.9,1.9,4.6,1.9s3.3-0.6,4.6-1.9c1.2-1.2,1.9-2.8,1.9-4.6c0-1.7-0.7-3.3-1.9-4.6  c-1.2-1.2-2.8-1.9-4.6-1.9S64,28.1,62.8,29.3z M70.5,37c-0.8,0.8-2,1.3-3.1,1.3S65,37.8,64.2,37c-1.7-1.7-1.7-4.6,0-6.3  c1.7-1.7,4.6-1.7,6.3,0S72.2,35.2,70.5,37z"></path><path d="M65.2,32.7c0.4,0.4,1,0.4,1.4,0c0.4-0.4,1.2-0.4,1.6,0c0.2,0.2,0.5,0.3,0.7,0.3s0.5-0.1,0.7-0.3c0.4-0.4,0.4-1,0-1.4  c-1.2-1.2-3.2-1.2-4.4,0C64.8,31.7,64.8,32.3,65.2,32.7z"></path><path d="M26.1,68c0.3,0,0.5-0.1,0.7-0.3l2.1-2.1c0.4-0.4,0.4-1,0-1.4c-0.4-0.4-1-0.4-1.4,0l-2.1,2.1c-0.4,0.4-0.4,1,0,1.4  C25.6,67.9,25.9,68,26.1,68z"></path><path d="M12.8,87.4c0.3,0,0.5-0.1,0.7-0.3l10.9-10.9c0.4-0.4,0.4-1,0-1.4s-1-0.4-1.4,0L12.1,85.7c-0.4,0.4-0.4,1,0,1.4  C12.3,87.3,12.6,87.4,12.8,87.4z"></path><path d="M15.7,78.4c0.3,0,0.5-0.1,0.7-0.3l8-8c0.4-0.4,0.4-1,0-1.4s-1-0.4-1.4,0l-8,8c-0.4,0.4-0.4,1,0,1.4  C15.2,78.3,15.4,78.4,15.7,78.4z"></path><path d="M24.1,88.8c0.3,0,0.5-0.1,0.7-0.3l2.1-2.1c0.4-0.4,0.4-1,0-1.4s-1-0.4-1.4,0l-2.1,2.1c-0.4,0.4-0.4,1,0,1.4  C23.6,88.7,23.9,88.8,24.1,88.8z"></path><path d="M36,74.5l-8,8c-0.4,0.4-0.4,1,0,1.4c0.2,0.2,0.5,0.3,0.7,0.3s0.5-0.1,0.7-0.3l8-8c0.4-0.4,0.4-1,0-1.4S36.4,74.1,36,74.5z"></path></g>
</svg>
</g><g opacity="1" transform="rotate(0 40.2346 215.7456)">
<svg width="346.0138" height="20" x="40.2346" y="215.7456" version="1.1" preserveAspectRatio="none" viewBox="4.32 -30 525.84 30.400000000000002">
  <g transform="matrix(1 0 0 1 0 0)" class="text"><path id="id-6izo4zJp25" d="M29.84-26.40L29.84 0L26.80 0L26.80-16.60L27.16-23.56L27.12-23.56L18.44 0L15.72 0L7.04-23.56L7-23.56L7.36-16.60L7.36 0L4.32 0L4.32-26.40L9.24-26.40L15.04-10.36L17.04-3.76L17.12-3.76L19.16-10.32L24.92-26.40L29.84-26.40Z M56.04-2.32Q56.84-2.32 57.64-2.52L57.64-2.52L57.44 0Q56.32 0.40 55.04 0.40L55.04 0.40Q53.48 0.40 52.58-0.28Q51.68-0.96 51.44-2.56L51.44-2.56Q50.52-1.16 48.74-0.38Q46.96 0.40 45 0.40L45 0.40Q42.04 0.40 40.12-0.98Q38.20-2.36 38.20-4.96L38.20-4.96Q38.20-7.24 40.20-8.90Q42.20-10.56 46-11.20L46-11.20L51.32-12.08L51.32-13.20Q51.32-15.20 50.08-16.40Q48.84-17.60 46.64-17.60L46.64-17.60Q44.64-17.60 43.18-16.64Q41.72-15.68 40.92-13.80L40.92-13.80L38.56-15.52Q39.36-17.76 41.54-19.08Q43.72-20.40 46.64-20.40L46.64-20.40Q50.20-20.40 52.36-18.68Q54.52-16.96 54.52-13.60L54.52-13.60L54.52-3.76Q54.52-3.04 54.88-2.68Q55.24-2.32 56.04-2.32L56.04-2.32ZM45.16-2.40Q47.68-2.40 49.50-3.60Q51.32-4.80 51.32-6.72L51.32-6.72L51.32-9.48L46.84-8.64Q44.16-8.16 42.84-7.26Q41.52-6.36 41.52-4.96L41.52-4.96Q41.52-3.72 42.48-3.06Q43.44-2.40 45.16-2.40L45.16-2.40Z M71.08 0.40Q68.20 0.40 65.88-0.74Q63.56-1.88 62.48-4.12L62.48-4.12L65.08-5.92Q65.76-4.16 67.44-3.28Q69.12-2.40 71.40-2.40L71.40-2.40Q73.76-2.40 75-3.24Q76.24-4.08 76.24-5.36L76.24-5.36Q76.24-6.52 75.08-7.22Q73.92-7.92 71-8.44L71-8.44Q68.12-8.96 66.44-9.70Q64.76-10.44 64-11.58Q63.24-12.72 63.24-14.40L63.24-14.40Q63.24-16.04 64.20-17.40Q65.16-18.76 66.96-19.58Q68.76-20.40 71.12-20.40L71.12-20.40Q74.32-20.40 76.26-19.22Q78.20-18.04 79.04-15.60L79.04-15.60L76.32-14Q75.68-15.92 74.38-16.76Q73.08-17.60 71.12-17.60L71.12-17.60Q69.16-17.60 67.80-16.72Q66.44-15.84 66.44-14.68L66.44-14.68Q66.44-13.36 67.62-12.64Q68.80-11.92 71.84-11.40L71.84-11.40Q76-10.72 77.72-9.36Q79.44-8 79.44-5.52L79.44-5.52Q79.44-3.80 78.42-2.46Q77.40-1.12 75.50-0.36Q73.60 0.40 71.08 0.40L71.08 0.40Z M119.40-2.32Q120.20-2.32 121-2.52L121-2.52L120.80 0Q119.68 0.40 118.40 0.40L118.40 0.40Q116.84 0.40 115.94-0.28Q115.04-0.96 114.80-2.56L114.80-2.56Q113.88-1.16 112.10-0.38Q110.32 0.40 108.36 0.40L108.36 0.40Q105.40 0.40 103.48-0.98Q101.56-2.36 101.56-4.96L101.56-4.96Q101.56-7.24 103.56-8.90Q105.56-10.56 109.36-11.20L109.36-11.20L114.68-12.08L114.68-13.20Q114.68-15.20 113.44-16.40Q112.20-17.60 110-17.60L110-17.60Q108-17.60 106.54-16.64Q105.08-15.68 104.28-13.80L104.28-13.80L101.92-15.52Q102.72-17.76 104.90-19.08Q107.08-20.40 110-20.40L110-20.40Q113.56-20.40 115.72-18.68Q117.88-16.96 117.88-13.60L117.88-13.60L117.88-3.76Q117.88-3.04 118.24-2.68Q118.60-2.32 119.40-2.32L119.40-2.32ZM108.52-2.40Q111.04-2.40 112.86-3.60Q114.68-4.80 114.68-6.72L114.68-6.72L114.68-9.48L110.20-8.64Q107.52-8.16 106.20-7.26Q104.88-6.36 104.88-4.96L104.88-4.96Q104.88-3.72 105.84-3.06Q106.80-2.40 108.52-2.40L108.52-2.40Z M130.68-29.20L130.68-5.36Q130.68-3.84 131.14-3.26Q131.60-2.68 132.84-2.68L132.84-2.68Q133.68-2.68 134.30-2.80Q134.92-2.92 135.76-3.24L135.76-3.24L135.24-0.16Q133.92 0.40 132.28 0.40L132.28 0.40Q129.84 0.40 128.66-0.92Q127.48-2.24 127.48-4.96L127.48-4.96L127.48-29.20L130.68-29.20Z M144.92-29.20L144.92-5.36Q144.92-3.84 145.38-3.26Q145.84-2.68 147.08-2.68L147.08-2.68Q147.92-2.68 148.54-2.80Q149.16-2.92 150-3.24L150-3.24L149.48-0.16Q148.16 0.40 146.52 0.40L146.52 0.40Q144.08 0.40 142.90-0.92Q141.72-2.24 141.72-4.96L141.72-4.96L141.72-29.20L144.92-29.20Z M172.52-2.32Q173.32-2.32 174.12-2.52L174.12-2.52L173.92 0Q172.80 0.40 171.52 0.40L171.52 0.40Q169.96 0.40 169.06-0.28Q168.16-0.96 167.92-2.56L167.92-2.56Q167-1.16 165.22-0.38Q163.44 0.40 161.48 0.40L161.48 0.40Q158.52 0.40 156.60-0.98Q154.68-2.36 154.68-4.96L154.68-4.96Q154.68-7.24 156.68-8.90Q158.68-10.56 162.48-11.20L162.48-11.20L167.80-12.08L167.80-13.20Q167.80-15.20 166.56-16.40Q165.32-17.60 163.12-17.60L163.12-17.60Q161.12-17.60 159.66-16.64Q158.20-15.68 157.40-13.80L157.40-13.80L155.04-15.52Q155.84-17.76 158.02-19.08Q160.20-20.40 163.12-20.40L163.12-20.40Q166.68-20.40 168.84-18.68Q171-16.96 171-13.60L171-13.60L171-3.76Q171-3.04 171.36-2.68Q171.72-2.32 172.52-2.32L172.52-2.32ZM161.64-2.40Q164.16-2.40 165.98-3.60Q167.80-4.80 167.80-6.72L167.80-6.72L167.80-9.48L163.32-8.64Q160.64-8.16 159.32-7.26Q158-6.36 158-4.96L158-4.96Q158-3.72 158.96-3.06Q159.92-2.40 161.64-2.40L161.64-2.40ZM164.52-30L168-30L164.08-23.32L161.48-23.32L164.52-30Z M210.04-29.20L213.24-29.20L213.24 0L210.44 0L210.24-3.48Q209.36-1.72 207.54-0.66Q205.72 0.40 203.40 0.40L203.40 0.40Q199.20 0.40 196.74-2.38Q194.28-5.16 194.28-10L194.28-10Q194.28-14.84 196.74-17.62Q199.20-20.40 203.40-20.40L203.40-20.40Q205.60-20.40 207.34-19.44Q209.08-18.48 210.04-16.88L210.04-16.88L210.04-29.20ZM203.76-2.40Q206.64-2.40 208.34-4.40Q210.04-6.40 210.04-9.76L210.04-9.76L210.04-10.24Q210.04-13.60 208.34-15.60Q206.64-17.60 203.76-17.60L203.76-17.60Q200.84-17.60 199.16-15.54Q197.48-13.48 197.48-10L197.48-10Q197.48-6.52 199.16-4.46Q200.84-2.40 203.76-2.40L203.76-2.40Z M239.84-11.04Q239.84-9.92 239.68-8.80L239.68-8.80L224.60-8.80Q224.88-5.76 226.62-4.08Q228.36-2.40 231.12-2.40L231.12-2.40Q233.32-2.40 234.78-3.16Q236.24-3.92 236.76-5.36L236.76-5.36L239.44-3.96Q238.24-1.84 236.24-0.72Q234.24 0.40 231.12 0.40L231.12 0.40Q226.60 0.40 224.02-2.36Q221.44-5.12 221.44-10L221.44-10Q221.44-14.88 223.90-17.64Q226.36-20.40 230.88-20.40L230.88-20.40Q233.68-20.40 235.72-19.16Q237.76-17.92 238.80-15.80Q239.84-13.68 239.84-11.04L239.84-11.04ZM230.88-17.60Q228.24-17.60 226.62-16.04Q225.00-14.48 224.64-11.64L224.64-11.64L236.76-11.64Q236.44-14.44 234.92-16.02Q233.40-17.60 230.88-17.60L230.88-17.60Z M266.60-29.20L266.60-5.36Q266.60-3.84 267.06-3.26Q267.52-2.68 268.76-2.68L268.76-2.68Q269.60-2.68 270.22-2.80Q270.84-2.92 271.68-3.24L271.68-3.24L271.16-0.16Q269.84 0.40 268.20 0.40L268.20 0.40Q265.76 0.40 264.58-0.92Q263.40-2.24 263.40-4.96L263.40-4.96L263.40-29.20L266.60-29.20Z M294.20-2.32Q295.00-2.32 295.80-2.52L295.80-2.52L295.60 0Q294.48 0.40 293.20 0.40L293.20 0.40Q291.64 0.40 290.74-0.28Q289.84-0.96 289.60-2.56L289.60-2.56Q288.68-1.16 286.90-0.38Q285.12 0.40 283.16 0.40L283.16 0.40Q280.20 0.40 278.28-0.98Q276.36-2.36 276.36-4.96L276.36-4.96Q276.36-7.24 278.36-8.90Q280.36-10.56 284.16-11.20L284.16-11.20L289.48-12.08L289.48-13.20Q289.48-15.20 288.24-16.40Q287.00-17.60 284.80-17.60L284.80-17.60Q282.80-17.60 281.34-16.64Q279.88-15.68 279.08-13.80L279.08-13.80L276.72-15.52Q277.52-17.76 279.70-19.08Q281.88-20.40 284.80-20.40L284.80-20.40Q288.36-20.40 290.52-18.68Q292.68-16.96 292.68-13.60L292.68-13.60L292.68-3.76Q292.68-3.04 293.04-2.68Q293.40-2.32 294.20-2.32L294.20-2.32ZM283.32-2.40Q285.84-2.40 287.66-3.60Q289.48-4.80 289.48-6.72L289.48-6.72L289.48-9.48L285.00-8.64Q282.32-8.16 281.00-7.26Q279.68-6.36 279.68-4.96L279.68-4.96Q279.68-3.72 280.64-3.06Q281.60-2.40 283.32-2.40L283.32-2.40Z M309.24 0.40Q306.36 0.40 304.04-0.74Q301.72-1.88 300.64-4.12L300.64-4.12L303.24-5.92Q303.92-4.16 305.60-3.28Q307.28-2.40 309.56-2.40L309.56-2.40Q311.92-2.40 313.16-3.24Q314.40-4.08 314.40-5.36L314.40-5.36Q314.40-6.52 313.24-7.22Q312.08-7.92 309.16-8.44L309.16-8.44Q306.28-8.96 304.60-9.70Q302.92-10.44 302.16-11.58Q301.40-12.72 301.40-14.40L301.40-14.40Q301.40-16.04 302.36-17.40Q303.32-18.76 305.12-19.58Q306.92-20.40 309.28-20.40L309.28-20.40Q312.48-20.40 314.42-19.22Q316.36-18.04 317.20-15.60L317.20-15.60L314.48-14Q313.84-15.92 312.54-16.76Q311.24-17.60 309.28-17.60L309.28-17.60Q307.32-17.60 305.96-16.72Q304.60-15.84 304.60-14.68L304.60-14.68Q304.60-13.36 305.78-12.64Q306.96-11.92 310-11.40L310-11.40Q314.16-10.72 315.88-9.36Q317.60-8 317.60-5.52L317.60-5.52Q317.60-3.80 316.58-2.46Q315.56-1.12 313.66-0.36Q311.76 0.40 309.24 0.40L309.24 0.40Z M345.16-23.04L345.16-20L351.84-20L351.84-17.24L345.16-17.24L345.16 0L341.96 0L341.96-17.24L337.96-17.24L337.96-20L341.96-20L341.96-23.36Q341.96-26.12 343.64-27.76Q345.32-29.40 348.52-29.40L348.52-29.40Q349.60-29.40 350.50-29.16Q351.40-28.92 351.92-28.48L351.92-28.48L351.08-25.88Q350.12-26.48 348.80-26.48L348.80-26.48Q345.16-26.48 345.16-23.04L345.16-23.04Z M367.56-20.40Q369.00-20.40 369.76-20L369.76-20L369.12-16.88Q368.16-17.40 366.60-17.40L366.60-17.40Q365.32-17.40 364.10-16.66Q362.88-15.92 362.10-14.42Q361.32-12.92 361.32-10.80L361.32-10.80L361.32 0L358.12 0L358.12-20L360.72-20L361.16-16.72Q362.84-20.40 367.56-20.40L367.56-20.40Z M384.24-20.40Q388.76-20.40 391.34-17.64Q393.92-14.88 393.92-10L393.92-10Q393.92-5.12 391.34-2.36Q388.76 0.40 384.24 0.40L384.24 0.40Q379.72 0.40 377.14-2.36Q374.56-5.12 374.56-10L374.56-10Q374.56-14.88 377.14-17.64Q379.72-20.40 384.24-20.40L384.24-20.40ZM384.24-17.64Q381.20-17.64 379.48-15.60Q377.76-13.56 377.76-10L377.76-10Q377.76-6.44 379.48-4.40Q381.20-2.36 384.24-2.36L384.24-2.36Q387.28-2.36 389.00-4.40Q390.72-6.44 390.72-10L390.72-10Q390.72-13.56 389.00-15.60Q387.28-17.64 384.24-17.64L384.24-17.64Z M411.84-20.40Q415.24-20.40 417.44-18.44Q419.64-16.48 419.64-12.80L419.64-12.80L419.64 0L416.44 0L416.44-11.68Q416.44-14.80 415.10-16.20Q413.76-17.60 411.52-17.60L411.52-17.60Q409.92-17.60 408.52-16.90Q407.12-16.20 406.22-14.62Q405.32-13.04 405.32-10.64L405.32-10.64L405.32 0L402.12 0L402.12-20L404.92-20L405.12-16.88Q406.12-18.68 407.88-19.54Q409.64-20.40 411.84-20.40L411.84-20.40Z M439.72-4.08L440.84-1.40Q438.84 0.40 435.68 0.40L435.68 0.40Q433.24 0.40 431.70-0.92Q430.16-2.24 430.12-4.96L430.12-4.96L430.12-17.24L426.12-17.24L426.12-20L430.12-20L430.12-24.80L433.32-25.68L433.32-20L440.72-20L440.72-17.24L433.32-17.24L433.32-5.52Q433.32-4.08 434.14-3.34Q434.96-2.60 436.32-2.60L436.32-2.60Q438.24-2.60 439.72-4.08L439.72-4.08Z M464.52-11.04Q464.52-9.92 464.36-8.80L464.36-8.80L449.28-8.80Q449.56-5.76 451.30-4.08Q453.04-2.40 455.80-2.40L455.80-2.40Q458.00-2.40 459.46-3.16Q460.92-3.92 461.44-5.36L461.44-5.36L464.12-3.96Q462.92-1.84 460.92-0.72Q458.92 0.40 455.80 0.40L455.80 0.40Q451.28 0.40 448.70-2.36Q446.12-5.12 446.12-10L446.12-10Q446.12-14.88 448.58-17.64Q451.04-20.40 455.56-20.40L455.56-20.40Q458.36-20.40 460.40-19.16Q462.44-17.92 463.48-15.80Q464.52-13.68 464.52-11.04L464.52-11.04ZM455.56-17.60Q452.92-17.60 451.30-16.04Q449.68-14.48 449.32-11.64L449.32-11.64L461.44-11.64Q461.12-14.44 459.60-16.02Q458.08-17.60 455.56-17.60L455.56-17.60Z M482.04-20.40Q483.48-20.40 484.24-20L484.24-20L483.60-16.88Q482.64-17.40 481.08-17.40L481.08-17.40Q479.80-17.40 478.58-16.66Q477.36-15.92 476.58-14.42Q475.80-12.92 475.80-10.80L475.80-10.80L475.80 0L472.60 0L472.60-20L475.20-20L475.64-16.72Q477.32-20.40 482.04-20.40L482.04-20.40Z M506.76-2.32Q507.56-2.32 508.36-2.52L508.36-2.52L508.16 0Q507.04 0.40 505.76 0.40L505.76 0.40Q504.20 0.40 503.30-0.28Q502.40-0.96 502.16-2.56L502.16-2.56Q501.24-1.16 499.46-0.38Q497.68 0.40 495.72 0.40L495.72 0.40Q492.76 0.40 490.84-0.98Q488.92-2.36 488.92-4.96L488.92-4.96Q488.92-7.24 490.92-8.90Q492.92-10.56 496.72-11.20L496.72-11.20L502.04-12.08L502.04-13.20Q502.04-15.20 500.80-16.40Q499.56-17.60 497.36-17.60L497.36-17.60Q495.36-17.60 493.90-16.64Q492.44-15.68 491.64-13.80L491.64-13.80L489.28-15.52Q490.08-17.76 492.26-19.08Q494.44-20.40 497.36-20.40L497.36-20.40Q500.92-20.40 503.08-18.68Q505.24-16.96 505.24-13.60L505.24-13.60L505.24-3.76Q505.24-3.04 505.60-2.68Q505.96-2.32 506.76-2.32L506.76-2.32ZM495.88-2.40Q498.40-2.40 500.22-3.60Q502.04-4.80 502.04-6.72L502.04-6.72L502.04-9.48L497.56-8.64Q494.88-8.16 493.56-7.26Q492.24-6.36 492.24-4.96L492.24-4.96Q492.24-3.72 493.20-3.06Q494.16-2.40 495.88-2.40L495.88-2.40Z M521.80 0.40Q518.92 0.40 516.60-0.74Q514.28-1.88 513.20-4.12L513.20-4.12L515.80-5.92Q516.48-4.16 518.16-3.28Q519.84-2.40 522.12-2.40L522.12-2.40Q524.48-2.40 525.72-3.24Q526.96-4.08 526.96-5.36L526.96-5.36Q526.96-6.52 525.80-7.22Q524.64-7.92 521.72-8.44L521.72-8.44Q518.84-8.96 517.16-9.70Q515.48-10.44 514.72-11.58Q513.96-12.72 513.96-14.40L513.96-14.40Q513.96-16.04 514.92-17.40Q515.88-18.76 517.68-19.58Q519.48-20.40 521.84-20.40L521.84-20.40Q525.04-20.40 526.98-19.22Q528.92-18.04 529.76-15.60L529.76-15.60L527.04-14Q526.40-15.92 525.10-16.76Q523.80-17.60 521.84-17.60L521.84-17.60Q519.88-17.60 518.52-16.72Q517.16-15.84 517.16-14.68L517.16-14.68Q517.16-13.36 518.34-12.64Q519.52-11.92 522.56-11.40L522.56-11.40Q526.72-10.72 528.44-9.36Q530.16-8 530.16-5.52L530.16-5.52Q530.16-3.80 529.14-2.46Q528.12-1.12 526.22-0.36Q524.32 0.40 521.80 0.40L521.80 0.40Z"/></g>
</svg>
</g><g opacity="1" transform="rotate(0 30.3707 167.7456)">
<svg width="365.7416" height="28" x="30.3707" y="167.7456" version="1.1" preserveAspectRatio="none" viewBox="0.8 -27.24 361.03999999999996 27.64">
  <g transform="matrix(1 0 0 1 0 0)" class="companyName"><path id="id-D6z1nYkh18" d="M4-18.84L4-0.80L7.20-0.80L7.20 0L0.80 0L0.80-0.80L3.20-0.80L3.20-19.84Q1.92-21.60 0.80-21.60L0.80-21.60L0.80-22.40L8.28-22.40L19.52-9.08L19.52-21.60L16.32-21.60L16.32-22.40L23.12-22.40L23.12-21.60L20.32-21.60L20.32 0.40L19.52 0.40L4-18.84Z M43.20-8L43.20-8L31.12-8Q31.52-0.96 36.60-0.96L36.60-0.96Q37.96-0.96 39.70-1.60Q41.44-2.24 42.24-3.40L42.24-3.40L42.80-3Q41.92-1.52 39.80-0.56Q37.68 0.40 35.58 0.40Q33.48 0.40 31.80-0.02Q30.12-0.44 28.52-1.44Q26.92-2.44 26.02-4.44Q25.12-6.44 25.12-9.28L25.12-9.28Q25.12-14.12 27.80-16.46Q30.48-18.80 34.30-18.80Q38.12-18.80 40.66-16.24Q43.20-13.68 43.20-8ZM31.08-9.24L31.08-8.80L37.60-8.80Q37.60-12.48 36.82-15.24Q36.04-18 34.32-18Q32.60-18 31.84-15.34Q31.08-12.68 31.08-9.24L31.08-9.24Z M46.80-17.60L44.92-17.60L44.92-18.40L55.72-18.40L55.72-17.60L53.60-17.60L57.92-7.92L60.52-14.44L59.20-17.60L57.72-17.60L57.72-18.40L67.72-18.40L67.72-17.60L65.96-17.60L70.28-7.92L74-17.60L70.80-17.60L70.80-18.40L77.32-18.40L77.32-17.60L74.92-17.60L68.16 0L67.32 0L61-13.24L55.76 0L54.92 0L46.80-17.60Z M111.40-22.40L111.40-21.60L109.40-21.60L109.40-0.80L111.40-0.80L111.40 0L101.40 0L101.40-0.80L103.40-0.80L103.40-11.52L95.52-11.52L95.52-0.80L97.52-0.80L97.52 0L87.52 0L87.52-0.80L89.52-0.80L89.52-21.60L87.52-21.60L87.52-22.40L97.52-22.40L97.52-21.60L95.52-21.60L95.52-12.32L103.40-12.32L103.40-21.60L101.40-21.60L101.40-22.40L111.40-22.40Z M120.80-2.42Q121.68-0.40 123.84-0.40Q126-0.40 126.92-2.44Q127.84-4.48 127.84-9.18Q127.84-13.88 126.92-15.94Q126-18 123.84-18Q121.68-18 120.80-15.94Q119.92-13.88 119.92-9.16Q119.92-4.44 120.80-2.42ZM123.76 0.40Q119.96 0.40 116.88-2.08Q113.80-4.56 113.80-9.12L113.80-9.12Q113.80-11.56 114.70-13.48Q115.60-15.40 117.10-16.52Q118.60-17.64 120.32-18.22Q122.04-18.80 123.84-18.80Q125.64-18.80 127.38-18.22Q129.12-17.64 130.62-16.52Q132.12-15.40 133.04-13.48Q133.96-11.56 133.96-9.16Q133.96-6.76 133.04-4.88Q132.12-3 130.60-1.88L130.60-1.88Q127.56 0.40 123.76 0.40Z M146.76-0.80L146.76 0L136.76 0L136.76-0.80L138.76-0.80L138.76-17.60L136.76-17.60L136.76-18.40L144.76-18.40L144.76-13.64Q145.12-15.60 146.06-16.84Q147-18.08 148.14-18.48Q149.28-18.88 150.34-18.88Q151.40-18.88 152.38-18.50Q153.36-18.12 153.84-16.98Q154.32-15.84 153.88-14.70Q153.44-13.56 152.34-13.08Q151.24-12.60 150.32-12.96Q149.40-13.32 149-13.94Q148.60-14.56 148.44-15.12L148.44-15.12Q148.04-16.60 147.36-16.60L147.36-16.60Q146.60-16.60 145.68-13.98Q144.76-11.36 144.76-8.44L144.76-8.44L144.76-0.80L146.76-0.80Z M164.08-18.40L164.08-0.80L166.08-0.80L166.08 0L156.08 0L156.08-0.80L158.08-0.80L158.08-17.60L156.48-17.60L156.48-18.40L164.08-18.40ZM164.44-23.70Q164.44-22.24 163.42-21.22Q162.40-20.20 160.94-20.20Q159.48-20.20 158.44-21.22Q157.40-22.24 157.40-23.70Q157.40-25.16 158.44-26.20Q159.48-27.24 160.94-27.24Q162.40-27.24 163.42-26.20Q164.44-25.16 164.44-23.70Z M185.52 0L167.68 0L167.68-0.60L179-17.60L176.64-17.60Q169.56-17.60 169.56-11L169.56-11L168.92-11L168.92-18.40L185.76-18.40L185.76-17.92L174.56-0.80L177-0.80Q179.16-0.80 180.48-1.04Q181.80-1.28 182.88-2L182.88-2Q184.96-3.40 184.96-7.96L184.96-7.96L185.52-7.96L185.52 0Z M195.56-2.42Q196.44-0.40 198.60-0.40Q200.76-0.40 201.68-2.44Q202.60-4.48 202.60-9.18Q202.60-13.88 201.68-15.94Q200.76-18 198.60-18Q196.44-18 195.56-15.94Q194.68-13.88 194.68-9.16Q194.68-4.44 195.56-2.42ZM198.52 0.40Q194.72 0.40 191.64-2.08Q188.56-4.56 188.56-9.12L188.56-9.12Q188.56-11.56 189.46-13.48Q190.36-15.40 191.86-16.52Q193.36-17.64 195.08-18.22Q196.80-18.80 198.60-18.80Q200.40-18.80 202.14-18.22Q203.88-17.64 205.38-16.52Q206.88-15.40 207.80-13.48Q208.72-11.56 208.72-9.16Q208.72-6.76 207.80-4.88Q206.88-3 205.36-1.88L205.36-1.88Q202.32 0.40 198.52 0.40Z M232.52-11.12L232.52-0.80L234.52-0.80L234.52 0L224.52 0L224.52-0.80L226.52-0.80L226.52-12Q226.52-14.84 225.68-16.04Q224.84-17.24 223.16-17.24L223.16-17.24Q220.88-17.24 219.52-14.84L219.52-14.84L219.52-0.80L221.52-0.80L221.52 0L211.52 0L211.52-0.80L213.52-0.80L213.52-17.60L211.52-17.60L211.52-18.40L219.52-18.40L219.52-16.32Q220.28-17.36 221.90-18.10Q223.52-18.84 225.40-18.84L225.40-18.84Q232.52-18.84 232.52-11.12L232.52-11.12Z M266.28-15.60L265.48-15.60Q265.48-19.16 264.30-20.38Q263.12-21.60 259.88-21.60L259.88-21.60L258.68-21.60L258.68-0.80L261.48-0.80L261.48 0L249.88 0L249.88-0.80L252.68-0.80L252.68-21.60L251.48-21.60Q248.28-21.60 247.10-20.38Q245.92-19.16 245.92-15.60L245.92-15.60L245.12-15.60L245.12-22.40L266.28-22.40L266.28-15.60Z M278.68-0.80L278.68 0L268.68 0L268.68-0.80L270.68-0.80L270.68-17.60L268.68-17.60L268.68-18.40L276.68-18.40L276.68-13.64Q277.04-15.60 277.98-16.84Q278.92-18.08 280.06-18.48Q281.20-18.88 282.26-18.88Q283.32-18.88 284.30-18.50Q285.28-18.12 285.76-16.98Q286.24-15.84 285.80-14.70Q285.36-13.56 284.26-13.08Q283.16-12.60 282.24-12.96Q281.32-13.32 280.92-13.94Q280.52-14.56 280.36-15.12L280.36-15.12Q279.96-16.60 279.28-16.60L279.28-16.60Q278.52-16.60 277.60-13.98Q276.68-11.36 276.68-8.44L276.68-8.44L276.68-0.80L278.68-0.80Z M307.40-0.80Q307.00-0.40 305.88-0.10Q304.76 0.20 303.28 0.20L303.28 0.20Q300.00 0.20 299.16-1.76L299.16-1.76Q297.16 0.32 293.04 0.32L293.04 0.32Q290.84 0.32 289.42-0.70Q288.00-1.72 288.00-3.72L288.00-3.72Q288.00-6.40 290.08-7.86Q292.16-9.32 297.36-9.92L297.36-9.92L298.96-10.12L298.96-12.08Q298.96-15.56 298.44-16.76Q297.92-17.96 296.38-17.96Q294.84-17.96 294.40-17.54Q293.96-17.12 294.08-16.58Q294.20-16.04 294.48-15.16Q294.76-14.28 294.76-13.76L294.76-13.76Q294.76-12.52 293.90-11.66Q293.04-10.80 291.82-10.80Q290.60-10.80 289.72-11.66Q288.84-12.52 288.84-13.76L288.84-13.76Q288.84-15.80 290.94-17.26Q293.04-18.72 297.22-18.72Q301.40-18.72 303.18-17.08Q304.96-15.44 304.96-11.28L304.96-11.28L304.96-4.08Q304.96-1.96 305.48-1.42Q306.00-0.88 307.40-1.20L307.40-1.20L307.40-0.80ZM293.56-4.52Q293.76-3 294.68-2.18Q295.60-1.36 296.82-1.36Q298.04-1.36 298.96-2.56L298.96-2.56L298.96-9.36L297.52-9.16Q295.68-8.92 294.54-7.76Q293.40-6.60 293.56-4.52L293.56-4.52Z M323.24-18.40L329.24-18.40L329.24-17.60L327.28-17.60L319.80 0L319.08 0L310.20-17.60L308.60-17.60L308.60-18.40L319.00-18.40L319.00-17.60L317.00-17.60L321.96-7.20L326.40-17.60L323.24-17.60L323.24-18.40Z M348.92-8L348.92-8L336.84-8Q337.24-0.96 342.32-0.96L342.32-0.96Q343.68-0.96 345.42-1.60Q347.16-2.24 347.96-3.40L347.96-3.40L348.52-3Q347.64-1.52 345.52-0.56Q343.40 0.40 341.30 0.40Q339.20 0.40 337.52-0.02Q335.84-0.44 334.24-1.44Q332.64-2.44 331.74-4.44Q330.84-6.44 330.84-9.28L330.84-9.28Q330.84-14.12 333.52-16.46Q336.20-18.80 340.02-18.80Q343.84-18.80 346.38-16.24Q348.92-13.68 348.92-8ZM336.80-9.24L336.80-8.80L343.32-8.80Q343.32-12.48 342.54-15.24Q341.76-18 340.04-18Q338.32-18 337.56-15.34Q336.80-12.68 336.80-9.24L336.80-9.24Z M359.84-26.80L359.84-0.80L361.84-0.80L361.84 0L351.84 0L351.84-0.80L353.84-0.80L353.84-26L351.84-26L351.84-26.80L359.84-26.80Z"/></g>
</svg>
</g></svg></svg>