<svg version="1.1" preserveAspectRatio="none" xmlns="http://www.w3.org/2000/svg" width="500" height="500" viewBox="0 0 500 500"><rect width="100%" height="100%" fill="#5CB8FF" fill-opacity="1"/><svg viewBox="288.553 150.5207 383.2303 221.3183" width="333" height="192.30993452240077" x="83.5px" y="153.845px" xmlns="http://www.w3.org/2000/svg" xmlns:xlink="http://www.w3.org/1999/xlink" preserveAspectRatio="none"><defs></defs><style>.companyName {fill:#FFFFFF;fill-opacity:1;}.icon1 {fill:#005477;fill-opacity:1;}.icon2 {fill:#FFFFFF;fill-opacity:1;}.icon3 {fill:#0017EB;fill-opacity:1;}.icon3-str {stroke:#0017EB;stroke-opacity:1;}.text {fill:#FFFFFF;fill-opacity:1;}</style><g opacity="1" transform="rotate(0 308.7345 352.639)">
<svg width="342.8673" height="19.2" x="308.7345" y="352.639" version="1.1" preserveAspectRatio="none" viewBox="3.32 -30.04 542.0799999999999 30.36">
  <g transform="matrix(1 0 0 1 0 0)" class="text"><path id="id-6izo4zJp25" d="M34.88 0L28.80 0L28.76-16.80L20.52-2.96L17.60-2.96L9.40-16.44L9.40 0L3.32 0L3.32-28L8.68-28L19.16-10.60L29.48-28L34.80-28L34.88 0Z M51.36-21.84Q56.36-21.84 59.04-19.46Q61.72-17.08 61.72-12.28L61.72-12.28L61.72 0L55.88 0L55.88-2.68Q54.12 0.32 49.32 0.32L49.32 0.32Q46.84 0.32 45.02-0.52Q43.20-1.36 42.24-2.84Q41.28-4.32 41.28-6.20L41.28-6.20Q41.28-9.20 43.54-10.92Q45.80-12.64 50.52-12.64L50.52-12.64L55.48-12.64Q55.48-14.68 54.24-15.78Q53.00-16.88 50.52-16.88L50.52-16.88Q48.80-16.88 47.14-16.34Q45.48-15.80 44.32-14.88L44.32-14.88L42.08-19.24Q43.84-20.48 46.30-21.16Q48.76-21.84 51.36-21.84L51.36-21.84ZM50.88-3.88Q52.48-3.88 53.72-4.62Q54.96-5.36 55.48-6.80L55.48-6.80L55.48-9L51.20-9Q47.36-9 47.36-6.48L47.36-6.48Q47.36-5.28 48.30-4.58Q49.24-3.88 50.88-3.88L50.88-3.88Z M76.20 0.32Q73.52 0.32 70.96-0.34Q68.40-1 66.88-2L66.88-2L68.96-6.48Q70.40-5.56 72.44-4.98Q74.48-4.40 76.44-4.40L76.44-4.40Q80.40-4.40 80.40-6.36L80.40-6.36Q80.40-7.28 79.32-7.68Q78.24-8.08 76-8.36L76-8.36Q73.36-8.76 71.64-9.28Q69.92-9.80 68.66-11.12Q67.40-12.44 67.40-14.88L67.40-14.88Q67.40-16.92 68.58-18.50Q69.76-20.08 72.02-20.96Q74.28-21.84 77.36-21.84L77.36-21.84Q79.64-21.84 81.90-21.34Q84.16-20.84 85.64-19.96L85.64-19.96L83.56-15.52Q80.72-17.12 77.36-17.12L77.36-17.12Q75.36-17.12 74.36-16.56Q73.36-16 73.36-15.12L73.36-15.12Q73.36-14.12 74.44-13.72Q75.52-13.32 77.88-12.96L77.88-12.96Q80.52-12.52 82.20-12.02Q83.88-11.52 85.12-10.20Q86.36-8.88 86.36-6.52L86.36-6.52Q86.36-4.52 85.16-2.96Q83.96-1.40 81.66-0.54Q79.36 0.32 76.20 0.32L76.20 0.32Z M113.40-21.84Q118.40-21.84 121.08-19.46Q123.76-17.08 123.76-12.28L123.76-12.28L123.76 0L117.92 0L117.92-2.68Q116.16 0.32 111.36 0.32L111.36 0.32Q108.88 0.32 107.06-0.52Q105.24-1.36 104.28-2.84Q103.32-4.32 103.32-6.20L103.32-6.20Q103.32-9.20 105.58-10.92Q107.84-12.64 112.56-12.64L112.56-12.64L117.52-12.64Q117.52-14.68 116.28-15.78Q115.04-16.88 112.56-16.88L112.56-16.88Q110.84-16.88 109.18-16.34Q107.52-15.80 106.36-14.88L106.36-14.88L104.12-19.24Q105.88-20.48 108.34-21.16Q110.80-21.84 113.40-21.84L113.40-21.84ZM112.92-3.88Q114.52-3.88 115.76-4.62Q117.00-5.36 117.52-6.80L117.52-6.80L117.52-9L113.24-9Q109.40-9 109.40-6.48L109.40-6.48Q109.40-5.28 110.34-4.58Q111.28-3.88 112.92-3.88L112.92-3.88Z M131.00 0L131.00-29.68L137.24-29.68L137.24 0L131.00 0Z M144.64 0L144.64-29.68L150.88-29.68L150.88 0L144.64 0Z M166.96-21.84Q171.96-21.84 174.64-19.46Q177.32-17.08 177.32-12.28L177.32-12.28L177.32 0L171.48 0L171.48-2.68Q169.72 0.32 164.92 0.32L164.92 0.32Q162.44 0.32 160.62-0.52Q158.80-1.36 157.84-2.84Q156.88-4.32 156.88-6.20L156.88-6.20Q156.88-9.20 159.14-10.92Q161.40-12.64 166.12-12.64L166.12-12.64L171.08-12.64Q171.08-14.68 169.84-15.78Q168.60-16.88 166.12-16.88L166.12-16.88Q164.40-16.88 162.74-16.34Q161.08-15.80 159.92-14.88L159.92-14.88L157.68-19.24Q159.44-20.48 161.90-21.16Q164.36-21.84 166.96-21.84L166.96-21.84ZM166.48-3.88Q168.08-3.88 169.32-4.62Q170.56-5.36 171.08-6.80L171.08-6.80L171.08-9L166.80-9Q162.96-9 162.96-6.48L162.96-6.48Q162.96-5.28 163.90-4.58Q164.84-3.88 166.48-3.88L166.48-3.88ZM163.96-24.28L169.36-30.04L176.08-30.04L168.84-24.28L163.96-24.28Z M213.16-29.68L219.40-29.68L219.40 0L213.44 0L213.44-2.48Q211.12 0.32 206.72 0.32L206.72 0.32Q203.68 0.32 201.22-1.04Q198.76-2.40 197.36-4.92Q195.96-7.44 195.96-10.76L195.96-10.76Q195.96-14.08 197.36-16.60Q198.76-19.12 201.22-20.48Q203.68-21.84 206.72-21.84L206.72-21.84Q210.84-21.84 213.16-19.24L213.16-19.24L213.16-29.68ZM207.80-4.80Q210.16-4.80 211.72-6.42Q213.28-8.04 213.28-10.76L213.28-10.76Q213.28-13.48 211.72-15.10Q210.16-16.72 207.80-16.72L207.80-16.72Q205.40-16.72 203.84-15.10Q202.28-13.48 202.28-10.76L202.28-10.76Q202.28-8.04 203.84-6.42Q205.40-4.80 207.80-4.80L207.80-4.80Z M247.84-10.68Q247.84-10.56 247.72-9L247.72-9L231.44-9Q231.88-7 233.52-5.84Q235.16-4.68 237.60-4.68L237.60-4.68Q239.28-4.68 240.58-5.18Q241.88-5.68 243.00-6.76L243.00-6.76L246.32-3.16Q243.28 0.32 237.44 0.32L237.44 0.32Q233.80 0.32 231.00-1.10Q228.20-2.52 226.68-5.04Q225.16-7.56 225.16-10.76L225.16-10.76Q225.16-13.92 226.66-16.46Q228.16-19 230.78-20.42Q233.40-21.84 236.64-21.84L236.64-21.84Q239.80-21.84 242.36-20.48Q244.92-19.12 246.38-16.58Q247.84-14.04 247.84-10.68L247.84-10.68ZM236.68-17.12Q234.56-17.12 233.12-15.92Q231.68-14.72 231.36-12.64L231.36-12.64L241.96-12.64Q241.64-14.68 240.20-15.90Q238.76-17.12 236.68-17.12L236.68-17.12Z M266.52 0L266.52-29.68L272.76-29.68L272.76 0L266.52 0Z M288.84-21.84Q293.84-21.84 296.52-19.46Q299.20-17.08 299.20-12.28L299.20-12.28L299.20 0L293.36 0L293.36-2.68Q291.60 0.32 286.80 0.32L286.80 0.32Q284.32 0.32 282.50-0.52Q280.68-1.36 279.72-2.84Q278.76-4.32 278.76-6.20L278.76-6.20Q278.76-9.20 281.02-10.92Q283.28-12.64 288.00-12.64L288.00-12.64L292.96-12.64Q292.96-14.68 291.72-15.78Q290.48-16.88 288.00-16.88L288.00-16.88Q286.28-16.88 284.62-16.34Q282.96-15.80 281.80-14.88L281.80-14.88L279.56-19.24Q281.32-20.48 283.78-21.16Q286.24-21.84 288.84-21.84L288.84-21.84ZM288.36-3.88Q289.96-3.88 291.20-4.62Q292.44-5.36 292.96-6.80L292.96-6.80L292.96-9L288.68-9Q284.84-9 284.84-6.48L284.84-6.48Q284.84-5.28 285.78-4.58Q286.72-3.88 288.36-3.88L288.36-3.88Z M313.68 0.32Q311.00 0.32 308.44-0.34Q305.88-1 304.36-2L304.36-2L306.44-6.48Q307.88-5.56 309.92-4.98Q311.96-4.40 313.92-4.40L313.92-4.40Q317.88-4.40 317.88-6.36L317.88-6.36Q317.88-7.28 316.80-7.68Q315.72-8.08 313.48-8.36L313.48-8.36Q310.84-8.76 309.12-9.28Q307.40-9.80 306.14-11.12Q304.88-12.44 304.88-14.88L304.88-14.88Q304.88-16.92 306.06-18.50Q307.24-20.08 309.50-20.96Q311.76-21.84 314.84-21.84L314.84-21.84Q317.12-21.84 319.38-21.34Q321.64-20.84 323.12-19.96L323.12-19.96L321.04-15.52Q318.20-17.12 314.84-17.12L314.84-17.12Q312.84-17.12 311.84-16.56Q310.84-16 310.84-15.12L310.84-15.12Q310.84-14.12 311.92-13.72Q313.00-13.32 315.36-12.96L315.36-12.96Q318.00-12.52 319.68-12.02Q321.36-11.52 322.60-10.20Q323.84-8.88 323.84-6.52L323.84-6.52Q323.84-4.52 322.64-2.96Q321.44-1.40 319.14-0.54Q316.84 0.32 313.68 0.32L313.68 0.32Z M349.04-21.96L349.04-21.04L354.56-21.04L354.56-16.24L349.20-16.24L349.20 0L342.96 0L342.96-16.24L339.64-16.24L339.64-21.04L342.96-21.04L342.96-22Q342.96-25.68 345.14-27.84Q347.32-30 351.28-30L351.28-30Q352.68-30 353.94-29.70Q355.20-29.40 356.04-28.84L356.04-28.84L354.40-24.32Q353.32-25.08 351.88-25.08L351.88-25.08Q349.04-25.08 349.04-21.96L349.04-21.96Z M368.44-18.68Q369.56-20.24 371.46-21.04Q373.36-21.84 375.84-21.84L375.84-21.84L375.84-16.08Q374.80-16.16 374.44-16.16L374.44-16.16Q371.76-16.16 370.24-14.66Q368.72-13.16 368.72-10.16L368.72-10.16L368.72 0L362.48 0L362.48-21.52L368.44-21.52L368.44-18.68Z M391.20 0.32Q387.80 0.32 385.10-1.10Q382.40-2.52 380.88-5.04Q379.36-7.56 379.36-10.76L379.36-10.76Q379.36-13.96 380.88-16.48Q382.40-19 385.10-20.42Q387.80-21.84 391.20-21.84L391.20-21.84Q394.60-21.84 397.28-20.42Q399.96-19 401.48-16.48Q403.00-13.96 403.00-10.76L403.00-10.76Q403.00-7.56 401.48-5.04Q399.96-2.52 397.28-1.10Q394.60 0.32 391.20 0.32L391.20 0.32ZM391.20-4.80Q393.60-4.80 395.14-6.42Q396.68-8.04 396.68-10.76L396.68-10.76Q396.68-13.48 395.14-15.10Q393.60-16.72 391.20-16.72L391.20-16.72Q388.80-16.72 387.24-15.10Q385.68-13.48 385.68-10.76L385.68-10.76Q385.68-8.04 387.24-6.42Q388.80-4.80 391.20-4.80L391.20-4.80Z M421.84-21.84Q425.84-21.84 428.30-19.44Q430.76-17.04 430.76-12.32L430.76-12.32L430.76 0L424.52 0L424.52-11.36Q424.52-13.92 423.40-15.18Q422.28-16.44 420.16-16.44L420.16-16.44Q417.80-16.44 416.40-14.98Q415.00-13.52 415.00-10.64L415.00-10.64L415.00 0L408.76 0L408.76-21.52L414.72-21.52L414.72-19Q415.96-20.36 417.80-21.10Q419.64-21.84 421.84-21.84L421.84-21.84Z M450.20-5.44L451.88-1.04Q450.96-0.36 449.62-0.02Q448.28 0.32 446.80 0.32L446.80 0.32Q442.96 0.32 440.86-1.64Q438.76-3.60 438.76-7.40L438.76-7.40L438.76-16.24L435.44-16.24L435.44-21.04L438.76-21.04L438.76-26.28L445.00-26.28L445.00-21.04L450.36-21.04L450.36-16.24L445.00-16.24L445.00-7.48Q445.00-6.12 445.70-5.38Q446.40-4.64 447.68-4.64L447.68-4.64Q449.16-4.64 450.20-5.44L450.20-5.44Z M477.40-10.68Q477.40-10.56 477.28-9L477.28-9L461.00-9Q461.44-7 463.08-5.84Q464.72-4.68 467.16-4.68L467.16-4.68Q468.84-4.68 470.14-5.18Q471.44-5.68 472.56-6.76L472.56-6.76L475.88-3.16Q472.84 0.32 467.00 0.32L467.00 0.32Q463.36 0.32 460.56-1.10Q457.76-2.52 456.24-5.04Q454.72-7.56 454.72-10.76L454.72-10.76Q454.72-13.92 456.22-16.46Q457.72-19 460.34-20.42Q462.96-21.84 466.20-21.84L466.20-21.84Q469.36-21.84 471.92-20.48Q474.48-19.12 475.94-16.58Q477.40-14.04 477.40-10.68L477.40-10.68ZM466.24-17.12Q464.12-17.12 462.68-15.92Q461.24-14.72 460.92-12.64L460.92-12.64L471.52-12.64Q471.20-14.68 469.76-15.90Q468.32-17.12 466.24-17.12L466.24-17.12Z M489.12-18.68Q490.24-20.24 492.14-21.04Q494.04-21.84 496.52-21.84L496.52-21.84L496.52-16.08Q495.48-16.16 495.12-16.16L495.12-16.16Q492.44-16.16 490.92-14.66Q489.40-13.16 489.40-10.16L489.40-10.16L489.40 0L483.16 0L483.16-21.52L489.12-21.52L489.12-18.68Z M510.40-21.84Q515.40-21.84 518.08-19.46Q520.76-17.08 520.76-12.28L520.76-12.28L520.76 0L514.92 0L514.92-2.68Q513.16 0.32 508.36 0.32L508.36 0.32Q505.88 0.32 504.06-0.52Q502.24-1.36 501.28-2.84Q500.32-4.32 500.32-6.20L500.32-6.20Q500.32-9.20 502.58-10.92Q504.84-12.64 509.56-12.64L509.56-12.64L514.52-12.64Q514.52-14.68 513.28-15.78Q512.04-16.88 509.56-16.88L509.56-16.88Q507.84-16.88 506.18-16.34Q504.52-15.80 503.36-14.88L503.36-14.88L501.12-19.24Q502.88-20.48 505.34-21.16Q507.80-21.84 510.40-21.84L510.40-21.84ZM509.92-3.88Q511.52-3.88 512.76-4.62Q514.00-5.36 514.52-6.80L514.52-6.80L514.52-9L510.24-9Q506.40-9 506.40-6.48L506.40-6.48Q506.40-5.28 507.34-4.58Q508.28-3.88 509.92-3.88L509.92-3.88Z M535.24 0.32Q532.56 0.32 530.00-0.34Q527.44-1 525.92-2L525.92-2L528.00-6.48Q529.44-5.56 531.48-4.98Q533.52-4.40 535.48-4.40L535.48-4.40Q539.44-4.40 539.44-6.36L539.44-6.36Q539.44-7.28 538.36-7.68Q537.28-8.08 535.04-8.36L535.04-8.36Q532.40-8.76 530.68-9.28Q528.96-9.80 527.70-11.12Q526.44-12.44 526.44-14.88L526.44-14.88Q526.44-16.92 527.62-18.50Q528.80-20.08 531.06-20.96Q533.32-21.84 536.40-21.84L536.40-21.84Q538.68-21.84 540.94-21.34Q543.20-20.84 544.68-19.96L544.68-19.96L542.60-15.52Q539.76-17.12 536.40-17.12L536.40-17.12Q534.40-17.12 533.40-16.56Q532.40-16 532.40-15.12L532.40-15.12Q532.40-14.12 533.48-13.72Q534.56-13.32 536.92-12.96L536.92-12.96Q539.56-12.52 541.24-12.02Q542.92-11.52 544.16-10.20Q545.40-8.88 545.40-6.52L545.40-6.52Q545.40-4.52 544.20-2.96Q543.00-1.40 540.70-0.54Q538.40 0.32 535.24 0.32L535.24 0.32Z"/></g>
</svg>
</g><g opacity="1" transform="rotate(0 288.553 304.639)">
<svg width="383.2303" height="32" x="288.553" y="304.639" version="1.1" preserveAspectRatio="none" viewBox="1.6 -31 377.47999999999996 31.52">
  <g transform="matrix(1 0 0 1 0 0)" class="companyName"><path id="id-D6z1nYkh18" d="M20.54-28.10Q20.92-28.80 21.68-29.04Q22.44-29.28 23.58-29.28Q24.72-29.28 25.42-29.08Q26.12-28.88 26.46-28.60Q26.80-28.32 26.96-27.76L26.96-27.76Q27.20-27.12 27.20-25.72L27.20-25.72L27.20-3.52Q27.20-2.56 27.14-2.12Q27.08-1.68 26.76-1.08L26.76-1.08Q26.20 0 23.64 0L23.64 0Q22.08 0 21.48-0.24Q20.88-0.48 20.48-1L20.48-1Q11.48-13 8.64-16.68L8.64-16.68L8.64-3.52Q8.64-2.56 8.58-2.12Q8.52-1.68 8.20-1.08L8.20-1.08Q7.64 0 5.08 0L5.08 0Q2.60 0 2.04-1.08L2.04-1.08Q1.72-1.68 1.66-2.16Q1.60-2.64 1.60-3.56L1.60-3.56L1.60-25.88Q1.60-27.40 1.98-28.10Q2.36-28.80 3.12-29.04Q3.88-29.28 5.08-29.28Q6.28-29.28 6.98-29.06Q7.68-28.84 7.96-28.56L7.96-28.56Q8.12-28.44 8.88-27.52L8.88-27.52Q17.32-16.04 20.16-12.36L20.16-12.36L20.16-25.88Q20.16-27.40 20.54-28.10Z M50.72-13.06Q50.72-10.60 49.50-9.42Q48.28-8.24 46.80-8.24L46.80-8.24L37.32-8.24Q37.32-7.12 38.64-6.36Q39.96-5.60 41.28-5.60L41.28-5.60Q43.60-5.60 44.92-6.08L44.92-6.08L45.36-6.24Q46.32-6.68 46.96-6.68L46.96-6.68Q48.24-6.68 49.16-4.88L49.16-4.88Q49.68-3.80 49.68-3.04L49.68-3.04Q49.68 0.52 41.16 0.52L41.16 0.52Q38.20 0.52 35.90-0.50Q33.60-1.52 32.32-3.20L32.32-3.20Q29.80-6.44 29.80-10.44L29.80-10.44Q29.80-15.48 33.06-18.50Q36.32-21.52 41.20-21.52L41.20-21.52Q46.76-21.52 49.36-17.60L49.36-17.60Q50.72-15.52 50.72-13.06ZM37.24-11.88L42.28-11.88Q43.80-11.88 43.80-13.16L43.80-13.16Q43.80-14.08 43.10-14.64Q42.40-15.20 41.10-15.20Q39.80-15.20 38.52-14.14Q37.24-13.08 37.24-11.88L37.24-11.88Z M79.08-20.92L79.08-20.92Q81.64-19.80 81.64-18.16L81.64-18.16Q81.64-17.48 81-15.98Q80.36-14.48 79.92-13.36L79.92-13.36L75.52-2.64Q74.92-0.88 73.52-0.16L73.52-0.16Q72.92 0.12 72 0.12Q71.08 0.12 70.22-0.58Q69.36-1.28 69.08-2L69.08-2L68.76-2.68Q68.44-3.48 66.40-8.92L66.40-8.92Q66-7.96 65.22-5.78Q64.44-3.60 64.22-3.06Q64-2.52 63.94-2.34Q63.88-2.16 63.60-1.68Q63.32-1.20 62.96-0.84L62.96-0.84Q62 0.12 60.76 0.12Q59.52 0.12 58.68-0.58Q57.84-1.28 57.56-2L57.56-2L51.52-16.72Q51.12-17.92 51.12-18.28L51.12-18.28Q51.12-19.88 53.40-20.80L53.40-20.80Q54.68-21.32 55.48-21.32Q56.28-21.32 56.78-20.98Q57.28-20.64 57.48-20.30Q57.68-19.96 57.80-19.60L57.80-19.60Q58.48-18 60.64-12.08L60.64-12.08L63-18.56Q63.24-19.36 63.88-19.96L63.88-19.96Q65.04-21.12 66.24-21.12Q67.44-21.12 68.30-20.48Q69.16-19.84 69.48-19.20L69.48-19.20L69.80-18.52Q71.80-12.92 72.16-12.12L72.16-12.12L74.60-18.76Q75.56-21.32 77.48-21.32L77.48-21.32Q78.24-21.32 79.08-20.92Z M112.08-28.24Q112.40-28.84 113.16-29.08Q113.92-29.32 115.08-29.32Q116.24-29.32 116.92-29.12Q117.60-28.92 117.96-28.64Q118.32-28.36 118.52-27.84L118.52-27.84Q118.72-27.16 118.72-25.76L118.72-25.76L118.72-3.56Q118.72-2.64 118.66-2.18Q118.60-1.72 118.28-1.12L118.28-1.12Q117.72-0.04 115.16-0.04L115.16-0.04Q112.36-0.04 111.88-1.52L111.88-1.52Q111.64-2.20 111.64-3.60L111.64-3.60L111.64-11.72L101.04-11.72L101.04-3.56Q101.04-2.64 100.98-2.18Q100.92-1.72 100.60-1.12L100.60-1.12Q100.04-0.04 97.48-0.04L97.48-0.04Q94.68-0.04 94.20-1.52L94.20-1.52Q93.96-2.20 93.96-3.60L93.96-3.60L93.96-25.80Q93.96-26.72 94.02-27.18Q94.08-27.64 94.40-28.24L94.40-28.24Q94.96-29.32 97.52-29.32L97.52-29.32Q100.32-29.32 100.84-27.84L100.84-27.84Q101.04-27.16 101.04-25.76L101.04-25.76L101.04-17.60L111.64-17.60L111.64-25.80Q111.64-26.72 111.70-27.18Q111.76-27.64 112.08-28.24Z M121.32-10.52Q121.32-15.32 124.68-18.44Q128.04-21.56 132.36-21.56Q136.68-21.56 140-18.46Q143.32-15.36 143.32-10.56L143.32-10.56Q143.32-7.24 141.60-4.66Q139.88-2.08 137.42-0.86Q134.96 0.36 132.32 0.36Q129.68 0.36 127.20-0.94Q124.72-2.24 123.02-4.78Q121.32-7.32 121.32-10.52L121.32-10.52ZM129.68-7.66Q130.96-6.68 132.28-6.68Q133.60-6.68 134.92-7.68Q136.24-8.68 136.24-10.64Q136.24-12.60 135-13.56Q133.76-14.52 132.32-14.52Q130.88-14.52 129.64-13.52Q128.40-12.52 128.40-10.58Q128.40-8.64 129.68-7.66Z M160.24-20.84Q161-20.60 161.50-20.02Q162-19.44 162-18.16Q162-16.88 161.24-15.36Q160.48-13.84 159.04-13.84L159.04-13.84Q158.32-13.84 157.66-14.16Q157-14.48 155.92-14.48Q154.84-14.48 153.90-13.72Q152.96-12.96 152.96-11.88L152.96-11.88L152.96-3.48Q152.96-2.56 152.90-2.10Q152.84-1.64 152.52-1.04L152.52-1.04Q151.92 0 149.40 0L149.40 0Q147.48 0 146.64-0.68L146.64-0.68Q146-1.24 145.92-2.40L145.92-2.40Q145.92-2.80 145.92-3.56L145.92-3.56L145.92-17.60Q145.92-18.52 145.98-18.98Q146.04-19.44 146.32-20L146.32-20Q146.88-21.08 149.44-21.08L149.44-21.08Q151.84-21.08 152.44-20.16L152.44-20.16Q152.88-19.52 152.88-18.84L152.88-18.84Q153.08-19.12 153.46-19.52Q153.84-19.92 155.08-20.60Q156.32-21.28 157.26-21.28Q158.20-21.28 158.84-21.18Q159.48-21.08 160.24-20.84Z M164.20-3.52L164.20-17.56Q164.20-18.48 164.26-18.94Q164.32-19.40 164.60-20L164.60-20Q165.16-21.04 167.72-21.04L167.72-21.04Q169.64-21.04 170.44-20.36L170.44-20.36Q171.12-19.80 171.16-18.64L171.16-18.64Q171.20-18.24 171.20-17.48L171.20-17.48L171.20-3.48Q171.20-2.56 171.14-2.10Q171.08-1.64 170.76-1.04L170.76-1.04Q170.24 0 167.68 0L167.68 0Q165.16 0 164.60-1.08L164.60-1.08Q164.32-1.68 164.26-2.12Q164.20-2.56 164.20-3.52L164.20-3.52ZM170.78-24.98Q170.48-24.40 169.72-24.16Q168.96-23.92 167.70-23.92Q166.44-23.92 165.68-24.16Q164.92-24.40 164.62-25Q164.32-25.60 164.26-26.06Q164.20-26.52 164.20-27.44Q164.20-28.36 164.26-28.82Q164.32-29.28 164.60-29.84L164.60-29.84Q165.16-30.92 167.72-30.92L167.72-30.92Q170.24-30.92 170.76-29.84L170.76-29.84Q171.08-29.24 171.14-28.78Q171.20-28.32 171.20-27.40Q171.20-26.48 171.14-26.02Q171.08-25.56 170.78-24.98Z M184.92-7.04L184.92-7.04L191.76-7.04Q193.36-7.04 194.06-6.64Q194.76-6.24 195.00-5.48Q195.24-4.72 195.24-3.48Q195.24-2.24 195.00-1.48Q194.76-0.72 194.16-0.42Q193.56-0.12 193.10-0.06Q192.64 0 191.72 0L191.72 0L177.28 0Q175.88 0 174.84-1.04Q173.80-2.08 173.80-3.52Q173.80-4.96 174.84-5.98Q175.88-7 178.04-8.92Q180.20-10.84 181.96-12.38Q183.72-13.92 183.88-14.08L183.88-14.08L178.24-14.08Q175.96-14.08 175.36-14.84L175.36-14.84Q174.68-15.72 174.68-17.16Q174.68-18.60 174.88-19.30Q175.08-20 175.36-20.34Q175.64-20.68 176.16-20.88L176.16-20.88Q176.84-21.08 178.24-21.08L178.24-21.08L191.24-21.08Q192.64-21.08 193.68-20.08Q194.72-19.08 194.72-17.58Q194.72-16.08 193.52-14.92Q192.32-13.76 184.92-7.04Z M197.24-10.52Q197.24-15.32 200.60-18.44Q203.96-21.56 208.28-21.56Q212.60-21.56 215.92-18.46Q219.24-15.36 219.24-10.56L219.24-10.56Q219.24-7.24 217.52-4.66Q215.80-2.08 213.34-0.86Q210.88 0.36 208.24 0.36Q205.60 0.36 203.12-0.94Q200.64-2.24 198.94-4.78Q197.24-7.32 197.24-10.52L197.24-10.52ZM205.60-7.66Q206.88-6.68 208.20-6.68Q209.52-6.68 210.84-7.68Q212.16-8.68 212.16-10.64Q212.16-12.60 210.92-13.56Q209.68-14.52 208.24-14.52Q206.80-14.52 205.56-13.52Q204.32-12.52 204.32-10.58Q204.32-8.64 205.60-7.66Z M233.56-21.08L233.56-21.08Q237.56-21.08 240.22-18.02Q242.88-14.96 242.88-10.56L242.88-10.56L242.88-3.52Q242.88-2.60 242.82-2.14Q242.76-1.68 242.48-1.12L242.48-1.12Q241.92-0.04 239.36-0.04L239.36-0.04Q236.52-0.04 236.08-1.52L236.08-1.52Q235.84-2.20 235.84-3.56L235.84-3.56L235.84-10.60Q235.84-12.24 234.90-13.16Q233.96-14.08 232.38-14.08Q230.80-14.08 229.82-13.12Q228.84-12.16 228.84-10.60L228.84-10.60L228.84-3.52Q228.84-2.60 228.78-2.14Q228.72-1.68 228.40-1.12L228.40-1.12Q227.88-0.04 225.32-0.04L225.32-0.04Q222.80-0.04 222.24-1.12L222.24-1.12Q221.96-1.72 221.90-2.18Q221.84-2.64 221.84-3.56L221.84-3.56L221.84-17.72Q221.84-18.60 221.90-19.06Q221.96-19.52 222.28-20.08L222.28-20.08Q222.84-21.08 225.36-21.08L225.36-21.08Q227.80-21.08 228.36-20.16L228.36-20.16Q228.76-19.48 228.76-18.52L228.76-18.52Q228.92-18.80 229.48-19.32Q230.04-19.84 230.56-20.16L230.56-20.16Q231.92-21.08 233.56-21.08Z M258.12-29.36L258.12-29.36L280.36-29.36Q281.64-29.36 282.24-29.06Q282.84-28.76 283.04-28.12Q283.24-27.48 283.24-26.44Q283.24-25.40 283.04-24.78Q282.84-24.16 282.36-23.92L282.36-23.92Q281.64-23.56 280.32-23.56L280.32-23.56L272.68-23.56L272.68-3.44Q272.68-2.52 272.62-2.08Q272.56-1.64 272.26-1.06Q271.96-0.48 271.20-0.24Q270.44 0 269.20 0Q267.96 0 267.22-0.24Q266.48-0.48 266.18-1.06Q265.88-1.64 265.82-2.10Q265.76-2.56 265.76-3.48L265.76-3.48L265.76-23.56L258.08-23.56Q256.80-23.56 256.20-23.86Q255.60-24.16 255.40-24.80Q255.20-25.44 255.20-26.48Q255.20-27.52 255.40-28.14Q255.60-28.76 256.08-29L256.08-29Q256.80-29.36 258.12-29.36Z M294.96-20.84Q295.72-20.60 296.22-20.02Q296.72-19.44 296.72-18.16Q296.72-16.88 295.96-15.36Q295.20-13.84 293.76-13.84L293.76-13.84Q293.04-13.84 292.38-14.16Q291.72-14.48 290.64-14.48Q289.56-14.48 288.62-13.72Q287.68-12.96 287.68-11.88L287.68-11.88L287.68-3.48Q287.68-2.56 287.62-2.10Q287.56-1.64 287.24-1.04L287.24-1.04Q286.64 0 284.12 0L284.12 0Q282.20 0 281.36-0.68L281.36-0.68Q280.72-1.24 280.64-2.40L280.64-2.40Q280.64-2.80 280.64-3.56L280.64-3.56L280.64-17.60Q280.64-18.52 280.70-18.98Q280.76-19.44 281.04-20L281.04-20Q281.60-21.08 284.16-21.08L284.16-21.08Q286.56-21.08 287.16-20.16L287.16-20.16Q287.60-19.52 287.60-18.84L287.60-18.84Q287.80-19.12 288.18-19.52Q288.56-19.92 289.80-20.60Q291.04-21.28 291.98-21.28Q292.92-21.28 293.56-21.18Q294.20-21.08 294.96-20.84Z M311.40-18.84L311.40-18.84Q311.64-21.08 314.56-21.08L314.56-21.08Q316.12-21.08 316.88-20.84Q317.64-20.60 317.94-20Q318.24-19.40 318.30-18.94Q318.36-18.48 318.36-17.56L318.36-17.56L318.36-3.56Q318.36-2.64 318.30-2.18Q318.24-1.72 317.96-1.12L317.96-1.12Q317.40-0.08 315.22-0.08Q313.04-0.08 312.30-0.62Q311.56-1.16 311.44-2.20L311.44-2.20Q309.96-0.08 306.50-0.08Q303.04-0.08 300.08-3.24Q297.12-6.40 297.12-10.58Q297.12-14.76 300.10-17.90Q303.08-21.04 306.64-21.04L306.64-21.04Q308.00-21.04 309.12-20.56Q310.24-20.08 310.68-19.66Q311.12-19.24 311.40-18.84ZM304.12-10.52Q304.12-9.20 305.16-8.14Q306.20-7.08 307.68-7.08Q309.16-7.08 310.14-8.16Q311.12-9.24 311.12-10.54Q311.12-11.84 310.18-12.96Q309.24-14.08 307.66-14.08Q306.08-14.08 305.10-12.96Q304.12-11.84 304.12-10.52Z M342.20-20.60L342.20-20.60Q344.28-19.36 344.28-17.96L344.28-17.96Q344.28-17.16 343.48-15.76L343.48-15.76L335.20-1.56Q334.80-0.88 333.92-0.34Q333.04 0.20 332.18 0.20Q331.32 0.20 330.54-0.22Q329.76-0.64 329.44-1.08L329.44-1.08L329.08-1.52L320.76-15.76Q319.96-17.08 319.96-17.92L319.96-17.92Q319.96-19.36 322.04-20.60L322.04-20.60Q323.56-21.48 324.44-21.48Q325.32-21.48 325.82-20.94Q326.32-20.40 326.88-19.32L326.88-19.32L332.12-9.24L337.36-19.32Q337.80-20.08 338.02-20.42Q338.24-20.76 338.72-21.10Q339.20-21.44 340.00-21.44Q340.80-21.44 342.20-20.60Z M365.60-13.06Q365.60-10.60 364.38-9.42Q363.16-8.24 361.68-8.24L361.68-8.24L352.20-8.24Q352.20-7.12 353.52-6.36Q354.84-5.60 356.16-5.60L356.16-5.60Q358.48-5.60 359.80-6.08L359.80-6.08L360.24-6.24Q361.20-6.68 361.84-6.68L361.84-6.68Q363.12-6.68 364.04-4.88L364.04-4.88Q364.56-3.80 364.56-3.04L364.56-3.04Q364.56 0.52 356.04 0.52L356.04 0.52Q353.08 0.52 350.78-0.50Q348.48-1.52 347.20-3.20L347.20-3.20Q344.68-6.44 344.68-10.44L344.68-10.44Q344.68-15.48 347.94-18.50Q351.20-21.52 356.08-21.52L356.08-21.52Q361.64-21.52 364.24-17.60L364.24-17.60Q365.60-15.52 365.60-13.06ZM352.12-11.88L357.16-11.88Q358.68-11.88 358.68-13.16L358.68-13.16Q358.68-14.08 357.98-14.64Q357.28-15.20 355.98-15.20Q354.68-15.20 353.40-14.14Q352.12-13.08 352.12-11.88L352.12-11.88Z M368.20-8.44L368.20-27.48Q368.20-28.40 368.26-28.86Q368.32-29.32 368.60-29.92L368.60-29.92Q369.16-31 371.72-31L371.72-31Q374.16-31 374.76-29.92L374.76-29.92Q375.08-29.32 375.14-28.84Q375.20-28.36 375.20-27.44L375.20-27.44L375.20-8.92Q375.20-7.48 375.44-7.10Q375.68-6.72 376.50-6.72Q377.32-6.72 377.60-6.66Q377.88-6.60 378.28-6.32L378.28-6.32Q379.08-5.80 379.08-3.48L379.08-3.48Q379.08-0.96 378.28-0.40L378.28-0.40Q377.24 0.32 373.32-0.16L373.32-0.16Q370.24-0.56 369.32-2.20L369.32-2.20Q368.20-4.16 368.20-8.44L368.20-8.44Z"/></g>
</svg>
</g><g opacity="1" transform="rotate(0 422.6836 150.5207)">
<svg width="114.9691" height="114.1183" x="422.6836" y="150.5207" version="1.1" preserveAspectRatio="none" viewBox="11.80000114440918 12.245500564575195 77.1252670288086 76.55450439453125">
  <g transform="matrix(1 0 0 1 0 0)" class="icon1"><path d="M66.8,17.9C66.8,17.9,66.8,17.9,66.8,17.9L47.1,37.7l-11.7,0.2c0.8-0.8,3.4-3.9,2-8.9c-0.1-0.3-0.4-0.6-0.7-0.7  c-5.5-1.6-8.8,1.9-9,2.1L16.9,41.1c-0.4,0.4-0.4,1,0,1.4l6.2,6.2c0.2,0.2,0.5,0.3,0.7,0.3s0.5-0.1,0.7-0.3l0.6-0.6l5.8,5.8l-1.5,1.5  c-0.2,0.2-0.3,0.4-0.3,0.7s0.1,0.5,0.3,0.7l0.4,0.4l-2.3,2.3c-0.2,0.2-0.3,0.4-0.3,0.7s0.1,0.5,0.3,0.7l4.8,4.8l-6.6,6.6  c-0.4,0.4-0.4,1,0,1.4c0.2,0.2,0.5,0.3,0.7,0.3s0.5-0.1,0.7-0.3l6.6-6.6l1.6,1.6L21.3,82.8c-0.4,0.4-0.4,1,0,1.4  c0.2,0.2,0.5,0.3,0.7,0.3s0.5-0.1,0.7-0.3l14.1-14.1l3.5,3.5c0.2,0.2,0.5,0.3,0.7,0.3s0.5-0.1,0.7-0.3l2.3-2.3l0.4,0.4  c0.2,0.2,0.4,0.3,0.7,0.3s0.5-0.1,0.7-0.3l1.5-1.5l5.9,5.9l-0.6,0.6c-0.4,0.4-0.4,1,0,1.4l6.2,6.2c0.2,0.2,0.5,0.3,0.7,0.3  s0.5-0.1,0.7-0.3l10.7-10.7c0.3-0.3,3.7-3.6,2.1-9c-0.1-0.3-0.4-0.6-0.7-0.7c-5-1.4-8.1,1.2-8.9,2L63.6,54l19.6-19.6c0,0,0,0,0,0  c0.8-0.7,8.3-8,4.8-20.5c-0.1-0.3-0.4-0.6-0.7-0.7C74.9,9.6,67.4,17.3,66.8,17.9z M35.5,30c0.6,2.8-0.4,4.8-1.1,5.8l-4.7-4.7  C30.8,30.4,32.8,29.4,35.5,30z M19,41.8l9.3-9.3l4.8,4.8l-9.3,9.3L19,41.8z M26.5,46.7l6.8-6.8L45,39.7L32.3,52.4L26.5,46.7z   M41,71.5L29.6,60.2l1.6-1.6L42.6,70L41,71.5z M59.5,82.3l-4.8-4.8l9.3-9.3l4.8,4.8L59.5,82.3z M71.2,65.7c0.6,2.8-0.4,4.8-1.1,5.8  l-4.7-4.7C66.4,66.1,68.4,65.1,71.2,65.7z M61.4,67.9l-6.8,6.8l-5.9-5.9L61.6,56L61.4,67.9z M45.1,69.7L31.5,56.1l36-36l13.6,13.6  L45.1,69.7z M82.5,32.3L68.9,18.7c2-1.7,8.1-6.1,17.3-3.7C88.7,24.3,84.3,30.3,82.5,32.3z"></path><path d="M62.8,29.3c-2.5,2.5-2.5,6.6,0,9.1c1.3,1.3,2.9,1.9,4.6,1.9s3.3-0.6,4.6-1.9c1.2-1.2,1.9-2.8,1.9-4.6c0-1.7-0.7-3.3-1.9-4.6  c-1.2-1.2-2.8-1.9-4.6-1.9S64,28.1,62.8,29.3z M70.5,37c-0.8,0.8-2,1.3-3.1,1.3S65,37.8,64.2,37c-1.7-1.7-1.7-4.6,0-6.3  c1.7-1.7,4.6-1.7,6.3,0S72.2,35.2,70.5,37z"></path><path d="M65.2,32.7c0.4,0.4,1,0.4,1.4,0c0.4-0.4,1.2-0.4,1.6,0c0.2,0.2,0.5,0.3,0.7,0.3s0.5-0.1,0.7-0.3c0.4-0.4,0.4-1,0-1.4  c-1.2-1.2-3.2-1.2-4.4,0C64.8,31.7,64.8,32.3,65.2,32.7z"></path><path d="M26.1,68c0.3,0,0.5-0.1,0.7-0.3l2.1-2.1c0.4-0.4,0.4-1,0-1.4c-0.4-0.4-1-0.4-1.4,0l-2.1,2.1c-0.4,0.4-0.4,1,0,1.4  C25.6,67.9,25.9,68,26.1,68z"></path><path d="M12.8,87.4c0.3,0,0.5-0.1,0.7-0.3l10.9-10.9c0.4-0.4,0.4-1,0-1.4s-1-0.4-1.4,0L12.1,85.7c-0.4,0.4-0.4,1,0,1.4  C12.3,87.3,12.6,87.4,12.8,87.4z"></path><path d="M15.7,78.4c0.3,0,0.5-0.1,0.7-0.3l8-8c0.4-0.4,0.4-1,0-1.4s-1-0.4-1.4,0l-8,8c-0.4,0.4-0.4,1,0,1.4  C15.2,78.3,15.4,78.4,15.7,78.4z"></path><path d="M24.1,88.8c0.3,0,0.5-0.1,0.7-0.3l2.1-2.1c0.4-0.4,0.4-1,0-1.4s-1-0.4-1.4,0l-2.1,2.1c-0.4,0.4-0.4,1,0,1.4  C23.6,88.7,23.9,88.8,24.1,88.8z"></path><path d="M36,74.5l-8,8c-0.4,0.4-0.4,1,0,1.4c0.2,0.2,0.5,0.3,0.7,0.3s0.5-0.1,0.7-0.3l8-8c0.4-0.4,0.4-1,0-1.4S36.4,74.1,36,74.5z"></path></g>
</svg>
</g></svg></svg>