<svg version="1.1" preserveAspectRatio="none" xmlns="http://www.w3.org/2000/svg" width="500" height="500" viewBox="0 0 500 500"><rect width="100%" height="100%" fill="#1A244D" fill-opacity="1"/><svg viewBox="482.5308 426.0815 496.2392 128" width="333" height="85.89406076746859" x="83.5px" y="207.053px" xmlns="http://www.w3.org/2000/svg" xmlns:xlink="http://www.w3.org/1999/xlink" preserveAspectRatio="none"><defs></defs><style>.background {fill:#1A244D;fill-opacity:1;}.icon1 {fill:#FFCC57;fill-opacity:1;}.icon1-str {stroke:#FFCC57;stroke-opacity:1;}.icon2 {fill:#3EA0C0;fill-opacity:1;}.icon3 {fill:#0AF9FF;fill-opacity:0.95;}.icon3-str {stroke:#0AF9FF;stroke-opacity:0.95;}</style><g opacity="1" transform="rotate(0 566.5307 426.0815)">
<svg width="412.2393" height="88" x="566.5307" y="426.0815" version="1.1" preserveAspectRatio="none" viewBox="0 0 412.2393 88">
  <defs><rect x="0" y="0" width="412.2393" height="88" rx="0px" ry="0px" id="id-B7crM0kCi1674869343433"></rect></defs><use class="icon1 icon3-str" style="stroke-width:0;" xlink:href="#id-B7crM0kCi1674869343433"></use>
</svg>
</g><g opacity="1" transform="rotate(0 589.7719 538.0815)">
<svg width="281.7571" height="16" x="589.7719" y="538.0815" version="1.1" preserveAspectRatio="none" viewBox="4.2 -29.92 531.1199999999999 30.160000000000004">
  <g transform="matrix(1 0 0 1 0 0)" class="icon1"><path id="id-6izo4zJp25" d="M34 0L30.16 0L30.12-20.40L20-3.40L18.16-3.40L8.04-20.28L8.04 0L4.20 0L4.20-28L7.48-28L19.16-8.32L30.68-28L33.96-28L34 0Z M51.56-21.40Q55.96-21.40 58.30-19.24Q60.64-17.08 60.64-12.80L60.64-12.80L60.64 0L57 0L57-2.80Q56.04-1.32 54.26-0.54Q52.48 0.24 50.04 0.24L50.04 0.24Q46.48 0.24 44.34-1.48Q42.20-3.20 42.20-6L42.20-6Q42.20-8.80 44.24-10.50Q46.28-12.20 50.72-12.20L50.72-12.20L56.80-12.20L56.80-12.96Q56.80-15.44 55.36-16.76Q53.92-18.08 51.12-18.08L51.12-18.08Q49.24-18.08 47.44-17.46Q45.64-16.84 44.40-15.80L44.40-15.80L42.80-18.68Q44.44-20 46.72-20.70Q49-21.40 51.56-21.40L51.56-21.40ZM50.68-2.72Q52.88-2.72 54.48-3.70Q56.08-4.68 56.80-6.48L56.80-6.48L56.80-9.44L50.88-9.44Q46-9.44 46-6.16L46-6.16Q46-4.56 47.24-3.64Q48.48-2.72 50.68-2.72L50.68-2.72Z M75.84 0.24Q73.24 0.24 70.84-0.46Q68.44-1.16 67.08-2.24L67.08-2.24L68.68-5.28Q70.08-4.28 72.08-3.68Q74.08-3.08 76.12-3.08L76.12-3.08Q81.16-3.08 81.16-5.96L81.16-5.96Q81.16-6.92 80.48-7.48Q79.80-8.04 78.78-8.30Q77.76-8.56 75.88-8.88L75.88-8.88Q73.32-9.28 71.70-9.80Q70.08-10.32 68.92-11.56Q67.76-12.80 67.76-15.04L67.76-15.04Q67.76-17.92 70.16-19.66Q72.56-21.40 76.60-21.40L76.60-21.40Q78.72-21.40 80.84-20.88Q82.96-20.36 84.32-19.48L84.32-19.48L82.68-16.44Q80.08-18.12 76.56-18.12L76.56-18.12Q74.12-18.12 72.84-17.32Q71.56-16.52 71.56-15.20L71.56-15.20Q71.56-14.16 72.28-13.56Q73-12.96 74.06-12.68Q75.12-12.40 77.04-12.04L77.04-12.04Q79.60-11.60 81.18-11.10Q82.76-10.60 83.88-9.40Q85-8.20 85-6.04L85-6.04Q85-3.16 82.54-1.46Q80.08 0.24 75.84 0.24L75.84 0.24Z M112.28-21.40Q116.68-21.40 119.02-19.24Q121.36-17.08 121.36-12.80L121.36-12.80L121.36 0L117.72 0L117.72-2.80Q116.76-1.32 114.98-0.54Q113.20 0.24 110.76 0.24L110.76 0.24Q107.20 0.24 105.06-1.48Q102.92-3.20 102.92-6L102.92-6Q102.92-8.80 104.96-10.50Q107-12.20 111.44-12.20L111.44-12.20L117.52-12.20L117.52-12.96Q117.52-15.44 116.08-16.76Q114.64-18.08 111.84-18.08L111.84-18.08Q109.96-18.08 108.16-17.46Q106.36-16.84 105.12-15.80L105.12-15.80L103.52-18.68Q105.16-20 107.44-20.70Q109.72-21.40 112.28-21.40L112.28-21.40ZM111.40-2.72Q113.60-2.72 115.20-3.70Q116.80-4.68 117.52-6.48L117.52-6.48L117.52-9.44L111.60-9.44Q106.72-9.44 106.72-6.16L106.72-6.16Q106.72-4.56 107.96-3.64Q109.20-2.72 111.40-2.72L111.40-2.72Z M130.48 0L130.48-29.68L134.32-29.68L134.32 0L130.48 0Z M143.64 0L143.64-29.68L147.48-29.68L147.48 0L143.64 0Z M164.52-21.40Q168.92-21.40 171.26-19.24Q173.60-17.08 173.60-12.80L173.60-12.80L173.60 0L169.96 0L169.96-2.80Q169-1.32 167.22-0.54Q165.44 0.24 163 0.24L163 0.24Q159.44 0.24 157.30-1.48Q155.16-3.20 155.16-6L155.16-6Q155.16-8.80 157.20-10.50Q159.24-12.20 163.68-12.20L163.68-12.20L169.76-12.20L169.76-12.96Q169.76-15.44 168.32-16.76Q166.88-18.08 164.08-18.08L164.08-18.08Q162.20-18.08 160.40-17.46Q158.60-16.84 157.36-15.80L157.36-15.80L155.76-18.68Q157.40-20 159.68-20.70Q161.96-21.40 164.52-21.40L164.52-21.40ZM163.64-2.72Q165.84-2.72 167.44-3.70Q169.04-4.68 169.76-6.48L169.76-6.48L169.76-9.44L163.84-9.44Q158.96-9.44 158.96-6.16L158.96-6.16Q158.96-4.56 160.20-3.64Q161.44-2.72 163.64-2.72L163.64-2.72ZM161.80-24.28L167.24-29.48L172.12-29.48L165.40-24.28L161.80-24.28Z M211.64-29.68L215.48-29.68L215.48 0L211.80 0L211.80-3.36Q210.52-1.60 208.56-0.68Q206.60 0.24 204.24 0.24L204.24 0.24Q201.16 0.24 198.72-1.12Q196.28-2.48 194.90-4.94Q193.52-7.40 193.52-10.60L193.52-10.60Q193.52-13.80 194.90-16.24Q196.28-18.68 198.72-20.04Q201.16-21.40 204.24-21.40L204.24-21.40Q206.52-21.40 208.44-20.54Q210.36-19.68 211.64-18L211.64-18L211.64-29.68ZM204.56-3.12Q206.56-3.12 208.20-4.06Q209.84-5 210.76-6.70Q211.68-8.40 211.68-10.60L211.68-10.60Q211.68-12.80 210.76-14.50Q209.84-16.20 208.20-17.12Q206.56-18.04 204.56-18.04L204.56-18.04Q202.52-18.04 200.90-17.12Q199.28-16.20 198.34-14.50Q197.40-12.80 197.40-10.60L197.40-10.60Q197.40-8.40 198.34-6.70Q199.28-5 200.90-4.06Q202.52-3.12 204.56-3.12L204.56-3.12Z M243.92-10.48Q243.92-10.04 243.84-9.32L243.84-9.32L226.64-9.32Q227.00-6.52 229.10-4.82Q231.20-3.12 234.32-3.12L234.32-3.12Q238.12-3.12 240.44-5.68L240.44-5.68L242.56-3.20Q241.12-1.52 238.98-0.64Q236.84 0.24 234.20 0.24L234.20 0.24Q230.84 0.24 228.24-1.14Q225.64-2.52 224.22-5Q222.80-7.48 222.80-10.60L222.80-10.60Q222.80-13.68 224.18-16.16Q225.56-18.64 227.98-20.02Q230.40-21.40 233.44-21.40L233.44-21.40Q236.48-21.40 238.86-20.02Q241.24-18.64 242.58-16.16Q243.92-13.68 243.92-10.48L243.92-10.48ZM233.44-18.16Q230.68-18.16 228.82-16.48Q226.96-14.80 226.64-12.08L226.64-12.08L240.24-12.08Q239.92-14.76 238.06-16.46Q236.20-18.16 233.44-18.16L233.44-18.16Z M264.00 0L264.00-29.68L267.84-29.68L267.84 0L264.00 0Z M284.88-21.40Q289.28-21.40 291.62-19.24Q293.96-17.08 293.96-12.80L293.96-12.80L293.96 0L290.32 0L290.32-2.80Q289.36-1.32 287.58-0.54Q285.80 0.24 283.36 0.24L283.36 0.24Q279.80 0.24 277.66-1.48Q275.52-3.20 275.52-6L275.52-6Q275.52-8.80 277.56-10.50Q279.60-12.20 284.04-12.20L284.04-12.20L290.12-12.20L290.12-12.96Q290.12-15.44 288.68-16.76Q287.24-18.08 284.44-18.08L284.44-18.08Q282.56-18.08 280.76-17.46Q278.96-16.84 277.72-15.80L277.72-15.80L276.12-18.68Q277.76-20 280.04-20.70Q282.32-21.40 284.88-21.40L284.88-21.40ZM284-2.72Q286.20-2.72 287.80-3.70Q289.40-4.68 290.12-6.48L290.12-6.48L290.12-9.44L284.20-9.44Q279.32-9.44 279.32-6.16L279.32-6.16Q279.32-4.56 280.56-3.64Q281.80-2.72 284-2.72L284-2.72Z M309.16 0.24Q306.56 0.24 304.16-0.46Q301.76-1.16 300.40-2.24L300.40-2.24L302-5.28Q303.40-4.28 305.40-3.68Q307.40-3.08 309.44-3.08L309.44-3.08Q314.48-3.08 314.48-5.96L314.48-5.96Q314.48-6.92 313.80-7.48Q313.12-8.04 312.10-8.30Q311.08-8.56 309.20-8.88L309.20-8.88Q306.64-9.28 305.02-9.80Q303.40-10.32 302.24-11.56Q301.08-12.80 301.08-15.04L301.08-15.04Q301.08-17.92 303.48-19.66Q305.88-21.40 309.92-21.40L309.92-21.40Q312.04-21.40 314.16-20.88Q316.28-20.36 317.64-19.48L317.64-19.48L316-16.44Q313.40-18.12 309.88-18.12L309.88-18.12Q307.44-18.12 306.16-17.32Q304.88-16.52 304.88-15.20L304.88-15.20Q304.88-14.16 305.60-13.56Q306.32-12.96 307.38-12.68Q308.44-12.40 310.36-12.04L310.36-12.04Q312.92-11.60 314.50-11.10Q316.08-10.60 317.20-9.40Q318.32-8.20 318.32-6.04L318.32-6.04Q318.32-3.16 315.86-1.46Q313.40 0.24 309.16 0.24L309.16 0.24Z M345.64-26.76Q342.20-26.76 342.20-23.04L342.20-23.04L342.20-21.20L348.36-21.20L348.36-18.04L342.28-18.04L342.28 0L338.44 0L338.44-18.04L334.84-18.04L334.84-21.20L338.44-21.20L338.44-23.08Q338.44-26.24 340.28-28.08Q342.12-29.92 345.44-29.92L345.44-29.92Q346.72-29.92 347.84-29.60Q348.96-29.28 349.76-28.68L349.76-28.68L348.60-25.76Q347.28-26.76 345.64-26.76L345.64-26.76Z M360.88-17.64Q361.88-19.48 363.84-20.44Q365.80-21.40 368.60-21.40L368.60-21.40L368.60-17.68Q368.28-17.72 367.72-17.72L367.72-17.72Q364.60-17.72 362.82-15.86Q361.04-14 361.04-10.56L361.04-10.56L361.04 0L357.20 0L357.20-21.20L360.88-21.20L360.88-17.64Z M384.20 0.24Q381.04 0.24 378.52-1.16Q376.00-2.56 374.58-5.02Q373.16-7.48 373.16-10.60L373.16-10.60Q373.16-13.72 374.58-16.18Q376.00-18.64 378.52-20.02Q381.04-21.40 384.20-21.40L384.20-21.40Q387.36-21.40 389.86-20.02Q392.36-18.64 393.78-16.18Q395.20-13.72 395.20-10.60L395.20-10.60Q395.20-7.48 393.78-5.02Q392.36-2.56 389.86-1.16Q387.36 0.24 384.20 0.24L384.20 0.24ZM384.20-3.12Q386.24-3.12 387.86-4.06Q389.48-5 390.40-6.70Q391.32-8.40 391.32-10.60L391.32-10.60Q391.32-12.80 390.40-14.50Q389.48-16.20 387.86-17.12Q386.24-18.04 384.20-18.04L384.20-18.04Q382.16-18.04 380.54-17.12Q378.92-16.20 377.98-14.50Q377.04-12.80 377.04-10.60L377.04-10.60Q377.04-8.40 377.98-6.70Q378.92-5 380.54-4.06Q382.16-3.12 384.20-3.12L384.20-3.12Z M413.84-21.40Q417.88-21.40 420.26-19.06Q422.64-16.72 422.64-12.20L422.64-12.20L422.64 0L418.80 0L418.80-11.76Q418.80-14.84 417.32-16.40Q415.84-17.96 413.08-17.96L413.08-17.96Q409.96-17.96 408.16-16.14Q406.36-14.32 406.36-10.92L406.36-10.92L406.36 0L402.52 0L402.52-21.20L406.20-21.20L406.20-18Q407.36-19.64 409.34-20.52Q411.32-21.40 413.84-21.40L413.84-21.40Z M442.48-4L443.68-1.24Q442.84-0.52 441.60-0.14Q440.36 0.24 439.04 0.24L439.04 0.24Q435.84 0.24 434.08-1.48Q432.32-3.20 432.32-6.40L432.32-6.40L432.32-18.04L428.72-18.04L428.72-21.20L432.32-21.20L432.32-25.84L436.16-25.84L436.16-21.20L442.24-21.20L442.24-18.04L436.16-18.04L436.16-6.56Q436.16-4.84 437.02-3.92Q437.88-3 439.48-3L439.48-3Q441.24-3 442.48-4L442.48-4Z M468.76-10.48Q468.76-10.04 468.68-9.32L468.68-9.32L451.48-9.32Q451.84-6.52 453.94-4.82Q456.04-3.12 459.16-3.12L459.16-3.12Q462.96-3.12 465.28-5.68L465.28-5.68L467.40-3.20Q465.96-1.52 463.82-0.64Q461.68 0.24 459.04 0.24L459.04 0.24Q455.68 0.24 453.08-1.14Q450.48-2.52 449.06-5Q447.64-7.48 447.64-10.60L447.64-10.60Q447.64-13.68 449.02-16.16Q450.40-18.64 452.82-20.02Q455.24-21.40 458.28-21.40L458.28-21.40Q461.32-21.40 463.70-20.02Q466.08-18.64 467.42-16.16Q468.76-13.68 468.76-10.48L468.76-10.48ZM458.28-18.16Q455.52-18.16 453.66-16.48Q451.80-14.80 451.48-12.08L451.48-12.08L465.08-12.08Q464.76-14.76 462.90-16.46Q461.04-18.16 458.28-18.16L458.28-18.16Z M479.76-17.64Q480.76-19.48 482.72-20.44Q484.68-21.40 487.48-21.40L487.48-21.40L487.48-17.68Q487.16-17.72 486.60-17.72L486.60-17.72Q483.48-17.72 481.70-15.86Q479.92-14 479.92-10.56L479.92-10.56L479.92 0L476.08 0L476.08-21.20L479.76-21.20L479.76-17.64Z M501.88-21.40Q506.28-21.40 508.62-19.24Q510.96-17.08 510.96-12.80L510.96-12.80L510.96 0L507.32 0L507.32-2.80Q506.36-1.32 504.58-0.54Q502.80 0.24 500.36 0.24L500.36 0.24Q496.80 0.24 494.66-1.48Q492.52-3.20 492.52-6L492.52-6Q492.52-8.80 494.56-10.50Q496.60-12.20 501.04-12.20L501.04-12.20L507.12-12.20L507.12-12.96Q507.12-15.44 505.68-16.76Q504.24-18.08 501.44-18.08L501.44-18.08Q499.56-18.08 497.76-17.46Q495.96-16.84 494.72-15.80L494.72-15.80L493.12-18.68Q494.76-20 497.04-20.70Q499.32-21.40 501.88-21.40L501.88-21.40ZM501.00-2.72Q503.20-2.72 504.80-3.70Q506.40-4.68 507.12-6.48L507.12-6.48L507.12-9.44L501.20-9.44Q496.32-9.44 496.32-6.16L496.32-6.16Q496.32-4.56 497.56-3.64Q498.80-2.72 501.00-2.72L501.00-2.72Z M526.16 0.24Q523.56 0.24 521.16-0.46Q518.76-1.16 517.40-2.24L517.40-2.24L519.00-5.28Q520.40-4.28 522.40-3.68Q524.40-3.08 526.44-3.08L526.44-3.08Q531.48-3.08 531.48-5.96L531.48-5.96Q531.48-6.92 530.80-7.48Q530.12-8.04 529.10-8.30Q528.08-8.56 526.20-8.88L526.20-8.88Q523.64-9.28 522.02-9.80Q520.40-10.32 519.24-11.56Q518.08-12.80 518.08-15.04L518.08-15.04Q518.08-17.92 520.48-19.66Q522.88-21.40 526.92-21.40L526.92-21.40Q529.04-21.40 531.16-20.88Q533.28-20.36 534.64-19.48L534.64-19.48L533.00-16.44Q530.40-18.12 526.88-18.12L526.88-18.12Q524.44-18.12 523.16-17.32Q521.88-16.52 521.88-15.20L521.88-15.20Q521.88-14.16 522.60-13.56Q523.32-12.96 524.38-12.68Q525.44-12.40 527.36-12.04L527.36-12.04Q529.92-11.60 531.50-11.10Q533.08-10.60 534.20-9.40Q535.32-8.20 535.32-6.04L535.32-6.04Q535.32-3.16 532.86-1.46Q530.40 0.24 526.16 0.24L526.16 0.24Z"/></g>
</svg>
</g><g opacity="1" transform="rotate(0 596.5307 456.0815)">
<svg width="352.2393" height="28" x="596.5307" y="456.0815" version="1.1" preserveAspectRatio="none" viewBox="3.32 -31.48 400.04 31.8">
  <g transform="matrix(1 0 0 1 0 0)" class="background"><path id="id-D6z1nYkh18" d="M22.60-28L29-28L29 0L23.68 0L9.72-17L9.72 0L3.32 0L3.32-28L8.68-28L22.60-11L22.60-28Z M56.28-10.68Q56.28-10.56 56.16-9L56.16-9L39.88-9Q40.32-7 41.96-5.84Q43.60-4.68 46.04-4.68L46.04-4.68Q47.72-4.68 49.02-5.18Q50.32-5.68 51.44-6.76L51.44-6.76L54.76-3.16Q51.72 0.32 45.88 0.32L45.88 0.32Q42.24 0.32 39.44-1.10Q36.64-2.52 35.12-5.04Q33.60-7.56 33.60-10.76L33.60-10.76Q33.60-13.92 35.10-16.46Q36.60-19 39.22-20.42Q41.84-21.84 45.08-21.84L45.08-21.84Q48.24-21.84 50.80-20.48Q53.36-19.12 54.82-16.58Q56.28-14.04 56.28-10.68L56.28-10.68ZM45.12-17.12Q43-17.12 41.56-15.92Q40.12-14.72 39.80-12.64L39.80-12.64L50.40-12.64Q50.08-14.68 48.64-15.90Q47.20-17.12 45.12-17.12L45.12-17.12Z M89.08-21.52L94.60-21.52L86.80 0L80.80 0L75.96-13.36L70.96 0L64.96 0L57.20-21.52L63.08-21.52L68.16-6.96L73.44-21.52L78.72-21.52L83.84-6.96L89.08-21.52Z M128.48-28L134.96-28L134.96 0L128.48 0L128.48-11.48L115.76-11.48L115.76 0L109.28 0L109.28-28L115.76-28L115.76-16.96L128.48-16.96L128.48-28Z M151.40 0.32Q148 0.32 145.30-1.10Q142.60-2.52 141.08-5.04Q139.56-7.56 139.56-10.76L139.56-10.76Q139.56-13.96 141.08-16.48Q142.60-19 145.30-20.42Q148-21.84 151.40-21.84L151.40-21.84Q154.80-21.84 157.48-20.42Q160.16-19 161.68-16.48Q163.20-13.96 163.20-10.76L163.20-10.76Q163.20-7.56 161.68-5.04Q160.16-2.52 157.48-1.10Q154.80 0.32 151.40 0.32L151.40 0.32ZM151.40-4.80Q153.80-4.80 155.34-6.42Q156.88-8.04 156.88-10.76L156.88-10.76Q156.88-13.48 155.34-15.10Q153.80-16.72 151.40-16.72L151.40-16.72Q149-16.72 147.44-15.10Q145.88-13.48 145.88-10.76L145.88-10.76Q145.88-8.04 147.44-6.42Q149-4.80 151.40-4.80L151.40-4.80Z M173.32-18.68Q174.44-20.24 176.34-21.04Q178.24-21.84 180.72-21.84L180.72-21.84L180.72-16.08Q179.68-16.16 179.32-16.16L179.32-16.16Q176.64-16.16 175.12-14.66Q173.60-13.16 173.60-10.16L173.60-10.16L173.60 0L167.36 0L167.36-21.52L173.32-21.52L173.32-18.68Z M184.44 0L184.44-21.52L190.68-21.52L190.68 0L184.44 0ZM187.56-24.52Q185.84-24.52 184.76-25.52Q183.68-26.52 183.68-28L183.68-28Q183.68-29.48 184.76-30.48Q185.84-31.48 187.56-31.48L187.56-31.48Q189.28-31.48 190.36-30.52Q191.44-29.56 191.44-28.12L191.44-28.12Q191.44-26.56 190.36-25.54Q189.28-24.52 187.56-24.52L187.56-24.52Z M202.88-4.80L214.20-4.80L214.20 0L195 0L195-3.76L205.96-16.72L195.28-16.72L195.28-21.52L213.84-21.52L213.84-17.76L202.88-4.80Z M228.16 0.32Q224.76 0.32 222.06-1.10Q219.36-2.52 217.84-5.04Q216.32-7.56 216.32-10.76L216.32-10.76Q216.32-13.96 217.84-16.48Q219.36-19 222.06-20.42Q224.76-21.84 228.16-21.84L228.16-21.84Q231.56-21.84 234.24-20.42Q236.92-19 238.44-16.48Q239.96-13.96 239.96-10.76L239.96-10.76Q239.96-7.56 238.44-5.04Q236.92-2.52 234.24-1.10Q231.56 0.32 228.16 0.32L228.16 0.32ZM228.16-4.80Q230.56-4.80 232.10-6.42Q233.64-8.04 233.64-10.76L233.64-10.76Q233.64-13.48 232.10-15.10Q230.56-16.72 228.16-16.72L228.16-16.72Q225.76-16.72 224.20-15.10Q222.64-13.48 222.64-10.76L222.64-10.76Q222.64-8.04 224.20-6.42Q225.76-4.80 228.16-4.80L228.16-4.80Z M257.20-21.84Q261.20-21.84 263.66-19.44Q266.12-17.04 266.12-12.32L266.12-12.32L266.12 0L259.88 0L259.88-11.36Q259.88-13.92 258.76-15.18Q257.64-16.44 255.52-16.44L255.52-16.44Q253.16-16.44 251.76-14.98Q250.36-13.52 250.36-10.64L250.36-10.64L250.36 0L244.12 0L244.12-21.52L250.08-21.52L250.08-19Q251.32-20.36 253.16-21.10Q255.00-21.84 257.20-21.84L257.20-21.84Z M289.32 0L289.32-22.72L280.36-22.72L280.36-28L304.76-28L304.76-22.72L295.80-22.72L295.80 0L289.32 0Z M313.28-18.68Q314.40-20.24 316.30-21.04Q318.20-21.84 320.68-21.84L320.68-21.84L320.68-16.08Q319.64-16.16 319.28-16.16L319.28-16.16Q316.60-16.16 315.08-14.66Q313.56-13.16 313.56-10.16L313.56-10.16L313.56 0L307.32 0L307.32-21.52L313.28-21.52L313.28-18.68Z M332.96-21.84Q337.96-21.84 340.64-19.46Q343.32-17.08 343.32-12.28L343.32-12.28L343.32 0L337.48 0L337.48-2.68Q335.72 0.32 330.92 0.32L330.92 0.32Q328.44 0.32 326.62-0.52Q324.80-1.36 323.84-2.84Q322.88-4.32 322.88-6.20L322.88-6.20Q322.88-9.20 325.14-10.92Q327.40-12.64 332.12-12.64L332.12-12.64L337.08-12.64Q337.08-14.68 335.84-15.78Q334.60-16.88 332.12-16.88L332.12-16.88Q330.40-16.88 328.74-16.34Q327.08-15.80 325.92-14.88L325.92-14.88L323.68-19.24Q325.44-20.48 327.90-21.16Q330.36-21.84 332.96-21.84L332.96-21.84ZM332.48-3.88Q334.08-3.88 335.32-4.62Q336.56-5.36 337.08-6.80L337.08-6.80L337.08-9L332.80-9Q328.96-9 328.96-6.48L328.96-6.48Q328.96-5.28 329.90-4.58Q330.84-3.88 332.48-3.88L332.48-3.88Z M363.92-21.52L369.92-21.52L360.84 0L354.40 0L345.36-21.52L351.80-21.52L357.76-6.88L363.92-21.52Z M392.96-10.68Q392.96-10.56 392.84-9L392.84-9L376.56-9Q377-7 378.64-5.84Q380.28-4.68 382.72-4.68L382.72-4.68Q384.40-4.68 385.70-5.18Q387-5.68 388.12-6.76L388.12-6.76L391.44-3.16Q388.40 0.32 382.56 0.32L382.56 0.32Q378.92 0.32 376.12-1.10Q373.32-2.52 371.80-5.04Q370.28-7.56 370.28-10.76L370.28-10.76Q370.28-13.92 371.78-16.46Q373.28-19 375.90-20.42Q378.52-21.84 381.76-21.84L381.76-21.84Q384.92-21.84 387.48-20.48Q390.04-19.12 391.50-16.58Q392.96-14.04 392.96-10.68L392.96-10.68ZM381.80-17.12Q379.68-17.12 378.24-15.92Q376.80-14.72 376.48-12.64L376.48-12.64L387.08-12.64Q386.76-14.68 385.32-15.90Q383.88-17.12 381.80-17.12L381.80-17.12Z M397.12 0L397.12-29.68L403.36-29.68L403.36 0L397.12 0Z"/></g>
</svg>
</g><g opacity="1" transform="rotate(0 482.5308 426.0815)">
<svg width="87.9999" height="88" x="482.5308" y="426.0815" version="1.1" preserveAspectRatio="none" viewBox="0 0 87.9999 88">
  <defs><rect x="1.759998" y="1.759998" width="84.47990399999999" height="84.480004" rx="0px" ry="0px" id="id-tBXipXk0b1674869343433"></rect></defs><use class="background icon1-str" style="stroke-width:3.519996;" xlink:href="#id-tBXipXk0b1674869343433"></use>
</svg>
</g><g opacity="1" transform="rotate(0 502.5308 446.2592)">
<svg width="47.9999" height="47.6447" x="502.5308" y="446.2592" version="1.1" preserveAspectRatio="none" viewBox="11.80000114440918 12.245500564575195 77.1252670288086 76.55450439453125">
  <g transform="matrix(1 0 0 1 0 0)" class="icon1"><path d="M66.8,17.9C66.8,17.9,66.8,17.9,66.8,17.9L47.1,37.7l-11.7,0.2c0.8-0.8,3.4-3.9,2-8.9c-0.1-0.3-0.4-0.6-0.7-0.7  c-5.5-1.6-8.8,1.9-9,2.1L16.9,41.1c-0.4,0.4-0.4,1,0,1.4l6.2,6.2c0.2,0.2,0.5,0.3,0.7,0.3s0.5-0.1,0.7-0.3l0.6-0.6l5.8,5.8l-1.5,1.5  c-0.2,0.2-0.3,0.4-0.3,0.7s0.1,0.5,0.3,0.7l0.4,0.4l-2.3,2.3c-0.2,0.2-0.3,0.4-0.3,0.7s0.1,0.5,0.3,0.7l4.8,4.8l-6.6,6.6  c-0.4,0.4-0.4,1,0,1.4c0.2,0.2,0.5,0.3,0.7,0.3s0.5-0.1,0.7-0.3l6.6-6.6l1.6,1.6L21.3,82.8c-0.4,0.4-0.4,1,0,1.4  c0.2,0.2,0.5,0.3,0.7,0.3s0.5-0.1,0.7-0.3l14.1-14.1l3.5,3.5c0.2,0.2,0.5,0.3,0.7,0.3s0.5-0.1,0.7-0.3l2.3-2.3l0.4,0.4  c0.2,0.2,0.4,0.3,0.7,0.3s0.5-0.1,0.7-0.3l1.5-1.5l5.9,5.9l-0.6,0.6c-0.4,0.4-0.4,1,0,1.4l6.2,6.2c0.2,0.2,0.5,0.3,0.7,0.3  s0.5-0.1,0.7-0.3l10.7-10.7c0.3-0.3,3.7-3.6,2.1-9c-0.1-0.3-0.4-0.6-0.7-0.7c-5-1.4-8.1,1.2-8.9,2L63.6,54l19.6-19.6c0,0,0,0,0,0  c0.8-0.7,8.3-8,4.8-20.5c-0.1-0.3-0.4-0.6-0.7-0.7C74.9,9.6,67.4,17.3,66.8,17.9z M35.5,30c0.6,2.8-0.4,4.8-1.1,5.8l-4.7-4.7  C30.8,30.4,32.8,29.4,35.5,30z M19,41.8l9.3-9.3l4.8,4.8l-9.3,9.3L19,41.8z M26.5,46.7l6.8-6.8L45,39.7L32.3,52.4L26.5,46.7z   M41,71.5L29.6,60.2l1.6-1.6L42.6,70L41,71.5z M59.5,82.3l-4.8-4.8l9.3-9.3l4.8,4.8L59.5,82.3z M71.2,65.7c0.6,2.8-0.4,4.8-1.1,5.8  l-4.7-4.7C66.4,66.1,68.4,65.1,71.2,65.7z M61.4,67.9l-6.8,6.8l-5.9-5.9L61.6,56L61.4,67.9z M45.1,69.7L31.5,56.1l36-36l13.6,13.6  L45.1,69.7z M82.5,32.3L68.9,18.7c2-1.7,8.1-6.1,17.3-3.7C88.7,24.3,84.3,30.3,82.5,32.3z"></path><path d="M62.8,29.3c-2.5,2.5-2.5,6.6,0,9.1c1.3,1.3,2.9,1.9,4.6,1.9s3.3-0.6,4.6-1.9c1.2-1.2,1.9-2.8,1.9-4.6c0-1.7-0.7-3.3-1.9-4.6  c-1.2-1.2-2.8-1.9-4.6-1.9S64,28.1,62.8,29.3z M70.5,37c-0.8,0.8-2,1.3-3.1,1.3S65,37.8,64.2,37c-1.7-1.7-1.7-4.6,0-6.3  c1.7-1.7,4.6-1.7,6.3,0S72.2,35.2,70.5,37z"></path><path d="M65.2,32.7c0.4,0.4,1,0.4,1.4,0c0.4-0.4,1.2-0.4,1.6,0c0.2,0.2,0.5,0.3,0.7,0.3s0.5-0.1,0.7-0.3c0.4-0.4,0.4-1,0-1.4  c-1.2-1.2-3.2-1.2-4.4,0C64.8,31.7,64.8,32.3,65.2,32.7z"></path><path d="M26.1,68c0.3,0,0.5-0.1,0.7-0.3l2.1-2.1c0.4-0.4,0.4-1,0-1.4c-0.4-0.4-1-0.4-1.4,0l-2.1,2.1c-0.4,0.4-0.4,1,0,1.4  C25.6,67.9,25.9,68,26.1,68z"></path><path d="M12.8,87.4c0.3,0,0.5-0.1,0.7-0.3l10.9-10.9c0.4-0.4,0.4-1,0-1.4s-1-0.4-1.4,0L12.1,85.7c-0.4,0.4-0.4,1,0,1.4  C12.3,87.3,12.6,87.4,12.8,87.4z"></path><path d="M15.7,78.4c0.3,0,0.5-0.1,0.7-0.3l8-8c0.4-0.4,0.4-1,0-1.4s-1-0.4-1.4,0l-8,8c-0.4,0.4-0.4,1,0,1.4  C15.2,78.3,15.4,78.4,15.7,78.4z"></path><path d="M24.1,88.8c0.3,0,0.5-0.1,0.7-0.3l2.1-2.1c0.4-0.4,0.4-1,0-1.4s-1-0.4-1.4,0l-2.1,2.1c-0.4,0.4-0.4,1,0,1.4  C23.6,88.7,23.9,88.8,24.1,88.8z"></path><path d="M36,74.5l-8,8c-0.4,0.4-0.4,1,0,1.4c0.2,0.2,0.5,0.3,0.7,0.3s0.5-0.1,0.7-0.3l8-8c0.4-0.4,0.4-1,0-1.4S36.4,74.1,36,74.5z"></path></g>
</svg>
</g></svg></svg>